<?xml version="1.0"?>
<svg xmlns="http://www.w3.org/2000/svg" height="512px" viewBox="0 -51 511.99995 511" width="512px" class=""><g transform="matrix(-1 0 0 1 512 0)"><script xmlns=""/><script xmlns=""/><path d="m429.875 139.152344-44.953125-93.691406c-6.171875-13.179688-.492187-28.863282 12.683594-35.035157 13.179687-6.171875 28.867187-.492187 35.035156 12.6875.773437 1.644531 1.386719 3.46875 1.792969 5.171875l22.71875 101.402344c1.824218 7.804688-3.019532 15.613281-10.828125 17.441406-6.800781 1.589844-13.605469-1.894531-16.449219-7.976562zm0 0" fill="#91daff" data-original="#91DAFF"/><path d="m429.875 139.152344 22.714844 101.402344c3.316406 14.167968 17.488281 22.96875 31.65625 19.652343 14.167968-3.3125 22.96875-17.484375 19.652344-31.65625-.414063-1.769531-1.0625-3.582031-1.792969-5.171875l-44.953125-93.691406c-3.398438-7.257812-12.039063-10.386719-19.300782-6.988281-6.324218 2.964843-9.511718 9.910156-7.976562 16.453125zm0 0" fill="#91daff" data-original="#91DAFF"/><path d="m479.980469 177.269531-22.828125-47.582031c-3.398438-7.257812-12.039063-10.386719-19.300782-6.988281-6.324218 2.960937-9.511718 9.910156-7.976562 16.449219l13.679688 61.058593c14.15625-8.351562 27.167968-16.027343 27.1875-16.039062 3.359374-2.003907 6.4375-4.328125 9.238281-6.898438zm0 0" fill="#4d9ae8" data-original="#4D9AE8" class=""/><path d="m434.089844 78.496094c-.027344.003906-14.996094 2.03125-31.285156 4.238281l27.070312 56.417969c2.847656 6.082031 9.648438 9.566406 16.449219 7.976562 7.808593-1.828125 12.65625-9.636718 10.828125-17.441406l-11.539063-51.515625c-1.371093-.097656-2.746093-.15625-4.132812-.15625-2.460938 0-4.949219.160156-7.390625.480469zm0 0" fill="#4d9ae8" data-original="#4D9AE8" class=""/><path d="m455.355469 158.398438c11.03125-6.585938 15.921875-20.011719 11.710937-32.148438-4.210937-12.136719-16.363281-19.652344-29.105468-17.992188l-71.890626 9.746094 26.800782 77.261719zm0 0" fill="#ffe675" data-original="#FFE675" class=""/><path d="m465.734375 123.132812c-2.246094 4.546876-5.765625 8.503907-10.378906 11.257813l-62.484375 36.867187-18.847656-54.332031-7.953126 1.078125 26.800782 77.261719 62.484375-36.863281c11.03125-6.585938 15.921875-20.015625 11.710937-32.152344-.375-1.082031-.835937-2.113281-1.332031-3.117188zm0 0" fill="#ffb258" data-original="#FFB258"/><path d="m81.917969 381.671875c-.519531 0-1.042969-.03125-1.570313-.085937-7.753906-.859376-13.34375-7.839844-12.484375-15.589844l9.269531-83.78125c.859376-7.75 7.835938-13.332032 15.59375-12.484375 7.75.859375 13.339844 7.839843 12.480469 15.589843l-9.269531 83.78125c-.800781 7.222657-6.917969 12.570313-14.019531 12.570313zm0 0" fill="#dadadc" data-original="#DADADC"/><path d="m364.195312 366.308594c-6.007812 0-11.578124-3.867188-13.472656-9.90625l-32.636718-104.1875c-2.332032-7.445313 1.8125-15.367188 9.253906-17.699219 7.449218-2.328125 15.367187 1.8125 17.699218 9.253906l32.636719 104.191407c2.332031 7.441406-1.808593 15.367187-9.253906 17.699218-1.402344.4375-2.828125.648438-4.226563.648438zm0 0" fill="#dadadc" data-original="#DADADC"/><path d="m300.859375 79.179688c47.339844-10.839844 97.707031 14.042968 115.832031 60.480468 21.238282 54.417969-10.554687 113.089844-64.125 131.710938-81.449218 28.3125-168.242187 36.484375-253.972656 36.34375-.460938.007812-.925781.019531-1.375.019531-38.234375.460937-72.46875-23.605469-84.988281-59.730469l-3.457031-9.960937c-.929688-2.671875-1.375-5.421875-1.375-8.144531 0-7.832032 3.710937-15.402344 10.320312-20.175782 4.386719-3.152344 9.480469-4.6875 14.527344-4.6875 7.117187 0 14.160156 3.039063 19.054687 8.867188 2.777344 3.316406 7.757813 3.589844 10.921875.632812 1-.933594 2.035156-1.816406 3.097656-2.675781 17.324219-13.875 35.445313-27.199219 54.171876-39.84375zm0 0" fill="#ff6881" data-original="#FF6881" class=""/><path d="m352.566406 241.359375c-81.445312 28.3125-168.242187 36.484375-253.972656 36.34375-.460938.007813-.921875.019531-1.375.019531-38.234375.460938-72.464844-23.605468-84.988281-59.730468l-.65625-1.886719c-2.714844 4.078125-4.171875 8.882812-4.171875 13.792969 0 2.722656.441406 5.472656 1.375 8.144531l3.453125 9.960937c12.523437 36.125 46.753906 60.191406 84.988281 59.730469.453125 0 .914062-.011719 1.375-.019531 85.730469.140625 172.527344-8.03125 253.972656-36.34375 47.027344-16.347656 77.269532-63.558594 69.585938-111.664063-5.8125 36.621094-32.46875 68.75-69.585938 81.652344zm0 0" fill="#de4b64" data-original="#DE4B64"/><path d="m300.863281 79.167969c-19.105469-23.375-48.164062-38.300781-80.710937-38.300781-57.542969 0-104.1875 46.648437-104.1875 104.191406 0 9.324218 1.230468 18.363281 3.53125 26.964844 0 0 0-.003907.003906-.003907.238281.074219 44.65625 13.746094 109.753906-20.375 64.59375-33.847656 71.464844-71.675781 71.609375-72.464843" fill="#4d9ae8" data-original="#4D9AE8" class=""/><path d="m145.976562 145.058594c0-52.457032 38.761719-95.851563 89.207032-103.117188-4.90625-.707031-9.925782-1.074218-15.03125-1.074218-57.542969 0-104.1875 46.644531-104.1875 104.1875 0 9.328124 1.230468 18.363281 3.53125 26.96875 0-.003907 0-.003907.003906-.003907.117188.035157 10.53125 3.238281 28.601562 2.707031-1.390624-9.503906-2.125-22.476562-2.125-29.667968zm0 0" fill="#91daff" data-original="#91DAFF"/><path d="m259.195312 205.320312-99.230468 17.09375c-10.691406 1.839844-19.539063 9.339844-23.109375 19.585938l-7.796875 22.382812c-7.652344 21.96875.960937 46.308594 20.730468 58.570313 23.644532 14.671875 54.726563 7.066406 68.929688-16.863281l50.855469-85.691406c4.390625-7.394532-1.902344-16.535157-10.378907-15.078126zm0 0" fill="#ffe675" data-original="#FFE675" class=""/><path d="m179.796875 322.953125c-19.765625-12.265625-28.378906-36.601563-20.726563-58.570313l7.796876-22.382812c1.734374-4.980469 4.71875-14.042969 8.558593-22.25l-15.460937 2.664062c-10.691406 1.839844-19.542969 9.339844-23.109375 19.585938l-7.796875 22.382812c-7.652344 21.96875.960937 46.308594 20.726562 58.570313 12.832032 7.964844 27.851563 9.351563 41.175782 5.144531-3.832032-1.222656-7.582032-2.921875-11.164063-5.144531zm0 0" fill="#ffb258" data-original="#FFB258"/><path d="m413.785156 352.183594c0 27.382812-22.199218 49.582031-49.585937 49.582031-27.382813 0-49.582031-22.199219-49.582031-49.582031 0-27.386719 22.199218-49.585938 49.582031-49.585938 27.386719 0 49.585937 22.199219 49.585937 49.585938zm0 0" fill="#485b73" data-original="#485B73"/><path d="m382.429688 352.183594c0 10.066406-8.160157 18.226562-18.230469 18.226562-10.066407 0-18.226563-8.160156-18.226563-18.226562s8.160156-18.226563 18.226563-18.226563c10.070312 0 18.230469 8.160157 18.230469 18.226563zm0 0" fill="#dadadc" data-original="#DADADC"/><path d="m116.121094 367.546875c0 18.898437-15.320313 34.21875-34.21875 34.21875-18.902344 0-34.222656-15.320313-34.222656-34.21875s15.320312-34.21875 34.222656-34.21875c18.898437 0 34.21875 15.320313 34.21875 34.21875zm0 0" fill="#485b73" data-original="#485B73"/><path d="m94.480469 367.546875c0 6.949219-5.632813 12.578125-12.578125 12.578125-6.949219 0-12.582032-5.628906-12.582032-12.578125 0-6.945313 5.632813-12.578125 12.582032-12.578125 6.945312 0 12.578125 5.632812 12.578125 12.578125zm0 0" fill="#dadadc" data-original="#DADADC"/><path d="m338.574219 352.113281c0 14.1875 11.542969 25.730469 25.730469 25.730469s25.730468-11.542969 25.730468-25.730469-11.542968-25.730469-25.730468-25.730469-25.730469 11.542969-25.730469 25.730469zm36.453125 0c0 5.914063-4.8125 10.726563-10.726563 10.726563-5.910156 0-10.722656-4.8125-10.722656-10.726563 0-5.910156 4.8125-10.722656 10.722656-10.722656 5.914063 0 10.726563 4.8125 10.726563 10.722656zm0 0" data-original="#000000" class="active-path" style="fill:#000000"/><path d="m82.003906 347.398438c-11.074218 0-20.082031 9.007812-20.082031 20.082031 0 11.070312 9.007813 20.082031 20.082031 20.082031 11.070313 0 20.082032-9.007812 20.082032-20.082031s-9.011719-20.082031-20.082032-20.082031zm0 25.15625c-2.800781 0-5.078125-2.277344-5.078125-5.074219 0-2.800781 2.277344-5.078125 5.078125-5.078125 2.796875 0 5.074219 2.277344 5.074219 5.078125 0 2.796875-2.277344 5.074219-5.074219 5.074219zm0 0" data-original="#000000" class="active-path" style="fill:#000000"/><path d="m421.140625 218.816406c5.511719-11.960937 8.699219-24.519531 9.5625-37.167968l.988281-.585938s13.691406 61.113281 13.695313 61.132812c4.011719 17.894532 22.9375 29.398438 40.671875 25.25 20.425781-4.777343 31.679687-28.332031 22.964844-47.269531-.015626-.039062-.035157-.074219-.050782-.109375l-8.074218-16.828125c-1.792969-3.734375-6.273438-5.3125-10.007813-3.519531-3.738281 1.792969-5.3125 6.273438-3.519531 10.011719 0 0 8.046875 16.769531 8.046875 16.769531 4.855469 10.628906-1.296875 23.648438-12.777344 26.335938-10.113281 2.363281-20.273437-3.941407-22.625-13.988282l-14.738281-65.796875 14.027344-8.277343c1.671874-.996094 3.257812-2.136719 4.734374-3.40625.027344-.027344.0625-.046876.09375-.074219l10.539063 21.96875c1.792969 3.734375 6.273437 5.3125 10.007813 3.519531 3.738281-1.792969 5.3125-6.273438 3.519531-10.011719l-14.238281-29.671875c2.726562-7.339844 2.996093-15.589844.296874-23.375-2.703124-7.789062-7.996093-14.148437-14.722656-18.238281l-17.675781-78.90625c-.007813-.039063-.015625-.078125-.027344-.117187-4.898437-20.351563-28.234375-31.828126-47.304687-22.894532-16.902344 7.914063-24.214844 28.105469-16.269532 45.074219l27.070313 56.417969-1.101563.148437c-20.117187-22.414062-49.542968-36.113281-80.945312-36.113281-6.535156 0-13.066406.605469-19.480469 1.785156-21.226562-23.933594-51.414062-37.582031-83.542969-37.582031-30.171874 0-58.449218 11.851563-79.617187 33.367187-2.90625 2.953126-2.867187 7.703126.085937 10.609376 2.957032 2.90625 7.707032 2.871093 10.609376-.085938 18.328124-18.625 42.804687-28.882812 68.921874-28.882812 27.851563 0 54.023438 11.835937 72.40625 32.613281 1.472657 1.667969-7.5 14.71875-8.457031 16.125-17.0625 25.078125-44.8125 42.515625-72.109375 54.535156-.078125.03125-.15625.066406-.234375.101563-43.445312 19.082031-75.308593 15.933593-86.074219 13.980468-1.472656-6.765625-2.21875-13.699218-2.21875-20.667968 0-15.683594 3.84375-31.261719 11.121094-45.054688 1.933594-3.664062.53125-8.203125-3.132812-10.136719-3.664063-1.933593-8.203125-.53125-10.136719 3.136719-8.410156 15.9375-12.859375 33.9375-12.859375 52.054688 0 7.980468.863281 15.917968 2.539062 23.675781-17.382812 11.894531-52.820312 39.316406-53.949218 40.34375-6.167969-7.335938-15.203125-11.542969-24.800782-11.542969-6.820312 0-13.359374 2.109375-18.921874 6.109375-8.410157 6.066406-13.429688 15.882813-13.429688 26.253906 0 3.628907.601562 7.199219 1.789062 10.601563l3.453126 9.960937c10.066406 29.035157 33.128906 50.933594 61.308593 60.085938l-2.121093 19.171875c-14.246094 6.644531-24.152344 21.097656-24.152344 37.828125 0 23.003906 18.71875 41.722656 41.722656 41.722656 23.007812 0 41.722656-18.71875 41.722656-41.722656 0-13.445313-6.398437-25.421875-16.304687-33.054688l2.132812-19.308593c6.917969-.046876 13.792969-.160157 20.570313-.320313 4.207031 5.621094 9.507812 10.558594 15.8125 14.464844 9.066406 5.628906 19.476562 8.601562 30.101562 8.601562 20.113282 0 38.980469-10.734375 49.234375-28.007812l1.222657-2.0625c34.003906-4.359375 65.488281-10.621094 95.320312-18.976563l6.070312 19.375c-12.617187 10.480469-20.667968 26.277344-20.667968 43.925782 0 31.476562 25.609375 57.085937 57.089844 57.085937 31.476562 0 57.085937-25.609375 57.085937-57.085937 0-29.84375-23.023437-54.398438-52.238281-56.871094l-6.234375-19.890625c25.640625-11.085938 46.59375-31.324219 58.222656-56.539063zm37.691406-74.613281c-1.625 3.125-4.066406 5.824219-7.1875 7.667969l-21.207031 12.511718c-1.613281-16.085937-7.078125-31.804687-15.730469-45.457031 0 0 24.324219-3.296875 24.324219-3.296875 9.019531-1.222656 18.054688 4.382813 21.046875 13.011719 1.789063 5.160156 1.207031 10.84375-1.246094 15.5625zm-37.878906-41.265625-29.136719-60.726562c-4.40625-9.410157-.335937-20.652344 9.074219-25.058594 10.671875-5 23.566406 1.371094 26.339844 12.765625 0 0 15.808593 70.570312 15.808593 70.570312-.113281-.460937-5.714843.230469-5.980468.265625-.003906 0-16.105469 2.183594-16.105469 2.183594zm-338.949219 291.257812c-14.734375 0-26.71875-11.984374-26.71875-26.714843 0-14.484375 12.242188-26.71875 26.71875-26.71875 14.550782 0 26.714844 12.1875 26.714844 26.71875 0 14.730469-11.984375 26.714843-26.714844 26.714843zm5.832032-68.019531c-2.609376-.363281-5.25-.496093-7.882813-.367187l1.304687-11.808594c1.875.296875 3.765626.519531 5.664063.703125 2.5.242187 5.019531.40625 7.53125.453125l-1.339844 12.105469c-.0625-.015625-3.558593-.84375-5.277343-1.085938zm88.199218-3.507812c-7.648437.058593-15.359375-1.917969-22.191406-6.15625-16.542969-10.265625-24.007812-31.3125-17.597656-49.730469l7.796875-22.382812c2.640625-7.582032 9.390625-13.296876 17.296875-14.660157 0 0 98.992187-17.050781 99.230468-17.089843 2.144532-.371094 3.75 2.003906 2.652344 3.851562 0 0-50.855468 85.691406-50.855468 85.691406-7.734376 13.035156-21.929688 20.363282-36.332032 20.476563zm100.09375-98.507813c3.265625-5.503906 3.332032-12.105468.171875-17.652344-3.628906-6.371093-11.042969-9.894531-18.277343-8.648437 0 0-99.214844 17.085937-99.230469 17.089844-13.199219 2.273437-24.515625 11.863281-28.921875 24.511719-2.867188 8.230468-6 16.414062-8.5625 24.746093-3.648438 12.074219-3.167969 24.542969.839844 35.75-6.386719.109375-12.84375.164063-19.328126.175781-8.898437.015626-17.679687-.34375-26.363281-2.417968-26.179687-6.570313-47.914062-25.929688-57.035156-52.238282 0 0-3.460937-9.96875-3.460937-9.972656-2.480469-7.152344.105468-15.324218 6.238281-19.757812 7.277343-5.25 17.6875-3.957032 23.453125 2.910156 5.476562 6.515625 15.582031 7.097656 21.792968 1.292969.804688-.75 36-27.933594 53.589844-39.914063 1.660156.359375 3.863282.765625 6.566406 1.132813 34.5 4.667969 71.1875-5.25 101.652344-21.105469.019532-.011719.035156-.019531.054688-.027344 31.730468-15.636718 66.105468-39.21875 77.6875-74.5 5.363281-.957031 10.824218-1.4375 16.285156-1.4375 37.859375 0 72.371094 23.039063 86.1875 57.410156 9.074219 22.585938 8.28125 48.820313-1.957031 71.027344-15.882813 34.445313-48.324219 49.71875-82.84375 59.839844-.097657.03125-.191407.070312-.289063.101562-27.671875 8.117188-56.792968 14.347657-88.117187 18.855469zm64.902344 75.816406-4.820312-15.398437c2.574218-.785156 5.136718-1.605469 7.695312-2.433594 1.640625-.53125 3.277344-1.0625 4.910156-1.605469l4.851563 15.488282c-.054688.011718-.113281.027344-.171875.039062-4.273438.832032-8.484375 2.132813-12.464844 3.910156zm65.351562 52.136719c0 23.207031-18.875 42.082031-42.082031 42.082031-23.203125 0-42.082031-18.875-42.082031-42.082031 0-22.390625 19.679688-42.082031 42.082031-42.082031 23.207031 0 42.082031 18.878906 42.082031 42.082031zm0 0" data-original="#000000" class="active-path" style="fill:#000000"/></g> </svg>
