<svg height="512pt" viewBox="-16 0 512 512" width="512pt" xmlns="http://www.w3.org/2000/svg"><path d="m472.5 142.5c0-5.707031-1.601562-11.035156-4.367188-15.574219l-32.179687-52.808593-25.625 7.179687 20.171875 115.203125 12 6c16.566406 0 30-13.429688 30-30 0-5.464844-1.472656-10.585938-4.023438-15 2.550782-4.414062 4.023438-9.535156 4.023438-15zm0 0" fill="#e18f4e"/><path d="m442.5 172.5c0-5.464844-1.472656-10.585938-4.023438-15 2.550782-4.414062 4.023438-9.535156 4.023438-15 0-5.707031-1.601562-11.035156-4.367188-15.574219l-27.804687-45.628906-57.828125 16.203125v45c0 16.5 13.5 30 30 30l48 24c7.285156-5.472656 12-14.1875 12-24zm0 0" fill="#ffa754"/><path d="m422.5 172.5h-30v120h50v-100c0-11.046875-8.957031-20-20-20zm0 0" fill="#a8e5ff"/><path d="m392.5 172.5h-20c-11.046875 0-20 8.953125-20 20v70l60 30v-100c0-11.046875-8.957031-20-20-20zm0 0" fill="#dbf4ff"/><path d="m442.5 262.5h-30l15 90h30v-50.335938c0-15.210937-5.671875-29.089843-15-39.664062zm0 0" fill="#ff4128"/><path d="m412.5 262.5h-60v90h75v-50.335938c0-15.210937-5.671875-29.089843-15-39.664062zm0 0" fill="#ff6337"/><path d="m397.5 52.5c24.851562 0 45-20.144531 45-45-24.855469 0-45 20.148438-45 45zm0 0" fill="#ff4128"/><path d="m352.5 7.5c0 24.855469 20.144531 45 45 45 0-24.851562-20.148438-45-45-45zm0 0" fill="#ff6337"/><path d="m431.753906 68.335938c.007813-.011719-34.253906-.003907-34.253906-.003907v74.167969c24.847656 0 45-20.148438 45-45 0-11.121094-4.046875-21.3125-10.746094-29.164062zm0 0" fill="#ffd9d4"/><path d="m411.386719 80.511719-48.144531-12.175781c-6.699219 7.851562-10.742188 18.042968-10.742188 29.164062 0 24.851562 20.148438 45 45 45 8.277344 0 15-20.148438 15-45 0-6.007812-.390625-11.75-1.113281-16.988281zm0 0" fill="#fff0d3"/><path d="m397.5 52.5 13.886719 28.011719c7.453125-2.230469 14.476562-6.296875 20.367187-12.175781-8.25-9.691407-20.535156-15.835938-34.253906-15.835938zm0 0" fill="#e18f4e"/><path d="m397.5 52.5c-13.722656 0-26.007812 6.144531-34.257812 15.835938 13.042968 13.039062 31.644531 17.105468 48.144531 12.175781-2.226563-16.429688-7.609375-28.011719-13.886719-28.011719zm0 0" fill="#ffa754"/><path d="m142.5 278v90c24.851562 0 45-20.148438 45-45zm0 0" fill="#49c9ff"/><path d="m157.5 323-15-45-45 45c0 24.851562 20.148438 45 45 45 8.285156 0 15-20.148438 15-45zm0 0" fill="#7dd9ff"/><path d="m182.5 227.5h-30v95h35c8.285156 0 15-6.714844 15-15v-60c0-11.046875-8.953125-20-20-20zm0 0" fill="#85453d"/><path d="m152.5 227.5h-50c-11.046875 0-20 8.953125-20 20v60.5c0 8.285156 6.714844 15 15 15h60c8.285156 0 15-6.714844 15-15v-60.5c0-11.046875-8.953125-20-20-20zm0 0" fill="#a45e43"/><path d="m176.753906 123.335938c.011719-.011719-34.253906-.003907-34.253906-.003907v74.167969c24.847656 0 45-20.148438 45-45 0-11.121094-4.046875-21.316406-10.746094-29.164062zm0 0" fill="#ffd9d4"/><path d="m156.390625 135.511719-48.144531-12.175781c-6.703125 7.847656-10.746094 18.042968-10.746094 29.164062 0 24.851562 20.148438 45 45 45 8.28125 0 15-20.148438 15-45 0-6.007812-.390625-11.75-1.109375-16.988281zm0 0" fill="#fff0d3"/><path d="m142.5 107.5 13.890625 28.011719c7.449219-2.230469 14.472656-6.296875 20.363281-12.175781-8.25-9.691407-20.535156-15.835938-34.253906-15.835938zm0 0" fill="#e18f4e"/><path d="m142.5 107.5c-13.71875 0-26.003906 6.144531-34.253906 15.835938 13.039062 13.039062 31.644531 17.105468 48.144531 12.175781-2.230469-16.429688-7.609375-28.011719-13.890625-28.011719zm0 0" fill="#ffa754"/><path d="m293.308594 137.542969c-2.800782-5.929688-8.820313-10.042969-15.8125-10.042969-6.992188 0-13.011719 4.113281-15.8125 10.042969-9.285156.425781-16.6875 8.066406-16.6875 17.457031 0 9.664062 7.835937 17.5 17.5 17.5l15 40 15-40c9.664062 0 17.5-7.835938 17.5-17.5 0-9.390625-7.402344-17.03125-16.6875-17.457031zm0 0" fill="#ff6337"/><path d="m292.496094 262.5-20.503906-40 20.503906-50h30.003906v90zm0 0" fill="#ffcb63"/><path d="m262.496094 262.5 20.503906-40-20.503906-50h-30v90zm0 0" fill="#ffe2a8"/><path d="m262.496094 172.5h30v90h-30zm0 0" fill="#ff4128"/><path d="m480 142.5c0-6.882812-1.890625-13.617188-5.460938-19.476562 0 0-32.4375-53.203126-32.574218-53.386719-4.394532-6.988281-10.382813-12.875-17.457032-17.136719 15.257813-9.195312 25.492188-25.921875 25.492188-45 0-4.144531-3.359375-7.5-7.5-7.5-19.074219 0-35.804688 10.226562-45 25.480469-9.195312-15.253907-25.929688-25.480469-45-25.480469-4.144531 0-7.5 3.355469-7.5 7.5 0 19.078125 10.230469 35.804688 25.488281 45-15.257812 9.195312-25.488281 25.921875-25.488281 45v45c0 10.789062 4.582031 20.519531 11.902344 27.367188-7.183594 4.96875-11.902344 13.257812-11.902344 22.632812v160c0 4.140625 3.355469 7.5 7.5 7.5h7.5v129.09375l-24.875 8.289062c-3.925781 1.308594-6.050781 5.558594-4.742188 9.488282 1.050782 3.140625 3.976563 5.128906 7.113282 5.128906.789062 0 1.585937-.125 2.375-.386719l30-10c3.0625-1.019531 5.128906-3.886719 5.128906-7.113281v-134.5h45v129.09375l-24.875 8.289062c-3.925781 1.308594-6.050781 5.558594-4.742188 9.488282 1.046876 3.140625 3.976563 5.128906 7.113282 5.128906.789062 0 1.585937-.125 2.375-.386719l30-10c3.0625-1.019531 5.128906-3.886719 5.128906-7.113281v-134.5h22.5c4.140625 0 7.5-3.359375 7.5-7.5v-50.335938c0-15.472656-5.308594-30.417968-15-42.40625v-50.511718c17.09375-3.484375 30-18.636719 30-36.746094 0-5.171875-1.074219-10.285156-3.136719-15 2.058594-4.714844 3.136719-9.828125 3.136719-15zm-115.320312-63.117188c9.75 7.074219 21.28125 10.613282 32.820312 10.613282 11.535156 0 23.066406-3.539063 32.816406-10.613282 2.980469 5.375 4.683594 11.550782 4.683594 18.117188 0 20.675781-16.824219 37.5-37.5 37.5-20.679688 0-37.5-16.824219-37.5-37.5 0-6.566406 1.699219-12.742188 4.679688-18.117188zm69.355468-63.417968c-3.21875 13.894531-14.179687 24.855468-28.074218 28.070312 3.21875-13.894531 14.179687-24.855468 28.074218-28.070312zm-45 28.070312c-13.894531-3.214844-24.855468-14.175781-28.074218-28.070312 13.894531 3.214844 24.859374 14.175781 28.074218 28.070312zm31.484375 23.894532c-13.839843 9.421874-32.203125 9.421874-46.042969 0 6.359376-4.960938 14.347657-7.929688 23.019532-7.929688 8.675781 0 16.664062 2.96875 23.023437 7.929688zm1.980469 112.070312c6.890625 0 12.5 5.605469 12.5 12.5v62.5h-75v-62.5c0-6.894531 5.605469-12.5 12.5-12.5zm27.5 165h-90v-75h78.960938c7.132812 9.183594 11.039062 20.476562 11.039062 32.164062zm11.984375-183.742188c1.972656 3.40625 3.015625 7.292969 3.015625 11.242188 0 9.777344-6.273438 18.113281-15 21.210938v-1.210938c0-15.164062-12.339844-27.5-27.5-27.5h-40c-12.40625 0-22.5-10.09375-22.5-22.5v-8.308594c9.535156 9.746094 22.820312 15.808594 37.5 15.808594 24.875 0 45.75-17.398438 51.132812-40.660156l13.097657 21.492187c2.136719 3.507813 3.269531 7.539063 3.269531 11.667969 0 3.945312-1.042969 7.835938-3.019531 11.242188-1.339844 2.324218-1.339844 5.191406.003906 7.515624zm0 0"/><path d="m390 322.5c0 4.140625-3.359375 7.5-7.5 7.5-4.144531 0-7.5-3.359375-7.5-7.5 0-4.144531 3.355469-7.5 7.5-7.5 4.140625 0 7.5 3.355469 7.5 7.5zm0 0"/><path d="m390 292.5c0 4.140625-3.359375 7.5-7.5 7.5-4.144531 0-7.5-3.359375-7.5-7.5 0-4.144531 3.355469-7.5 7.5-7.5 4.140625 0 7.5 3.355469 7.5 7.5zm0 0"/><path d="m204.871094 497.382812-24.882813-8.289062v-129.894531c7.882813-8.046875 13.191407-18.609375 14.613281-30.355469 8.9375-2.984375 15.398438-11.421875 15.398438-21.34375v-60c0-15.164062-12.335938-27.5-27.5-27.5h-80c-12.453125 0-22.992188 8.320312-26.363281 19.691406-34.246094-3.21875-61.136719-32.121094-61.136719-67.191406 0-4.144531-3.355469-7.5-7.5-7.5s-7.5 3.355469-7.5 7.5c0 42.960938 33.011719 78.339844 75 82.144531v52.855469c0 9.921875 6.460938 18.363281 15.398438 21.34375 1.417968 11.726562 6.714843 22.273438 14.570312 30.316406v51.0625c0 5.046875-4.347656 11.140625-9.074219 12.761719l-51.835937 17.402344c-3.054688 1.027343-5.113282 3.890625-5.113282 7.113281v30c0 4.140625 3.359376 7.5 7.5 7.5 4.144532 0 7.5-3.359375 7.5-7.5v-24.609375l46.773438-15.703125c10.792969-3.707031 19.25-15.550781 19.25-26.964844v-40.3125c6.832031 3.257813 14.472656 5.089844 22.53125 5.089844 8.042969 0 15.667969-1.824219 22.488281-5.074219v124.574219c0 3.226562 2.066407 6.09375 5.128907 7.113281l30.011718 10c.785156.261719 1.585938.386719 2.371094.386719 3.140625 0 6.066406-1.988281 7.113281-5.132812 1.3125-3.929688-.8125-8.175782-4.742187-9.484376zm-102.371094-262.382812h80c6.890625 0 12.5 5.605469 12.5 12.5v60c0 4.136719-3.363281 7.5-7.5 7.5h-90c-4.136719 0-7.5-3.363281-7.5-7.5v-60c0-6.894531 5.605469-12.5 12.5-12.5zm3.253906 95h73.492188c-3.484375 17.09375-18.636719 30-36.746094 30s-33.261719-12.90625-36.746094-30zm0 0"/><path d="m142.5 205c28.949219 0 52.5-23.550781 52.5-52.5 0-12.816406-4.621094-24.566406-12.277344-33.691406-.203125-.265625-.421875-.527344-.664062-.773438-9.660156-11.050781-23.804688-18.035156-39.558594-18.035156s-29.898438 6.984375-39.53125 18.007812c-.273438.273438-.488281.535157-.695312.800782-7.652344 9.125-12.273438 20.875-12.273438 33.691406 0 28.949219 23.550781 52.5 52.5 52.5zm0-15c-20.679688 0-37.5-16.824219-37.5-37.5 0-6.566406 1.703125-12.742188 4.679688-18.117188 9.75 7.074219 21.285156 10.613282 32.820312 10.613282s23.070312-3.539063 32.820312-10.613282c2.976563 5.375 4.679688 11.550782 4.679688 18.117188 0 20.675781-16.824219 37.5-37.5 37.5zm23.019531-67.070312c-13.835937 9.417968-32.203125 9.417968-46.042969 0 6.359376-4.960938 14.347657-7.929688 23.023438-7.929688 8.671875 0 16.664062 2.96875 23.019531 7.929688zm0 0"/><path d="m330 172.5c0-4.144531-3.359375-7.5-7.5-7.5h-7.097656c1.34375-3.066406 2.09375-6.445312 2.09375-10 0-11.917969-8.3125-21.917969-19.582032-24.390625-4.636718-6.554687-12.261718-10.609375-20.417968-10.609375s-15.78125 4.054688-20.414063 10.609375c-11.269531 2.472656-19.585937 12.472656-19.585937 24.390625 0 3.554688.753906 6.933594 2.09375 10h-7.09375c-4.140625 0-7.5 3.355469-7.5 7.5v90c0 4.140625 3.359375 7.5 7.5 7.5h90.003906c4.140625 0 7.5-3.359375 7.5-7.5zm-77.503906-17.5c0-5.34375 4.1875-9.722656 9.53125-9.96875 2.773437-.125 5.25-1.777344 6.4375-4.285156 1.648437-3.492188 5.195312-5.746094 9.03125-5.746094 3.835937 0 7.382812 2.253906 9.035156 5.746094 1.1875 2.507812 3.660156 4.160156 6.433594 4.285156 5.347656.246094 9.53125 4.625 9.53125 9.96875 0 5.511719-4.484375 10-10 10h-30c-5.511719 0-10-4.488281-10-10zm32.5 25v75h-15v-75zm-45 0h15v75h-15zm75.003906 75h-15.003906v-75h15.003906zm0 0"/></svg>