<svg id="Capa_1" enable-background="new 0 0 512 512" height="512" viewBox="0 0 512 512" width="512" xmlns="http://www.w3.org/2000/svg"><path d="m164.162 276.496s-104.162 9.77-104.162 111.278c0 85.494 50.885 110.71 66.941 116.539 2.119.769 4.277-1.004 3.94-3.23-2.885-19.071-7.958-89.249 73.671-89.249z" fill="#8c9eff"/><path d="m347.838 276.496s104.162 9.77 104.162 111.278c0 85.494-50.885 110.71-66.941 116.539-2.119.769-4.277-1.004-3.94-3.23 2.885-19.071 7.958-89.249-73.671-89.249z" fill="#8c9eff"/><path d="m347.838 276.496-1.982 6.642c30.852 10.656 76.144 37.697 76.144 104.636 0 54.362-20.573 84.348-39.684 100.479-.203 5.277-.727 9.73-1.196 12.829-.337 2.227 1.821 4 3.94 3.23 16.055-5.828 66.94-31.045 66.94-116.538 0-101.508-104.162-111.278-104.162-111.278z" fill="#7488ed"/><path d="m369.5 201.607c0 75.902-61.484 232.888-61.484 232.888h-104.032s-61.484-156.986-61.484-232.888c0-124.903 100.048-186.697 112.275-193.783.756-.438 1.683-.438 2.439 0 12.229 7.086 112.286 68.88 112.286 193.783z" fill="#ff3d7a"/><path d="m257.215 7.824c-.756-.438-1.683-.438-2.439 0-2.171 1.258-7.121 4.251-13.78 9.007 30.838 22.026 98.504 82.054 98.504 184.776 0 75.902-61.484 232.888-61.484 232.888h30s61.484-156.986 61.484-232.888c0-124.903-100.057-186.697-112.285-193.783z" fill="#eb3870"/><circle cx="256" cy="208.996" fill="#bdf9ff" r="77"/><path d="m247.347 241.773-11.363 5.959c-6.112 3.206-13.256-1.972-12.089-8.762l2.17-12.622c1.035-6.018-.965-12.158-5.348-16.42l-9.192-8.939c-4.945-4.809-2.216-13.187 4.618-14.177l12.704-1.842c6.057-.878 11.292-4.673 14.001-10.148l5.681-11.484c3.056-6.178 11.887-6.178 14.943 0l5.681 11.484c2.709 5.475 7.944 9.27 14.001 10.148l12.704 1.842c6.834.991 9.563 9.369 4.618 14.177l-9.192 8.939c-4.383 4.262-6.382 10.402-5.348 16.42l2.17 12.622c1.167 6.79-5.977 11.968-12.089 8.762l-11.363-5.959c-5.418-2.841-11.89-2.841-17.307 0z" fill="#ffca28"/><path d="m221 434.496h70v50h-70z" fill="#d4d4d4"/><path d="m261 434.496h30v50h-30z" fill="#bdbdbd"/><path d="m419.548 298.505c-18.065-14.709-38.596-22.205-52.524-25.891 5.973-26.214 9.976-51.179 9.976-71.01 0-46.747-13.492-89.977-40.101-128.491-2.354-3.408-7.024-4.263-10.434-1.908-3.408 2.354-4.262 7.026-1.907 10.433 24.845 35.962 37.442 76.323 37.442 119.966 0 66.305-48.973 198.634-59.138 225.384h-93.724c-10.165-26.749-59.138-159.079-59.138-225.384 0-114.344 87.131-174.162 105.993-185.768 7.844 4.835 28.509 18.651 49.34 41.613 2.783 3.069 7.527 3.298 10.594.516 3.067-2.783 3.298-7.526.515-10.594-24.662-27.184-48.691-42.109-55.466-46.035-3.073-1.781-6.89-1.782-9.961-.001-11.874 6.881-116.015 70.956-116.015 200.269 0 19.829 4.002 44.791 9.974 71.003-5.748 1.514-11.432 3.363-16.973 5.526-3.858 1.506-5.766 5.854-4.26 9.713 1.157 2.964 3.989 4.775 6.989 4.775.907 0 1.83-.166 2.725-.516 5.504-2.148 10.658-3.741 15.009-4.901 10.971 43.924 26.312 89.305 36.81 118.533-20.296 3.133-36.031 11.532-46.862 25.037-16.41 20.462-17.231 47.455-15.875 63.514-18.861-9.195-55.038-36.05-55.038-106.518 0-35.143 13.161-62.475 39.117-81.233 3.357-2.427 4.112-7.115 1.686-10.473-2.426-3.356-7.115-4.112-10.472-1.685-29.655 21.432-45.33 53.727-45.33 93.39 0 90.463 55.018 117.466 71.878 123.586 7.495 2.721 15.116-3.583 13.917-11.402-1.727-11.394-4.033-40.03 11.818-59.795 8.889-11.084 22.469-17.8 40.418-20.006 3.603 9.726 6.002 15.88 6.468 17.071 1.125 2.874 3.897 4.765 6.983 4.765h9.517v42.499c0 4.143 3.358 7.5 7.5 7.5h70c4.142 0 7.5-3.357 7.5-7.5v-42.499h9.517c3.086 0 5.858-1.891 6.983-4.765.466-1.191 2.865-7.345 6.468-17.071 10.587 1.3 19.695 4.17 27.133 8.558 3.56 2.1 8.162.925 10.271-2.649 2.104-3.568.918-8.166-2.649-10.27-8.38-4.942-18.271-8.309-29.498-10.05 10.499-29.229 25.842-74.617 36.814-118.545 28.978 7.675 80.962 31.14 80.962 100.573 0 70.478-36.185 97.33-55.046 106.522 1.079-12.975.793-33.962-8.67-52.381-1.894-3.684-6.415-5.137-10.099-3.243-3.684 1.893-5.136 6.414-3.243 10.099 9.772 19.019 7.635 42.133 6.265 51.175-1.204 7.854 6.444 14.132 13.913 11.416 16.863-6.121 71.881-33.125 71.881-123.587-.001-37.647-13.443-67.68-39.953-89.265zm-136.048 178.483h-55v-35h55z"/><path d="m284.229 177.545c-3.616-.523-6.739-2.786-8.354-6.05l-5.682-11.485c-5.808-11.738-22.581-11.736-28.388.001l-5.681 11.483c-1.615 3.265-4.738 5.527-8.354 6.051l-12.704 1.842c-12.982 1.883-18.174 17.832-8.771 26.976l9.192 8.939c2.61 2.538 3.801 6.19 3.185 9.771l-2.17 12.622c-2.218 12.905 11.349 22.764 22.964 16.675l11.362-5.96c3.237-1.697 7.102-1.697 10.338 0l11.364 5.961c11.614 6.09 25.179-3.786 22.963-16.676l-2.17-12.622c-.616-3.581.575-7.233 3.185-9.771l9.192-8.939c9.399-9.139 4.219-25.093-8.77-26.976zm11.017 18.064-9.192 8.939c-6.157 5.987-8.964 14.61-7.51 23.066l2.17 12.622c.113.655-.577 1.183-1.213.851l-11.363-5.96c-3.8-1.993-7.968-2.989-12.136-2.989s-8.336.996-12.136 2.989l-11.362 5.959c-.625.334-1.329-.184-1.214-.85l2.17-12.622c1.454-8.456-1.354-17.079-7.51-23.066l-9.193-8.939c-.487-.473-.229-1.28.465-1.377l12.704-1.842c8.499-1.232 15.843-6.558 19.647-14.245l5.681-11.483c.306-.62 1.191-.624 1.499-.001l5.682 11.485c3.803 7.686 11.147 13.012 19.646 14.244l12.705 1.842c.692.098.945.908.46 1.377z"/><path d="m256 124.493c-46.593 0-84.5 37.906-84.5 84.499s37.907 84.499 84.5 84.499 84.5-37.906 84.5-84.499-37.907-84.499-84.5-84.499zm0 153.998c-38.322 0-69.5-31.177-69.5-69.499s31.178-69.499 69.5-69.499 69.5 31.177 69.5 69.499-31.178 69.499-69.5 69.499z"/></svg>