<svg height="511pt" viewBox="0 -6 511.99936 511" width="511pt" xmlns="http://www.w3.org/2000/svg"><path d="m407.835938 84.402344 33.785156 12.894531-85.664063 224.441406-33.785156-12.894531zm0 0" fill="#dadadc"/><path d="m407.839844 84.402344 33.78125 12.894531-16.195313 42.433594-33.78125-12.894531zm0 0" fill="#bebebf"/><path d="m475.085938 28.722656-46.542969-17.761718c-23.582031-9-49.996094 2.820312-58.996094 26.402343-9.003906 23.582031 2.820313 49.996094 26.402344 58.996094l46.542969 17.765625c23.582031 9 49.996093-2.820312 58.996093-26.402344 9-23.582031-2.820312-49.996094-26.402343-59zm-1.324219 48.414063c-3.359375 8.800781-13.210938 13.210937-22.007813 9.851562l-44.632812-17.035156c-8.796875-3.359375-13.207032-13.210937-9.847656-22.007813 3.355468-8.796874 13.210937-13.207031 22.007812-9.847656l44.628906 17.03125c8.800782 3.359375 13.210938 13.210938 9.851563 22.007813zm0 0" fill="#ff6881"/><path d="m356.492188 218.894531-34.324219 89.929688 33.78125 12.894531 39.246093-102.824219zm0 0" fill="#bebebf"/><path d="m32.332031 273.730469v105.773437c0 27.097656 21.964844 49.058594 49.058594 49.058594h341.542969c27.09375 0 49.058594-21.964844 49.058594-49.058594v-105.773437zm0 0" fill="#ff6881"/><path d="m62.332031 379.503906v-105.773437h-30v105.773437c0 27.097656 21.964844 49.0625 49.058594 49.0625h30c-27.09375 0-49.058594-21.964844-49.058594-49.0625zm0 0" fill="#de4b64"/><path d="m209.523438 428.5625c0 35.382812-28.683594 64.066406-64.066407 64.066406-35.382812 0-64.0625-28.683594-64.0625-64.066406 0-35.378906 28.679688-64.0625 64.0625-64.0625 35.382813 0 64.066407 28.683594 64.066407 64.0625zm0 0" fill="#485b73"/><path d="m173.210938 428.5625c0 15.328125-12.425782 27.753906-27.753907 27.753906s-27.75-12.425781-27.75-27.753906c0-15.324219 12.421875-27.75 27.75-27.75s27.753907 12.425781 27.753907 27.75zm0 0" fill="#dadadc"/><path d="m422.933594 428.5625c0 35.382812-28.683594 64.066406-64.066406 64.066406-35.378907 0-64.0625-28.683594-64.0625-64.066406 0-35.378906 28.683593-64.0625 64.0625-64.0625 35.382812 0 64.066406 28.683594 64.066406 64.0625zm0 0" fill="#485b73"/><path d="m386.621094 428.5625c0 15.328125-12.425782 27.753906-27.753906 27.753906-15.324219 0-27.75-12.425781-27.75-27.753906 0-15.324219 12.425781-27.75 27.75-27.75 15.328124 0 27.753906 12.425781 27.753906 27.75zm0 0" fill="#dadadc"/><path d="m471.996094 248.894531h-439.664063c-13.71875 0-24.835937 11.121094-24.835937 24.835938 0 13.71875 11.121094 24.835937 24.835937 24.835937h439.664063c13.714844 0 24.835937-11.117187 24.835937-24.835937 0-13.714844-11.121093-24.835938-24.835937-24.835938zm0 0" fill="#ececee"/><path d="m37.496094 273.730469c0-13.714844 11.121094-24.835938 24.835937-24.835938h-30c-13.71875 0-24.835937 11.121094-24.835937 24.835938 0 13.71875 11.121094 24.835937 24.835937 24.835937h30c-13.714843.003906-24.835937-11.117187-24.835937-24.835937zm0 0" fill="#dadadc"/><path d="m145.460938 393.253906c-19.4375 0-35.25 15.816406-35.25 35.253906s15.8125 35.253907 35.25 35.253907c19.441406 0 35.253906-15.816407 35.253906-35.253907s-15.8125-35.253906-35.253906-35.253906zm0 55.507813c-11.164063 0-20.25-9.085938-20.25-20.253907 0-11.167968 9.085937-20.25 20.25-20.25 11.167968 0 20.253906 9.082032 20.253906 20.25 0 11.167969-9.085938 20.253907-20.253906 20.253907zm0 0"/><path d="m358.871094 393.253906c-19.4375 0-35.25 15.816406-35.25 35.253906s15.8125 35.253907 35.25 35.253907c19.441406 0 35.253906-15.816407 35.253906-35.253907s-15.8125-35.253906-35.253906-35.253906zm0 55.507813c-11.164063 0-20.25-9.085938-20.25-20.253907 0-11.167968 9.085937-20.25 20.25-20.25 11.167968 0 20.253906 9.082032 20.253906 20.25 0 11.167969-9.085938 20.253907-20.253906 20.253907zm0 0"/><path d="m169.398438 326.617188v13.621093c0 4.140625 3.359374 7.5 7.503906 7.5 4.140625 0 7.5-3.359375 7.5-7.5v-13.621093c0-4.144532-3.359375-7.5-7.5-7.5-4.144532 0-7.503906 3.355468-7.503906 7.5zm0 0"/><path d="m319.933594 326.617188v13.621093c0 4.140625 3.359375 7.5 7.5 7.5 4.144531 0 7.5-3.359375 7.5-7.5v-13.621093c0-4.144532-3.355469-7.5-7.5-7.5-4.140625 0-7.5 3.355468-7.5 7.5zm0 0"/><path d="m265.097656 334.355469c-3.140625 3.59375-7.851562 5.652343-12.929687 5.652343-5.074219 0-9.789063-2.058593-12.929688-5.652343-2.726562-3.121094-7.464843-3.4375-10.582031-.714844-3.121094 2.726563-3.4375 7.464844-.710938 10.585937 5.988282 6.851563 14.820313 10.78125 24.222657 10.78125 9.40625 0 18.234375-3.929687 24.222656-10.78125 2.726563-3.117187 2.410156-7.855468-.707031-10.585937-3.121094-2.722656-7.859375-2.40625-10.585938.714844zm0 0"/><path d="m477.765625 21.660156s-46.539063-17.761718-46.542969-17.761718c-27.027344-10.316407-58.359375 3.695312-68.679687 30.734374-10.378907 27.199219 3.125 57.734376 30.117187 68.421876l-52.78125 138.285156h-222.550781c-4.144531 0-7.5 3.355468-7.5 7.5 0 4.140625 3.355469 7.5 7.5 7.5h354.671875c9.558594 0 17.335938 7.777344 17.335938 17.335937 0 9.558594-7.777344 17.335938-17.335938 17.335938h-57.667969c-4.140625 0-7.5 3.359375-7.5 7.5s3.359375 7.5 7.5 7.5h50.167969v73.4375c0 20.515625-14.941406 37.605469-34.515625 40.960937-.0625-.558594-.152344-1.105468-.226563-1.660156-4.769531-34.710938-35.898437-61.808594-70.890624-61.808594-35.476563 0-67.476563 28.71875-71.167969 64.066406h-71.0625c-3.046875-29.171874-25.007813-54.121093-53.226563-61.691406-32.730468-8.777344-68.523437 8.320313-82.804687 38.960938-.988281 2.117187-7.65625 21.894531-6.253907 22.132812-19.574218-3.355468-34.515624-20.449218-34.515624-40.960937v-73.4375h344.496093c4.140625 0 7.5-3.355469 7.5-7.5 0-4.140625-3.359375-7.5-7.5-7.5h-351.996093c-9.558594 0-17.335938-7.777344-17.335938-17.335938 0-9.558593 7.777344-17.335937 17.335938-17.335937h54.992187c4.140625 0 7.5-3.359375 7.5-7.5s-3.359375-7.5-7.5-7.5h-54.992187c-17.828126 0-32.335938 14.503906-32.335938 32.335937 0 15.25 10.613281 28.058594 24.835938 31.449219v74.324219c0 28.765625 21.589843 52.5625 49.410156 56.09375 3.542968 36.171875 34.128906 64.53125 71.214844 64.53125 36.929687 0 67.410156-28.117188 71.171874-64.066407h71.070313c3.757813 35.949219 34.242187 64.066407 71.167969 64.066407 37.089844 0 67.671875-28.359375 71.21875-64.53125 27.820312-3.53125 49.410156-27.328125 49.410156-56.09375v-74.324219c14.222656-3.394531 24.835938-16.203125 24.835938-31.449219 0-17.832031-14.507813-32.335937-32.335938-32.335937h-77.363281l45.816406-120.039063c5.910156 2.171875 12.070313 3.285157 18.332031 3.285157 21.917969 0 41.898438-13.765626 49.714844-34.246094 10.460938-27.410156-3.324219-58.21875-30.734375-68.679688zm-332.304687 463.414063c-31.1875 0-56.5625-25.375-56.5625-56.566407 0-30.671874 25.9375-56.566406 56.5625-56.566406 31.191406 0 56.566406 25.378906 56.566406 56.566406 0 31.191407-25.375 56.566407-56.566406 56.566407zm213.410156 0c-31.1875 0-56.5625-25.375-56.5625-56.566407 0-30.8125 25.804687-56.566406 56.5625-56.566406 30.59375 0 56.566406 26.042969 56.566406 56.566406 0 31.191407-25.375 56.566407-56.566406 56.566407zm19.710937-243.734375h-22.644531l50.726562-132.917969 19.769532 7.542969zm115.90625-156.347656c-5.617187 14.710937-19.964843 24.59375-35.703125 24.59375-4.648437 0-9.226562-.851563-13.613281-2.527344l-46.542969-17.761719c-9.535156-3.640625-17.082031-10.773437-21.25-20.085937-4.167968-9.316407-4.460937-19.695313-.820312-29.230469 7.390625-19.367188 29.980468-29.449219 49.316406-22.066407l46.542969 17.761719c19.679687 7.511719 29.578125 29.632813 22.070312 49.316407zm0 0"/><path d="m466.589844 48.066406s-44.625-17.03125-44.628906-17.035156c-12.472657-4.757812-26.929688 1.707031-31.691407 14.183594-4.824219 12.648437 1.535157 26.863281 14.183594 31.691406 0 0 44.613281 17.027344 44.628906 17.03125 12.476563 4.761719 26.929688-1.707031 31.691407-14.179688 4.828124-12.648437-1.535157-26.863281-14.183594-31.691406zm.167968 26.34375c-1.851562 4.847656-7.492187 7.359375-12.324218 5.515625l-44.632813-17.035156c-4.917969-1.875-7.394531-7.40625-5.515625-12.324219 1.847656-4.847656 7.496094-7.363281 12.328125-5.519531l44.628907 17.035156c4.917968 1.878907 7.394531 7.40625 5.515624 12.328125zm0 0"/></svg>