<svg height="480pt" viewBox="-24 0 480 480" width="480pt" xmlns="http://www.w3.org/2000/svg"><path d="m40 88h256c17.671875 0 32 14.328125 32 32v320c0 17.671875-14.328125 32-32 32h-256c-17.671875 0-32-14.328125-32-32v-320c0-17.671875 14.328125-32 32-32zm0 0" fill="#ee8700"/><path d="m104 440h-56c-4.417969 0-8-3.582031-8-8v-56zm0 0" fill="#1e81ce"/><path d="m296 128v304c0 4.417969-3.582031 8-8 8h-184l-64-64v-248c0-4.417969 3.582031-8 8-8h240c4.417969 0 8 3.582031 8 8zm0 0" fill="#5aaae7"/><path d="m296 432c0 4.417969-3.582031 8-8 8h-184l-64-64v-248c0-4.417969 3.582031-8 8-8 32.800781 147.769531 113.742188 253.296875 248 312zm0 0" fill="#3d9ae2"/><path d="m104 440h-56c-4.417969 0-8-3.582031-8-8v-56zm0 0" fill="#1e81ce"/><path d="m104 392v48l-64-64h48c8.824219.027344 15.972656 7.175781 16 16zm0 0" fill="#1e81ce"/><path d="m280 440v8c0 4.417969-3.582031 8-8 8h-240c-4.417969 0-8-3.582031-8-8v-304c0-4.417969 3.582031-8 8-8h8v296c0 4.417969 3.582031 8 8 8zm0 0" fill="#cc7400"/><path d="m104 440h-16l-48-48v-16zm0 0" fill="#1a6fb0"/><path d="m72 128h192v24h-192zm0 0" fill="#ff7956"/><path d="m184 56c0-8.835938-7.164062-16-16-16s-16 7.164062-16 16 7.164062 16 16 16c8.824219-.027344 15.972656-7.175781 16-16zm80 64v8h-192v-16c.039062-17.65625 14.34375-31.960938 32-32h24v-40c0-17.671875 14.328125-32 32-32h16c17.671875 0 32 14.328125 32 32v40h24c17.65625.039062 31.960938 14.34375 32 32zm0 0" fill="#ff5023"/><path d="m72 112c-.011719-8.917969 3.734375-17.425781 10.320312-23.441406-15.21875 2.746094-26.296874 15.980468-26.320312 31.441406h16zm0 0" fill="#cc7400"/><path d="m360 176h32v208h-32zm0 0" fill="#00b39d"/><path d="m392 176h32v208h-32zm0 0" fill="#00ccb3"/><path d="m424 176h-64v-24h64zm0 0" fill="#ee8700"/><path d="m408 416v24c0 8.835938-7.164062 16-16 16s-16-7.164062-16-16v-24zm0 0" fill="#787680"/><path d="m396 455.441406c-1.296875.386719-2.644531.574219-4 .558594-8.824219-.027344-15.972656-7.175781-16-16v-24h8v24c.023438 7.277344 4.953125 13.621094 12 15.441406zm0 0" fill="#57565c"/><path d="m424 136v16h-64v-16c0-17.671875 14.328125-32 32-32s32 14.328125 32 32zm0 0" fill="#e6e7e8"/><path d="m400 105.039062c-5.523438 1.445313-10.570312 4.3125-14.640625 8.320313-5.980469 6.019531-9.34375 14.15625-9.359375 22.640625v16h-16v-16c-.011719-8.488281 3.355469-16.636719 9.359375-22.640625s14.152344-9.371094 22.640625-9.359375c2.703125-.023438 5.394531.324219 8 1.039062zm0 0" fill="#d1d3d4"/><path d="m215.921875 403.839844c-23.167969 15.496094-53.203125 16.214844-77.085937 1.84375-23.882813-14.367188-37.316407-41.238282-34.480469-68.964844 2.832031-27.726562 21.429687-51.320312 47.722656-60.558594-26.410156 17.574219-38.195313 50.378906-29 80.746094 9.195313 30.363281 37.195313 51.121094 68.921875 51.09375 8.15625.027344 16.253906-1.382812 23.921875-4.160156zm0 0" fill="#1e81ce"/><path d="m360 152h16v24h-16zm0 0" fill="#cc7400"/><path d="m360 176h16v208h-16zm0 0" fill="#009986"/><path d="m390.078125 376.398438c-3.476563-6.445313-10.894531-9.707032-17.996094-7.910157-7.105469 1.792969-12.082031 8.183594-12.082031 15.511719l16 32h16v-32c-.007812-2.652344-.667969-5.261719-1.921875-7.601562zm0 0" fill="#8b5e3c"/><path d="m424 384c0-8.835938-7.164062-16-16-16s-16 7.164062-16 16v32h16zm0 0" fill="#a97c50"/><path d="m384 416h-8l-16-32c.027344-8.824219 7.175781-15.972656 16-16zm0 0" fill="#754c29"/><path d="m72 152v-32h-16v40h192v-8zm0 0" fill="#3d9ae2"/><path d="m264 336c0 39.765625-32.234375 72-72 72s-72-32.234375-72-72 32.234375-72 72-72 72 32.234375 72 72zm0 0" fill="#ffd422"/><path d="m184 320c0 8.835938-7.164062 16-16 16s-16-7.164062-16-16 7.164062-16 16-16 16 7.164062 16 16zm0 0"/><path d="m232 320c0 8.835938-7.164062 16-16 16s-16-7.164062-16-16 7.164062-16 16-16 16 7.164062 16 16zm0 0"/><path d="m167.105469 356.320312-14.265625 7.253907c8.222656 13.582031 23.320312 21.457031 39.160156 20.425781 15.855469 1.042969 30.972656-6.832031 39.199219-20.425781l-14.261719-7.253907c-5.582031 8.125-15.125 12.59375-24.9375 11.679688-9.800781.898438-19.320312-3.570312-24.894531-11.679688zm0 0"/><path d="m296 80h-40.246094c-6.84375-5.167969-15.179687-7.972656-23.753906-8h-16v-32c-.027344-22.082031-17.917969-39.9726562-40-40h-16c-22.082031.0273438-39.972656 17.917969-40 40v32h-16c-8.574219.027344-16.910156 2.832031-23.753906 8h-40.246094c-22.082031.027344-39.9726562 17.917969-40 40v320c.0273438 22.082031 17.917969 39.972656 40 40h256c22.082031-.027344 39.972656-17.917969 40-40v-320c-.027344-22.082031-17.917969-39.972656-40-40zm-248 315.3125 36.6875 36.6875h-36.6875zm11.3125-11.3125h28.6875c4.417969 0 8 3.582031 8 8v28.6875zm28.6875-16h-40v-240h16v24c0 4.417969 3.582031 8 8 8h192c4.417969 0 8-3.582031 8-8v-24h16v304h-176v-40c0-13.253906-10.746094-24-24-24zm-8-232h176v8h-176zm24-48h24c4.417969 0 8-3.582031 8-8v-40c0-13.253906 10.746094-24 24-24h16c13.253906 0 24 10.746094 24 24v40c0 4.417969 3.582031 8 8 8h24c13.253906 0 24 10.746094 24 24v8h-176v-8c0-13.253906 10.746094-24 24-24zm216 352c0 13.253906-10.746094 24-24 24h-256c-13.253906 0-24-10.746094-24-24v-320c0-13.253906 10.746094-24 24-24h27.390625c-2.230469 5.039062-3.386719 10.488281-3.390625 16h-16c-8.835938 0-16 7.164062-16 16v304c0 8.835938 7.164062 16 16 16h240c8.835938 0 16-7.164062 16-16v-304c0-8.835938-7.164062-16-16-16h-16c-.003906-5.511719-1.160156-10.960938-3.390625-16h27.390625c13.253906 0 24 10.746094 24 24zm0 0"/><path d="m168 80c13.253906 0 24-10.746094 24-24s-10.746094-24-24-24-24 10.746094-24 24 10.746094 24 24 24zm0-32c4.417969 0 8 3.582031 8 8s-3.582031 8-8 8-8-3.582031-8-8 3.582031-8 8-8zm0 0"/><path d="m392 96c-22.082031.027344-39.972656 17.917969-40 40v248c-.011719 1.238281.261719 2.460938.800781 3.574219l15.199219 30.3125v22.113281c0 13.253906 10.746094 24 24 24s24-10.746094 24-24v-22.113281l15.199219-30.3125c.539062-1.113281.8125-2.335938.800781-3.574219v-248c-.027344-22.082031-17.917969-39.972656-40-40zm0 16c13.253906 0 24 10.746094 24 24v8h-48v-8c0-13.253906 10.746094-24 24-24zm11.054688 296h-22.109376l-12.671874-25.34375c.605468-3.804688 3.871093-6.617188 7.726562-6.65625 4.417969 0 8 3.582031 8 8s3.582031 8 8 8 8-3.582031 8-8 3.582031-8 8-8c3.855469.039062 7.121094 2.851562 7.726562 6.65625zm4.945312-48c-2.730469.011719-5.4375.496094-8 1.433594v-161.433594h-16v161.433594c-5.15625-1.9375-10.84375-1.9375-16 0v-177.433594h48v177.472656c-2.5625-.949218-5.269531-1.445312-8-1.472656zm8-192h-48v-8h48zm-16 272c0 4.417969-3.582031 8-8 8s-8-3.582031-8-8v-16h16zm0 0"/><path d="m112 336c0 44.183594 35.816406 80 80 80s80-35.816406 80-80-35.816406-80-80-80c-44.164062.046875-79.953125 35.835938-80 80zm80-64c35.347656 0 64 28.652344 64 64s-28.652344 64-64 64-64-28.652344-64-64c.039062-35.328125 28.671875-63.960938 64-64zm0 0"/><path d="m80 176h16v16h-16zm0 0"/><path d="m112 176h64v16h-64zm0 0"/><path d="m80 208h96v16h-96zm0 0"/><path d="m192 208h16v16h-16zm0 0"/><path d="m224 208h32v16h-32zm0 0"/><path d="m80 240h32v16h-32zm0 0"/></svg>