<?xml version="1.0" encoding="iso-8859-1"?>
<!-- Generator: Adobe Illustrator 19.0.0, SVG Export Plug-In . SVG Version: 6.00 Build 0)  -->
<svg version="1.1" id="Capa_1" xmlns="http://www.w3.org/2000/svg" xmlns:xlink="http://www.w3.org/1999/xlink" x="0px" y="0px"
	 viewBox="0 0 512 512" style="enable-background:new 0 0 512 512;" xml:space="preserve">
<polygon style="fill:#A8E5FF;" points="384.5,269.999 354.5,269.999 324.5,202.499 354.5,134.999 384.5,134.999 "/>
<polygon style="fill:#DBF4FF;" points="354.5,269.999 277.5,269.999 277.5,134.999 307.5,134.999 354.5,164.999 "/>
<path style="fill:#1990C2;" d="M331,104.999c-8.284,0-15,6.716-15,15v25h30v-25C346,111.715,339.284,104.999,331,104.999z"/>
<rect x="307.5" y="134.999" style="fill:#116F97;" width="47" height="30"/>
<path style="fill:#85453D;" d="M202.5,29.999v101l45-46v-10C247.5,50.146,227.353,29.999,202.5,29.999z"/>
<path style="fill:#A45E43;" d="M202.5,29.999c-24.853,0-45,20.147-45,45v10l60,46v-56C217.5,50.146,210.784,29.999,202.5,29.999z"/>
<path style="fill:#FFF1CF;" d="M221.209,84.999c-1.053-1.573-2.303-3.002-3.709-4.261l-15,69.261c24.853,0,45-20.147,45-45v-20
	H221.209z"/>
<path style="fill:#FFFFFF;" d="M217.5,104.999V80.738c-3.981-3.566-9.235-5.739-15-5.739c-7.801,0-14.672,3.971-18.709,10H157.5v20
	c0,24.853,20.147,45,45,45C210.784,149.999,217.5,129.852,217.5,104.999z"/>
<path style="fill:#C27749;" d="M202.5,239.999v75c24.853,0,45-20.147,45-45L202.5,239.999z"/>
<path style="fill:#E18F4E;" d="M217.5,269.999l-15-30l-45,30c0,24.853,20.147,45,45,45C210.784,314.999,217.5,294.852,217.5,269.999
	z"/>
<path style="fill:#B9D171;" d="M227.5,149.999h-30l20,120h30v-100C247.5,158.953,238.546,149.999,227.5,149.999z"/>
<path style="fill:#D5E3AA;" d="M197.5,149.999h-20c-11.046,0-20,8.954-20,20v100h60v-100
	C217.5,158.953,208.546,149.999,197.5,149.999z"/>
<path style="fill:#084F6D;" d="M82.5,239.999v75c24.853,0,45-20.147,45-45L82.5,239.999z"/>
<path style="fill:#116F97;" d="M97.5,269.999l-15-30l-45,30c0,24.853,20.147,45,45,45C90.784,314.999,97.5,294.852,97.5,269.999z"/>
<path style="fill:#FFCB63;" d="M107.5,149.999h-30l20,120h30v-100C127.5,158.953,118.546,149.999,107.5,149.999z"/>
<path style="fill:#FFE2A8;" d="M77.5,149.999h-20c-11.046,0-20,8.954-20,20v100h60v-100C97.5,158.953,88.546,149.999,77.5,149.999z"
	/>
<path style="fill:#C27749;" d="M124.929,59.999l-42.429-20v80c24.853,0,45-20.147,45-45C127.5,69.738,126.588,64.692,124.929,59.999
	z"/>
<path style="fill:#40211D;" d="M82.5,29.999l14.143,30h28.286C118.751,42.523,102.092,29.999,82.5,29.999z"/>
<path style="fill:#E18F4E;" d="M96.643,59.999l-42.429-19.99C44.022,48.259,37.5,60.865,37.5,74.999c0,24.853,20.147,45,45,45
	c8.284,0,15-20.147,15-45C97.5,69.738,97.196,64.692,96.643,59.999z"/>
<path style="fill:#60312C;" d="M82.5,59.999h14.143c-2.06-17.476-7.613-30-14.143-30c-10.719,0-20.557,3.754-28.286,10.01
	C58.331,51.66,69.43,59.999,82.5,59.999z"/>
<path style="fill:#9DB55F;" d="M459.5,239.999v75c24.853,0,45-20.147,45-45L459.5,239.999z"/>
<path style="fill:#B9D171;" d="M474.5,269.999l-15-30l-45,30c0,24.853,20.147,45,45,45C467.784,314.999,474.5,294.852,474.5,269.999
	z"/>
<path style="fill:#DBF4FF;" d="M484.5,149.999h-30l20,120h30v-100C504.5,158.953,495.546,149.999,484.5,149.999z"/>
<path style="fill:#FFFFFF;" d="M454.5,149.999h-20c-11.046,0-20,8.954-20,20v100h60v-100
	C474.5,158.953,465.546,149.999,454.5,149.999z"/>
<path style="fill:#FFB4A9;" d="M459.5,29.999v90c24.853,0,45-20.147,45-45S484.353,29.999,459.5,29.999z"/>
<path style="fill:#FFD9D4;" d="M474.5,74.999c0-24.853-6.716-45-15-45c-24.853,0-45,20.147-45,45s20.147,45,45,45
	C467.784,119.999,474.5,99.852,474.5,74.999z"/>
<path d="M264.872,474.883L240,466.593V306.69c9.27-9.472,15-22.423,15-36.692v-100c0-11.726-7.381-21.757-17.739-25.704
	C248.13,134.668,255,120.624,255,104.998v-30c0-28.948-23.552-52.5-52.5-52.5S150,46.05,150,74.998v30
	c0,15.626,6.87,29.67,17.739,39.296c-8.061,3.072-14.313,9.829-16.691,18.204h-17.097c-3.274-11.528-13.889-20-26.452-20h-50
	c-12.78,0-23.552,8.764-26.622,20.597C13.349,166.233,0,181.581,0,199.998v40c0,18.271,13.136,33.522,30.458,36.828
	c1.508,11.549,6.775,21.929,14.542,29.864v159.903l-24.872,8.29c-3.93,1.31-6.053,5.558-4.743,9.487
	c1.048,3.143,3.974,5.13,7.114,5.13c0.786,0,1.586-0.125,2.373-0.387l30-10c3.063-1.021,5.128-3.887,5.128-7.115V317.422
	c6.824,3.251,14.452,5.076,22.5,5.076s15.676-1.825,22.5-5.076v154.577c0,3.229,2.065,6.095,5.128,7.115l30,10
	c0.771,0.257,1.571,0.385,2.372,0.385s1.602-0.128,2.372-0.385l30-10c3.063-1.021,5.128-3.887,5.128-7.115V317.422
	c6.824,3.251,14.452,5.076,22.5,5.076s15.676-1.825,22.5-5.076v154.576c0,3.229,2.065,6.095,5.128,7.115l30,10
	c0.787,0.262,1.587,0.387,2.373,0.387c3.141,0,6.066-1.987,7.114-5.13C270.925,480.44,268.802,476.192,264.872,474.883z M30,261.208
	c-8.729-3.096-15-11.433-15-21.21v-40c0-9.777,6.271-18.114,15-21.21V261.208z M165,74.998c0-20.678,16.822-37.5,37.5-37.5
	S240,54.32,240,74.998v2.5h-15.139c-5.653-6.324-13.747-10-22.361-10s-16.708,3.676-22.361,10H165V74.998z M165,104.998v-12.5
	h18.791c2.502,0,4.84-1.248,6.232-3.327c2.797-4.179,7.462-6.673,12.477-6.673s9.68,2.494,12.477,6.673
	c1.393,2.079,3.73,3.327,6.232,3.327H240v12.5c0,20.678-16.822,37.5-37.5,37.5S165,125.676,165,104.998z M165,169.998
	c0-6.893,5.607-12.5,12.5-12.5H195v82.5c0,4.143,3.357,7.5,7.5,7.5s7.5-3.357,7.5-7.5v-82.5h17.5c6.893,0,12.5,5.607,12.5,12.5v92.5
	h-75V169.998z M135,177.498h15v85h-15V177.498z M45,169.998c0-6.893,5.607-12.5,12.5-12.5h50c6.893,0,12.5,5.607,12.5,12.5v92.5H45
	V169.998z M82.5,307.498c-18.11,0-33.261-12.904-36.745-30h73.491C115.761,294.594,100.61,307.498,82.5,307.498z M165,466.594
	l-22.5,7.5l-22.5-7.5V306.69c7.615-7.782,12.834-17.911,14.456-29.192h16.088c1.621,11.281,6.84,21.41,14.456,29.192L165,466.594
	L165,466.594z M202.5,307.498c-18.11,0-33.261-12.904-36.745-30h73.491C235.761,294.594,220.61,307.498,202.5,307.498z"/>
<path d="M82.5,127.498c28.948,0,52.5-23.552,52.5-52.5s-23.552-52.5-52.5-52.5S30,46.05,30,74.998S53.552,127.498,82.5,127.498z
	 M112.48,52.498H82.5c-7.615,0-14.583-3.859-18.693-9.988c5.507-3.181,11.889-5.012,18.693-5.012
	C94.742,37.498,105.631,43.396,112.48,52.498z M52.511,52.509c6.96,9.252,18,14.989,29.989,14.989h36.745
	c0.494,2.424,0.755,4.932,0.755,7.5c0,20.678-16.822,37.5-37.5,37.5S45,95.676,45,74.998C45,66.568,47.798,58.779,52.511,52.509z"/>
<path d="M459.5,127.498c28.948,0,52.5-23.552,52.5-52.5s-23.552-52.5-52.5-52.5S407,46.05,407,74.998S430.552,127.498,459.5,127.498
	z M459.5,37.498c20.678,0,37.5,16.822,37.5,37.5s-16.822,37.5-37.5,37.5S422,95.676,422,74.998S438.822,37.498,459.5,37.498z"/>
<path d="M484.5,142.498h-50c-12.563,0-23.178,8.472-26.452,20H392v-27.5c0-4.143-3.357-7.5-7.5-7.5h-31v-7.5
	c0-12.406-10.094-22.5-22.5-22.5s-22.5,10.094-22.5,22.5v7.5h-31c-4.143,0-7.5,3.357-7.5,7.5v135c0,4.143,3.357,7.5,7.5,7.5h107
	c4.143,0,7.5-3.357,7.5-7.5v-24.543c5.058-0.228,10.071-0.836,15-1.803v26.347c0,14.269,5.73,27.219,15,36.692v159.903l-24.872,8.29
	c-3.93,1.31-6.053,5.558-4.743,9.487c1.048,3.143,3.974,5.13,7.114,5.13c0.786,0,1.586-0.125,2.373-0.387l30-10
	c3.063-1.021,5.128-3.887,5.128-7.115V317.422c6.824,3.251,14.452,5.076,22.5,5.076s15.676-1.825,22.5-5.076v149.171l-24.872,8.29
	c-3.93,1.31-6.053,5.558-4.743,9.487c1.048,3.143,3.974,5.13,7.114,5.13c0.786,0,1.586-0.125,2.373-0.387l30-10
	c3.063-1.021,5.128-3.887,5.128-7.115V306.69c9.27-9.472,15-22.423,15-36.692v-100C512,154.835,499.663,142.498,484.5,142.498z
	 M315,142.498h32v15h-32V142.498z M323.5,119.998c0-4.136,3.364-7.5,7.5-7.5s7.5,3.364,7.5,7.5v7.5h-15V119.998z M354.464,223.978
	c-3.828-1.589-8.214,0.232-9.799,4.059c-1.586,3.827,0.231,8.214,4.059,9.799c9.264,3.838,18.777,6.191,28.276,7.182v17.48h-92v-120
	h15v22.5c0,4.143,3.357,7.5,7.5,7.5h47c4.143,0,7.5-3.357,7.5-7.5v-22.5h15v65.538c0,4.143,3.357,7.5,7.5,7.5s7.5-3.357,7.5-7.5
	v-30.538h15v50.864C389.559,232.413,371.337,230.967,354.464,223.978z M477.37,173.069c-3.822-1.587-8.213,0.232-9.799,4.059
	c-8.67,20.931-24.83,37.306-45.571,46.284v-53.414c0-6.893,5.607-12.5,12.5-12.5h50c6.893,0,12.5,5.607,12.5,12.5v92.5h-75v-23.003
	c25.962-9.367,48.06-29.178,59.429-56.626C483.015,179.041,481.197,174.654,477.37,173.069z M422.755,277.498h73.491
	c-3.484,17.096-18.635,30-36.745,30S426.239,294.594,422.755,277.498z"/>
<g>
</g>
<g>
</g>
<g>
</g>
<g>
</g>
<g>
</g>
<g>
</g>
<g>
</g>
<g>
</g>
<g>
</g>
<g>
</g>
<g>
</g>
<g>
</g>
<g>
</g>
<g>
</g>
<g>
</g>
</svg>
