<?xml version="1.0" encoding="iso-8859-1"?>
<!-- Generator: Adobe Illustrator 19.0.0, SVG Export Plug-In . SVG Version: 6.00 Build 0)  -->
<svg version="1.1" id="Capa_1" xmlns="http://www.w3.org/2000/svg" xmlns:xlink="http://www.w3.org/1999/xlink" x="0px" y="0px"
	 viewBox="0 0 512.002 512.002" style="enable-background:new 0 0 512.002 512.002;" xml:space="preserve">
<path style="fill:#FFFFFF;" d="M73.501,197c16.569,0,30,13.431,30,30l10,42.5l-10,42.5l-60-30v-85H73.501z"/>
<path style="fill:#FFE2A8;" d="M133.501,197h30v85l-60,30v-85C103.501,210.431,116.932,197,133.501,197z"/>
<path style="fill:#2DADE3;" d="M133.501,282h30v50l-60-20C103.501,295.431,116.932,282,133.501,282z"/>
<path style="fill:#7DD9FF;" d="M73.501,282c16.569,0,30,13.431,30,30l-60,20v-50H73.501z"/>
<polygon style="fill:#FF6337;" points="223.501,312 163.501,312 136.501,327 163.501,342 223.501,342 "/>
<rect x="13.501" y="312" style="fill:#FF8646;" width="150" height="30"/>
<polygon style="fill:#C27749;" points="283.501,387 263.501,402 283.501,417 313.501,417 313.501,387 "/>
<rect x="193.5" y="387" style="fill:#FF8646;" width="90" height="30"/>
<path style="fill:#85453D;" d="M238.501,127v90c24.853,0,45-20.147,45-45S263.354,127,238.501,127z"/>
<path style="fill:#A45E43;" d="M253.501,172c0-24.853-6.716-45-15-45c-24.853,0-45,20.147-45,45s20.147,45,45,45
	C246.785,217,253.501,196.853,253.501,172z"/>
<path style="fill:#808080;" d="M238.501,297v90c24.853,0,45-20.147,45-45L238.501,297z"/>
<path style="fill:#999999;" d="M238.501,297l-45,45v45h45c8.284,0,15-20.147,15-45L238.501,297z"/>
<path style="fill:#2DADE3;" d="M263.501,247h-30l20,95h30v-75C283.501,255.954,274.547,247,263.501,247z"/>
<path style="fill:#49C9FF;" d="M233.501,247h-20c-11.046,0-20,8.954-20,20v75h60v-75C253.501,255.954,244.547,247,233.501,247z"/>
<path style="fill:#40211D;" d="M471.001,75c0-5.023-2.478-9.458-6.268-12.18c2.46-3.966,3.052-9.011,1.13-13.651
	s-5.908-7.79-10.452-8.854c0.755-4.605-0.629-9.493-4.18-13.044c-3.552-3.552-8.439-4.936-13.044-4.18
	c-1.065-4.543-4.214-8.53-8.854-10.452s-9.686-1.33-13.651,1.13c-2.722-3.79-7.157-6.268-12.18-6.268s-9.458,2.478-12.18,6.268
	c-3.966-2.46-9.011-3.052-13.651-1.13s-7.79,5.908-8.854,10.452c-4.605-0.755-9.493,0.629-13.044,4.18
	c-3.552,3.552-4.936,8.439-4.18,13.044c-4.543,1.065-8.53,4.214-10.452,8.854s-1.33,9.686,1.13,13.651
	c-3.79,2.722-6.268,7.157-6.268,12.18s2.478,9.458,6.268,12.18c-2.46,3.966-3.052,9.011-1.13,13.651s5.908,7.79,10.452,8.854
	c-0.755,4.605,0.629,9.493,4.18,13.044c3.693,3.693,8.833,5.058,13.596,4.094h68.268c4.762,0.964,9.902-0.401,13.596-4.094
	c3.552-3.552,4.936-8.439,4.18-13.044c4.543-1.065,8.53-4.214,10.452-8.854s1.33-9.686-1.13-13.651
	C468.523,84.458,471.001,80.023,471.001,75z"/>
<path style="fill:#85453D;" d="M403.501,52.5v90c24.853,0,45-20.147,45-45S428.354,52.5,403.501,52.5z"/>
<path style="fill:#A45E43;" d="M418.501,97.5c0-24.853-6.716-45-15-45c-24.853,0-45,20.147-45,45s20.147,45,45,45
	C411.785,142.5,418.501,122.353,418.501,97.5z"/>
<path style="fill:#FFB4A9;" d="M428.501,172.5h-30v120l50-30v-70C448.501,181.454,439.547,172.5,428.501,172.5z"/>
<path style="fill:#FFF0D3;" d="M398.501,172.5h-20c-11.046,0-20,8.954-20,20v70l60,30v-100
	C418.501,181.454,409.547,172.5,398.501,172.5z"/>
<path style="fill:#FF4128;" d="M448.501,262.5h-30l15,90h30v-50.335C463.501,286.954,457.83,273.075,448.501,262.5z"/>
<path style="fill:#FF6753;" d="M419.501,262.5h-60v90h75v-50.335C434.501,286.954,428.83,273.075,419.501,262.5z"/>
<path d="M313.501,239.5c-4.142,0-7.5,3.357-7.5,7.5v132.5h-30.808c9.745-9.537,15.808-22.821,15.808-37.5v-75
	c0-15.163-12.336-27.5-27.5-27.5h-32.5v-15.544c2.451,0.352,4.953,0.544,7.5,0.544c28.949,0,52.5-23.552,52.5-52.5
	s-23.551-52.5-52.5-52.5s-52.5,23.552-52.5,52.5c0,20.9,12.279,38.982,30,47.424V239.5h-2.5c-12.563,0-23.178,8.472-26.452,20
	h-16.048V197c0-4.143-3.358-7.5-7.5-7.5h-30c-12.253,0-23.153,5.907-30,15.023c-6.847-9.116-17.747-15.023-30-15.023h-30
	c-4.142,0-7.5,3.357-7.5,7.5v52.5h-6.5c-4.142,0-7.5,3.357-7.5,7.5s3.358,7.5,7.5,7.5h6.5v40h-22.5c-4.142,0-7.5,3.357-7.5,7.5
	v192.5c0,4.143,3.358,7.5,7.5,7.5s7.5-3.357,7.5-7.5v-155h165v155c0,4.143,3.358,7.5,7.5,7.5s7.5-3.357,7.5-7.5v-80h105v80
	c0,4.143,3.358,7.5,7.5,7.5s7.5-3.357,7.5-7.5V247C321.001,242.857,317.643,239.5,313.501,239.5z M201.001,172
	c0-20.678,16.822-37.5,37.5-37.5s37.5,16.822,37.5,37.5s-16.822,37.5-37.5,37.5c-2.568,0-5.076-0.261-7.5-0.755V187
	c0-4.143-3.358-7.5-7.5-7.5s-7.5,3.357-7.5,7.5v14.979C206.899,195.131,201.001,184.242,201.001,172z M201.001,379.5v-30h74.245
	c-3.484,17.096-18.635,30-36.745,30H201.001z M213.501,254.5h2.5V277c0,20.678,16.822,37.5,37.5,37.5c4.142,0,7.5-3.357,7.5-7.5
	s-3.358-7.5-7.5-7.5c-12.407,0-22.5-10.094-22.5-22.5v-22.5h32.5c6.893,0,12.5,5.607,12.5,12.5v67.5h-75V267
	C201.001,260.107,206.608,254.5,213.501,254.5z M186.001,274.5v30h-15v-30H186.001z M112.291,304.5c3.096-8.729,11.432-15,21.21-15
	h22.5v15H112.291z M133.501,204.5h22.5v70h-22.5c-8.435,0-16.228,2.8-22.5,7.519V227C111.001,214.594,121.094,204.5,133.501,204.5z
	 M59.501,249.5h-8.5v-45h22.5c12.407,0,22.5,10.094,22.5,22.5v55.019c-6.272-4.719-14.065-7.519-22.5-7.519h-22.5v-10h8.5
	c4.142,0,7.5-3.357,7.5-7.5S63.643,249.5,59.501,249.5z M51.001,289.5h22.5c9.777,0,18.114,6.271,21.21,15h-43.71V289.5z
	 M21.001,319.5h165v15h-165C21.001,334.5,21.001,319.5,21.001,319.5z M201.001,409.5v-15h105v15H201.001z"/>
<path d="M163.501,379.5h-21.4c-4.142,0-7.5,3.357-7.5,7.5v110h-21c-4.142,0-7.5,3.357-7.5,7.5s3.358,7.5,7.5,7.5h28.5
	c4.142,0,7.5-3.357,7.5-7.5v-110h13.9c4.142,0,7.5-3.357,7.5-7.5S167.643,379.5,163.501,379.5z"/>
<path d="M344.045,114.727c0.582,4.979,2.812,9.695,6.422,13.307c4.269,4.269,9.987,6.593,15.896,6.593
	c0.017,0,0.035-0.001,0.052-0.001C375.92,144.12,389.037,150,403.501,150c14.468,0,27.587-5.883,37.092-15.382
	c5.923,0.011,11.661-2.306,15.94-6.585c3.61-3.61,5.841-8.326,6.422-13.307c4.378-2.443,7.882-6.31,9.836-11.025
	c1.954-4.717,2.21-9.928,0.841-14.751c3.111-3.933,4.868-8.845,4.868-13.95s-1.757-10.019-4.868-13.95
	c1.369-4.824,1.112-10.034-0.841-14.751c-1.954-4.717-5.458-8.583-9.836-11.025c-0.581-4.981-2.812-9.697-6.422-13.306
	c-3.61-3.61-8.326-5.842-13.307-6.423c-2.443-4.378-6.308-7.882-11.026-9.837c-4.717-1.952-9.928-2.209-14.75-0.841
	C413.518,1.757,408.606,0,403.501,0s-10.017,1.757-13.95,4.867c-4.824-1.366-10.034-1.112-14.752,0.842
	c-4.716,1.954-8.582,5.457-11.025,9.836c-4.98,0.582-9.696,2.812-13.306,6.422c-3.61,3.609-5.841,8.326-6.423,13.307
	c-4.378,2.442-7.882,6.309-9.835,11.025c-1.954,4.716-2.21,9.927-0.841,14.751c-3.11,3.933-4.868,8.845-4.868,13.95
	s1.757,10.018,4.868,13.95c-1.369,4.824-1.112,10.035,0.841,14.751C336.163,108.417,339.666,112.283,344.045,114.727z M403.501,135
	c-20.678,0-37.5-16.822-37.5-37.5s16.822-37.5,37.5-37.5s37.5,16.822,37.5,37.5S424.179,135,403.501,135z M346.643,68.912
	c3.205-2.301,4.079-6.691,1.999-10.045c-1.296-2.09-1.505-4.579-0.574-6.828c0.932-2.25,2.839-3.861,5.233-4.422
	c3.841-0.9,6.329-4.623,5.69-8.517c-0.398-2.427,0.361-4.806,2.083-6.526c1.722-1.723,4.1-2.481,6.528-2.083
	c3.893,0.64,7.616-1.848,8.516-5.69c0.561-2.395,2.173-4.302,4.422-5.234c2.249-0.931,4.737-0.723,6.827,0.574
	c3.351,2.078,7.742,1.207,10.045-1.997c1.435-1.998,3.654-3.144,6.089-3.144s4.654,1.146,6.088,3.143
	c2.302,3.205,6.692,4.076,10.045,1.998c2.09-1.296,4.579-1.504,6.827-0.574c2.25,0.933,3.862,2.84,4.423,5.234
	c0.9,3.841,4.622,6.333,8.516,5.69c2.427-0.398,4.806,0.359,6.528,2.083c1.721,1.721,2.48,4.1,2.082,6.526
	c-0.638,3.894,1.849,7.616,5.69,8.517c2.394,0.561,4.302,2.173,5.233,4.422s0.722,4.738-0.574,6.828
	c-2.08,3.353-1.206,7.744,1.999,10.045c1.997,1.435,3.143,3.653,3.143,6.088s-1.146,4.653-3.144,6.088
	c-3.204,2.302-4.078,6.692-1.998,10.045c1.296,2.09,1.506,4.579,0.574,6.828c-0.633,1.527-1.722,2.75-3.102,3.56
	c0.101-1.329,0.169-2.667,0.169-4.021c0-28.948-23.551-52.5-52.5-52.5S351,68.552,351,97.5c0,1.354,0.068,2.692,0.169,4.021
	c-1.38-0.81-2.47-2.033-3.102-3.56c-0.932-2.249-0.723-4.738,0.574-6.828c2.08-3.353,1.206-7.743-1.998-10.044
	c-1.998-1.436-3.144-3.654-3.144-6.089S344.646,70.347,346.643,68.912z"/>
<path d="M506.001,242.5c0-29.486-22.313-53.846-50.938-57.115C451.919,173.661,441.204,165,428.501,165h-50
	c-15.164,0-27.5,12.337-27.5,27.5v160c0,4.143,3.358,7.5,7.5,7.5h7.5v129.095l-24.872,8.29c-3.93,1.31-6.053,5.558-4.744,9.487
	c1.048,3.143,3.974,5.13,7.114,5.13c0.786,0,1.586-0.125,2.373-0.387l30-10c3.062-1.021,5.128-3.887,5.128-7.115V360h45v129.095
	l-24.872,8.29c-3.93,1.31-6.053,5.558-4.744,9.487c1.048,3.143,3.974,5.13,7.114,5.13c0.786,0,1.586-0.125,2.373-0.387l30-10
	c3.062-1.021,5.128-3.887,5.128-7.115V360h22.5c4.142,0,7.5-3.357,7.5-7.5v-50.335c0-2.221-0.122-4.429-0.338-6.621
	C491.757,286.704,506.001,265.756,506.001,242.5z M378.501,180h50c6.893,0,12.5,5.607,12.5,12.5V255h-75v-62.5
	C366.001,185.607,371.608,180,378.501,180z M456.001,345h-90v-75h78.961c7.134,9.183,11.039,20.478,11.039,32.165V345z
	 M467.427,280.536c-2.539-7.496-6.382-14.539-11.426-20.777v-59.083c19.868,3.554,35,20.949,35,41.824
	C491.001,258.737,481.607,273.449,467.427,280.536z"/>
<g>
</g>
<g>
</g>
<g>
</g>
<g>
</g>
<g>
</g>
<g>
</g>
<g>
</g>
<g>
</g>
<g>
</g>
<g>
</g>
<g>
</g>
<g>
</g>
<g>
</g>
<g>
</g>
<g>
</g>
</svg>
