<?xml version="1.0" encoding="iso-8859-1"?>
<!-- Generator: Adobe Illustrator 19.0.0, SVG Export Plug-In . SVG Version: 6.00 Build 0)  -->
<svg version="1.1" id="Capa_1" xmlns="http://www.w3.org/2000/svg" xmlns:xlink="http://www.w3.org/1999/xlink" x="0px" y="0px"
	 viewBox="0 0 512.002 512.002" style="enable-background:new 0 0 512.002 512.002;" xml:space="preserve">
<path style="fill:#FFF0D3;" d="M97.501,387.5l15,60c16.569,0,30-13.432,30-30v-5L97.501,387.5z"/>
<path style="fill:#FFFFFF;" d="M82.501,412.5v5c0,16.568,13.431,30,30,30v-60L82.501,412.5z"/>
<path style="fill:#E18F4E;" d="M112.501,352.5h10c11.046,0,20,8.954,20,20v40h-30l-15-35L112.501,352.5z"/>
<path style="fill:#FFA754;" d="M112.501,352.5h-10c-11.046,0-20,8.954-20,20v40h30V352.5z"/>
<path style="fill:#E18F4E;" d="M112.501,262.5l-15,30l15,30c16.569,0,30-13.431,30-30S129.07,262.5,112.501,262.5z"/>
<path style="fill:#FFA754;" d="M82.501,292.5c0,16.569,13.431,30,30,30v-60C95.932,262.5,82.501,275.931,82.501,292.5z"/>
<path style="fill:#FF6337;" d="M419.5,52.5c24.853,0,45-20.147,45-45C439.647,7.5,419.5,27.647,419.5,52.5z"/>
<path style="fill:#FF8D7E;" d="M374.5,7.5c0,24.853,20.147,45,45,45C419.5,27.647,399.353,7.5,374.5,7.5z"/>
<path style="fill:#F9DFD0;" d="M419.502,52.5v30h-42.429C383.252,65.024,399.91,52.5,419.502,52.5z"/>
<path style="fill:#FFFFFF;" d="M419.502,52.5c19.592,0,36.25,12.524,42.429,30h-56.572C407.419,65.024,412.972,52.5,419.502,52.5z"
	/>
<path style="fill:#E18F4E;" d="M419.501,52.5v90c24.853,0,45-20.147,45-45S444.354,52.5,419.501,52.5z"/>
<path style="fill:#FFA754;" d="M434.501,97.5c0-24.853-6.716-45-15-45c-24.853,0-45,20.147-45,45s20.147,45,45,45
	C427.785,142.5,434.501,122.353,434.501,97.5z"/>
<path style="fill:#FF6337;" d="M444.501,172.5h-30v130l50-40v-70C464.501,181.454,455.547,172.5,444.501,172.5z"/>
<path style="fill:#FF8D7E;" d="M434.501,192.5c0-11.046-8.954-20-20-20h-20c-11.046,0-20,8.954-20,20v70l60,40V192.5z"/>
<path style="fill:#B3B3B3;" d="M464.501,262.5c9.329,10.575,15,24.454,15,39.665V352.5h-30l-15-90H464.501z"/>
<path style="fill:#CCCCCC;" d="M434.501,262.5c9.329,10.575,15,24.454,15,39.665V352.5h-75v-90H434.501z"/>
<path style="fill:#353535;" d="M297.501,262.5v75c24.853,0,45-20.147,45-45L297.501,262.5z"/>
<path style="fill:#4F4F4F;" d="M312.501,292.5l-15-30l-45,30c0,24.853,20.147,45,45,45C305.785,337.5,312.501,317.353,312.501,292.5
	z"/>
<path style="fill:#7DD9FF;" d="M322.501,172.5h-30l20,120h30v-100C342.501,181.454,333.547,172.5,322.501,172.5z"/>
<path style="fill:#A8E5FF;" d="M292.501,172.5h-20c-11.046,0-20,8.954-20,20v100h60v-100
	C312.501,181.454,303.547,172.5,292.501,172.5z"/>
<path style="fill:#E18F4E;" d="M297.501,52.5v90c-24.853,0-45-20.147-45-45S272.648,52.5,297.501,52.5z"/>
<path style="fill:#FFA754;" d="M282.501,97.5c0-24.853,6.716-45,15-45c24.853,0,45,20.147,45,45s-20.147,45-45,45
	C289.217,142.5,282.501,122.353,282.501,97.5z"/>
<path d="M192.501,315c-4.143,0-7.5,3.357-7.5,7.5c0,21.288-15.734,38.967-36.183,42.028C145.392,353.241,134.892,345,122.501,345
	h-20c-12.391,0-22.891,8.241-26.317,19.528c-20.449-3.061-36.183-20.74-36.183-42.028c0-4.143-3.357-7.5-7.5-7.5s-7.5,3.357-7.5,7.5
	c0,29.163,21.827,53.306,50,56.995V467h-22.5c-4.143,0-7.5,3.357-7.5,7.5s3.357,7.5,7.5,7.5h30c4.143,0,7.5-3.357,7.5-7.5v-27.02
	c6.272,4.719,14.064,7.52,22.5,7.52c8.436,0,16.228-2.801,22.5-7.52v57.02c0,4.143,3.357,7.5,7.5,7.5s7.5-3.357,7.5-7.5V379.495
	c28.173-3.688,50-27.832,50-56.995C200.001,318.357,196.644,315,192.501,315z M102.501,360h20c6.893,0,12.5,5.607,12.5,12.5V405h-45
	v-32.5C90.001,365.607,95.608,360,102.501,360z M112.501,440c-11.561,0-21.11-8.766-22.358-20h44.716
	C133.611,431.234,124.062,440,112.501,440z"/>
<path d="M112.501,330c20.678,0,37.5-16.822,37.5-37.5s-16.822-37.5-37.5-37.5s-37.5,16.822-37.5,37.5S91.823,330,112.501,330z
	 M112.501,270c12.406,0,22.5,10.094,22.5,22.5s-10.094,22.5-22.5,22.5c-12.406,0-22.5-10.094-22.5-22.5S100.095,270,112.501,270z"/>
<path d="M472.001,259.759V192.5c0-15.163-12.337-27.5-27.5-27.5h-32.5v-15.544c2.451,0.352,4.953,0.544,7.5,0.544
	c28.948,0,52.5-23.552,52.5-52.5c0-19.077-10.231-35.807-25.492-45C461.769,43.306,472,26.577,472,7.5c0-4.143-3.357-7.5-7.5-7.5
	c-19.073,0-35.805,10.226-45,25.481C410.305,10.226,393.573,0,374.5,0c-4.143,0-7.5,3.357-7.5,7.5c0,19.077,10.231,35.807,25.492,45
	c-15.26,9.194-25.491,25.923-25.491,45c0,20.9,12.279,38.982,30,47.424V165h-2.5c-15.163,0-27.5,12.337-27.5,27.5v160
	c0,4.143,3.357,7.5,7.5,7.5h7.5v129.095l-24.872,8.29c-3.929,1.31-6.053,5.558-4.743,9.487c1.048,3.143,3.974,5.13,7.114,5.13
	c0.786,0,1.586-0.125,2.373-0.387l30-10c3.062-1.021,5.128-3.887,5.128-7.115V360h45v129.095l-24.872,8.29
	c-3.929,1.31-6.053,5.558-4.743,9.487c1.048,3.143,3.974,5.13,7.114,5.13c0.786,0,1.586-0.125,2.373-0.387l30-10
	c3.062-1.021,5.128-3.887,5.128-7.115V360h22.5c4.143,0,7.5-3.357,7.5-7.5v-50.335C487.001,286.693,481.694,271.748,472.001,259.759
	z M456.037,15.963c-3.217,13.896-14.179,24.857-28.074,28.074C431.18,30.142,442.142,19.18,456.037,15.963z M411.037,44.037
	c-13.896-3.217-24.857-14.179-28.074-28.074C396.858,19.18,407.82,30.142,411.037,44.037z M382.001,97.5
	c0-20.678,16.822-37.5,37.5-37.5s37.5,16.822,37.5,37.5s-16.822,37.5-37.5,37.5c-2.568,0-5.076-0.261-7.5-0.755V112.5
	c0-4.143-3.357-7.5-7.5-7.5s-7.5,3.357-7.5,7.5v14.98C387.899,120.631,382.001,109.742,382.001,97.5z M394.501,180h2.5v22.5
	c0,20.678,16.822,37.5,37.5,37.5c4.143,0,7.5-3.357,7.5-7.5s-3.357-7.5-7.5-7.5c-12.406,0-22.5-10.094-22.5-22.5V180h32.5
	c6.893,0,12.5,5.607,12.5,12.5V255h-75v-62.5C382.001,185.607,387.608,180,394.501,180z M472.001,345h-90v-75h78.961
	c7.133,9.183,11.039,20.478,11.039,32.165V345z"/>
<path d="M297.501,150c28.948,0,52.5-23.552,52.5-52.5S326.449,45,297.501,45s-52.5,23.552-52.5,52.5c0,20.9,12.279,38.982,30,47.424
	V165h-2.5c-15.163,0-27.5,12.337-27.5,27.5v31.21c-8.729-3.096-15-11.433-15-21.21v-60c0-4.143-3.357-7.5-7.5-7.5
	s-7.5,3.357-7.5,7.5v60c0,18.11,12.904,33.261,30,36.745V292.5c0,14.269,5.73,27.22,15,36.692v159.903l-24.872,8.29
	c-3.93,1.31-6.053,5.558-4.743,9.487c1.048,3.143,3.974,5.13,7.114,5.13c0.786,0,1.586-0.125,2.373-0.387l30-10
	c3.062-1.021,5.128-3.887,5.128-7.115V339.924c6.824,3.251,14.452,5.076,22.5,5.076s15.676-1.825,22.5-5.076v149.171l-24.872,8.29
	c-3.93,1.31-6.053,5.558-4.743,9.487c1.048,3.143,3.974,5.13,7.114,5.13c0.786,0,1.586-0.125,2.373-0.387l30-10
	c3.062-1.021,5.128-3.887,5.128-7.115V329.192c9.27-9.472,15-22.423,15-36.692v-100c0-15.163-12.337-27.5-27.5-27.5h-32.5v-15.544
	C292.452,149.808,294.954,150,297.501,150z M260.756,300h73.491c-3.484,17.096-18.635,30-36.745,30S264.24,317.096,260.756,300z
	 M322.501,180c6.893,0,12.5,5.607,12.5,12.5V285h-75v-92.5c0-6.893,5.607-12.5,12.5-12.5h2.5v22.5c0,20.678,16.822,37.5,37.5,37.5
	c4.143,0,7.5-3.357,7.5-7.5s-3.357-7.5-7.5-7.5c-12.406,0-22.5-10.094-22.5-22.5V180H322.501z M260.001,97.5
	c0-20.678,16.822-37.5,37.5-37.5s37.5,16.822,37.5,37.5s-16.822,37.5-37.5,37.5c-2.568,0-5.076-0.261-7.5-0.755V112.5
	c0-4.143-3.357-7.5-7.5-7.5s-7.5,3.357-7.5,7.5v14.98C265.899,120.631,260.001,109.742,260.001,97.5z"/>
<g>
</g>
<g>
</g>
<g>
</g>
<g>
</g>
<g>
</g>
<g>
</g>
<g>
</g>
<g>
</g>
<g>
</g>
<g>
</g>
<g>
</g>
<g>
</g>
<g>
</g>
<g>
</g>
<g>
</g>
</svg>
