<?xml version="1.0" encoding="iso-8859-1"?>
<!-- Generator: Adobe Illustrator 19.0.0, SVG Export Plug-In . SVG Version: 6.00 Build 0)  -->
<svg version="1.1" id="Capa_1" xmlns="http://www.w3.org/2000/svg" xmlns:xlink="http://www.w3.org/1999/xlink" x="0px" y="0px"
	 viewBox="0 0 512.002 512.002" style="enable-background:new 0 0 512.002 512.002;" xml:space="preserve">
<path style="fill:#FFF0D3;" d="M187.501,232.5v120c33.137,0,60-26.863,60-60S220.638,232.5,187.501,232.5z"/>
<path style="fill:#FFFFFF;" d="M217.501,292.5c0-33.137-13.431-60-30-60c-28.664,0-52.618,20.106-58.567,46.98L97.501,292.5
	l31.433,13.02c5.949,26.874,29.903,46.98,58.567,46.98C204.07,352.5,217.501,325.637,217.501,292.5z"/>
<path style="fill:#FFF0D3;" d="M22.501,387.5l15,60c16.569,0,30-13.432,30-30v-5L22.501,387.5z"/>
<path style="fill:#FFFFFF;" d="M7.501,412.5v5c0,16.568,13.431,30,30,30v-60L7.501,412.5z"/>
<path style="fill:#85453D;" d="M37.501,352.5h10c11.046,0,20,8.954,20,20v40h-30l-15-35L37.501,352.5z"/>
<path style="fill:#A45E43;" d="M37.501,352.5h-10c-11.046,0-20,8.954-20,20v40h30V352.5z"/>
<path style="fill:#85453D;" d="M37.501,262.5l-15,30l15,30c16.569,0,30-13.431,30-30S54.07,262.5,37.501,262.5z"/>
<path style="fill:#A45E43;" d="M7.501,292.5c0,16.569,13.431,30,30,30v-60C20.932,262.5,7.501,275.931,7.501,292.5z"/>
<circle style="fill:#FFCB63;" cx="444.5" cy="30" r="22.5"/>
<path style="fill:#FFB4A9;" d="M444.501,52.5v90c24.853,0,45-20.147,45-45S469.354,52.5,444.501,52.5z"/>
<path style="fill:#FFD9D4;" d="M459.501,97.5c0-24.853-6.716-45-15-45c-24.853,0-45,20.147-45,45s20.147,45,45,45
	C452.785,142.5,459.501,122.353,459.501,97.5z"/>
<path style="fill:#FF6337;" d="M489.501,262.5v-70c0-11.046-8.954-20-20-20h-30l35,180h30v-50.335
	C504.501,286.954,498.83,273.075,489.501,262.5z"/>
<path style="fill:#FF8646;" d="M459.501,262.5v-70c0-11.046-8.954-20-20-20h-20c-11.046,0-20,8.954-20,20v160h75v-50.335
	C474.501,286.954,468.83,273.075,459.501,262.5z"/>
<path style="fill:#2DADE3;" d="M322.501,262.5v75c24.853,0,45-20.147,45-45L322.501,262.5z"/>
<path style="fill:#49C9FF;" d="M337.501,292.5l-15-30l-45,30c0,24.853,20.147,45,45,45C330.785,337.5,337.501,317.353,337.501,292.5
	z"/>
<path style="fill:#B3B3B3;" d="M347.501,172.5h-30l20,120h30v-100C367.501,181.454,358.547,172.5,347.501,172.5z"/>
<path style="fill:#CCCCCC;" d="M317.501,172.5h-20c-11.046,0-20,8.954-20,20v100h60v-100
	C337.501,181.454,328.547,172.5,317.501,172.5z"/>
<path style="fill:#85453D;" d="M322.501,52.5v90c24.853,0,45-20.147,45-45S347.354,52.5,322.501,52.5z"/>
<path style="fill:#A45E43;" d="M337.501,97.5c0-24.853-6.716-45-15-45c-24.853,0-45,20.147-45,45s20.147,45,45,45
	C330.785,142.5,337.501,122.353,337.501,97.5z"/>
<path d="M245.641,258.215c-2.106-3.565-6.705-4.747-10.272-2.642c-3.566,2.107-4.749,6.706-2.642,10.272
	c4.759,8.054,7.274,17.271,7.274,26.654c0,28.948-23.551,52.5-52.5,52.5c-24.421,0-45.972-17.285-51.244-41.101
	c-0.529-2.39-2.191-4.371-4.453-5.308l-14.706-6.092l14.706-6.092c2.262-0.937,3.923-2.918,4.453-5.308
	C141.529,257.285,163.08,240,187.501,240c9.383,0,18.6,2.516,26.655,7.274c3.568,2.11,8.166,0.923,10.272-2.642
	c2.107-3.566,0.924-8.166-2.642-10.272c-10.364-6.124-22.22-9.36-34.285-9.36c-15.456,0-30.561,5.36-42.532,15.093
	c-10.755,8.742-18.6,20.665-22.377,33.896l-27.96,11.582c-2.803,1.16-4.63,3.896-4.63,6.929s1.827,5.769,4.63,6.929l27.96,11.582
	c3.778,13.231,11.623,25.154,22.377,33.896C156.94,354.64,172.045,360,187.501,360c37.22,0,67.5-30.28,67.5-67.5
	C255.001,280.434,251.764,268.578,245.641,258.215z"/>
<circle cx="187.5" cy="292.5" r="7.5"/>
<circle cx="157.5" cy="292.5" r="7.5"/>
<circle cx="217.5" cy="292.5" r="7.5"/>
<path d="M37.501,255c-20.678,0-37.5,16.822-37.5,37.5s16.822,37.5,37.5,37.5s37.5-16.822,37.5-37.5S58.179,255,37.501,255z
	 M37.501,315c-12.407,0-22.5-10.094-22.5-22.5s10.093-22.5,22.5-22.5s22.5,10.094,22.5,22.5S49.908,315,37.501,315z"/>
<path d="M47.501,345h-20c-15.164,0-27.5,12.337-27.5,27.5v132c0,4.143,3.358,7.5,7.5,7.5s7.5-3.357,7.5-7.5v-57.02
	c6.272,4.719,14.064,7.52,22.5,7.52s16.228-2.801,22.5-7.52v57.02c0,4.143,3.358,7.5,7.5,7.5s7.5-3.357,7.5-7.5v-132
	C75.001,357.337,62.665,345,47.501,345z M27.501,360h20c6.893,0,12.5,5.607,12.5,12.5V405h-45v-32.5
	C15.001,365.607,20.608,360,27.501,360z M37.501,440c-11.561,0-21.11-8.766-22.358-20h44.716C58.611,431.234,49.062,440,37.501,440z
	"/>
<path d="M497.001,259.759V192.5c0-15.163-12.337-27.5-27.5-27.5h-32.5v-15.544c2.451,0.352,4.953,0.544,7.5,0.544
	c28.948,0,52.5-23.552,52.5-52.5c0-20.964-12.356-39.09-30.165-47.498c4.762-5.312,7.665-12.323,7.665-20.002
	c0-16.542-13.458-30-30-30s-30,13.458-30,30c0,7.678,2.903,14.69,7.665,20.002c-17.808,8.408-30.165,26.534-30.165,47.498
	c0,20.9,12.279,38.982,30,47.424V165h-2.5c-15.163,0-27.5,12.337-27.5,27.5v160c0,4.143,3.357,7.5,7.5,7.5h7.5v129.095l-24.872,8.29
	c-3.929,1.31-6.053,5.558-4.743,9.487c1.048,3.143,3.974,5.13,7.114,5.13c0.786,0,1.586-0.125,2.373-0.387l30-10
	c3.062-1.021,5.128-3.887,5.128-7.115V360h45v129.095l-24.872,8.29c-3.929,1.31-6.053,5.558-4.743,9.487
	c1.048,3.143,3.974,5.13,7.114,5.13c0.786,0,1.586-0.125,2.373-0.387l30-10c3.062-1.021,5.128-3.887,5.128-7.115V360h22.5
	c4.143,0,7.5-3.357,7.5-7.5v-50.335C512.001,286.693,506.694,271.748,497.001,259.759z M429.501,30c0-8.271,6.729-15,15-15
	s15,6.729,15,15s-6.729,15-15,15S429.501,38.271,429.501,30z M407.001,97.5c0-20.678,16.822-37.5,37.5-37.5s37.5,16.822,37.5,37.5
	s-16.822,37.5-37.5,37.5c-2.568,0-5.076-0.261-7.5-0.755V112.5c0-4.143-3.357-7.5-7.5-7.5s-7.5,3.357-7.5,7.5v14.98
	C412.899,120.631,407.001,109.742,407.001,97.5z M497.001,345h-90V192.5c0-6.893,5.607-12.5,12.5-12.5h2.5v22.5
	c0,20.678,16.822,37.5,37.5,37.5c4.143,0,7.5-3.357,7.5-7.5s-3.357-7.5-7.5-7.5c-12.406,0-22.5-10.094-22.5-22.5V180h32.5
	c6.893,0,12.5,5.607,12.5,12.5v70c0,1.827,0.667,3.592,1.876,4.962c8.463,9.594,13.124,21.918,13.124,34.703V345z"/>
<path d="M322.501,150c28.948,0,52.5-23.552,52.5-52.5c0-16.702-7.849-31.596-20.042-41.218l1.538-2.664
	c2.071-3.588,0.842-8.175-2.745-10.245c-3.589-2.074-8.175-0.843-10.245,2.745l-1.526,2.644c-3.797-1.523-7.807-2.618-11.979-3.218
	V42.5c0-4.143-3.357-7.5-7.5-7.5s-7.5,3.357-7.5,7.5v3.044c-4.171,0.599-8.182,1.695-11.979,3.218l-1.526-2.644
	c-2.07-3.588-6.656-4.815-10.245-2.745c-3.587,2.07-4.816,6.657-2.745,10.245l1.538,2.664
	c-12.193,9.622-20.043,24.516-20.043,41.218c0,20.9,12.279,38.982,30,47.424V165h-2.5c-15.163,0-27.5,12.337-27.5,27.5v31.21
	c-8.729-3.096-15-11.433-15-21.21v-60c0-4.143-3.358-7.5-7.5-7.5s-7.5,3.357-7.5,7.5v60c0,18.11,12.904,33.261,30,36.745V292.5
	c0,14.269,5.73,27.22,15,36.692v159.903l-24.872,8.29c-3.929,1.31-6.053,5.558-4.743,9.487c1.048,3.143,3.974,5.13,7.114,5.13
	c0.786,0,1.586-0.125,2.373-0.387l30-10c3.062-1.021,5.128-3.887,5.128-7.115V339.924c6.824,3.251,14.452,5.076,22.5,5.076
	s15.676-1.825,22.5-5.076v149.171l-24.872,8.29c-3.93,1.31-6.053,5.558-4.743,9.487c1.048,3.143,3.974,5.13,7.114,5.13
	c0.786,0,1.586-0.125,2.373-0.387l30-10c3.062-1.021,5.128-3.887,5.128-7.115V329.192c9.27-9.472,15-22.423,15-36.692v-100
	c0-15.163-12.337-27.5-27.5-27.5h-32.5v-15.544C317.452,149.808,319.954,150,322.501,150z M285.756,300h73.491
	c-3.484,17.096-18.635,30-36.745,30S289.24,317.096,285.756,300z M347.501,180c6.893,0,12.5,5.607,12.5,12.5V285h-75v-92.5
	c0-6.893,5.607-12.5,12.5-12.5h2.5v22.5c0,20.678,16.822,37.5,37.5,37.5c4.143,0,7.5-3.357,7.5-7.5s-3.357-7.5-7.5-7.5
	c-12.406,0-22.5-10.094-22.5-22.5V180H347.501z M285.001,97.5c0-20.678,16.822-37.5,37.5-37.5s37.5,16.822,37.5,37.5
	s-16.822,37.5-37.5,37.5c-2.568,0-5.076-0.261-7.5-0.755V112.5c0-4.143-3.357-7.5-7.5-7.5s-7.5,3.357-7.5,7.5v14.98
	C290.899,120.631,285.001,109.742,285.001,97.5z"/>
<g>
</g>
<g>
</g>
<g>
</g>
<g>
</g>
<g>
</g>
<g>
</g>
<g>
</g>
<g>
</g>
<g>
</g>
<g>
</g>
<g>
</g>
<g>
</g>
<g>
</g>
<g>
</g>
<g>
</g>
</svg>
