<?xml version="1.0" encoding="iso-8859-1"?>
<!-- Generator: Adobe Illustrator 19.0.0, SVG Export Plug-In . SVG Version: 6.00 Build 0)  -->
<svg version="1.1" id="Capa_1" xmlns="http://www.w3.org/2000/svg" xmlns:xlink="http://www.w3.org/1999/xlink" x="0px" y="0px"
	 viewBox="0 0 512.002 512.002" style="enable-background:new 0 0 512.002 512.002;" xml:space="preserve">
<path style="fill:#85453D;" d="M381.001,52.5v101l45-46v-10C426.001,72.647,405.854,52.5,381.001,52.5z"/>
<path style="fill:#A45E43;" d="M381.001,52.5c-24.853,0-45,20.147-45,45v10l60,46v-56C396.001,72.647,389.285,52.5,381.001,52.5z"/>
<path style="fill:#EBEBEB;" d="M399.71,107.5c-1.053-1.573-2.303-3.002-3.709-4.261l-15,69.261c24.853,0,45-20.147,45-45v-20H399.71
	z"/>
<path style="fill:#FFFFFF;" d="M396.001,127.5v-24.261c-3.981-3.566-9.235-5.739-15-5.739c-7.801,0-14.672,3.971-18.709,10h-26.291
	v20c0,24.853,20.147,45,45,45C389.285,172.5,396.001,152.353,396.001,127.5z"/>
<path style="fill:#2DADE3;" d="M381.001,262.5v75c24.853,0,45-20.147,45-45L381.001,262.5z"/>
<path style="fill:#49C9FF;" d="M396.001,292.5l-15-30l-45,30c0,24.853,20.147,45,45,45C389.285,337.5,396.001,317.353,396.001,292.5
	z"/>
<path style="fill:#9DB55F;" d="M406.001,172.5h-30l20,120h30v-100C426.001,181.454,417.047,172.5,406.001,172.5z"/>
<path style="fill:#B9D171;" d="M376.001,172.5h-40l-30,60l30,60h60v-100C396.001,181.454,387.047,172.5,376.001,172.5z"/>
<path style="fill:#DBF4FF;" d="M276.001,187.5v75c0,16.57,13.43,30,30,30h30v-45L276.001,187.5z"/>
<path style="fill:#A8E5FF;" d="M276.001,172.5v15c0,33.137,26.863,60,60,60v-75H276.001z"/>
<path style="fill:#85453D;" d="M306.001,142.5l-10,30l10,30c16.569,0,30-13.431,30-30S322.569,142.5,306.001,142.5z"/>
<path style="fill:#A45E43;" d="M276.001,172.5c0,16.569,13.431,30,30,30v-60C289.432,142.5,276.001,155.931,276.001,172.5z"/>
<path style="fill:#FFE2A8;" d="M121.001,172.5h-30v130l50-40v-70C141.001,181.454,132.047,172.5,121.001,172.5z"/>
<path style="fill:#FFF0D3;" d="M91.001,172.5h-20c-11.046,0-20,8.954-20,20v70l60,40v-110
	C111.001,181.454,102.047,172.5,91.001,172.5z"/>
<path style="fill:#FFA754;" d="M141.001,262.5h-30l15,90h30v-50.335C156.001,286.954,150.33,273.075,141.001,262.5z"/>
<path style="fill:#FFCB63;" d="M111.001,262.5h-60c-9.329,10.575-15,24.454-15,39.665V352.5h90v-50.335
	C126.001,286.954,120.33,273.075,111.001,262.5z"/>
<path style="fill:#52261D;" d="M113.501,17.5h-1.707c-2.811-5.907-8.816-10-15.793-10c-6.977,0-12.982,4.093-15.793,10h-1.707
	c-9.665,0-17.5,7.835-17.5,17.5s7.835,17.5,17.5,17.5h35c9.665,0,17.5-7.835,17.5-17.5S123.166,17.5,113.501,17.5z"/>
<path style="fill:#85453D;" d="M96.001,52.5v90c24.853,0,45-20.147,45-45S120.854,52.5,96.001,52.5z"/>
<path style="fill:#A45E43;" d="M111.001,97.5c0-24.853-6.716-45-15-45c-24.853,0-45,20.147-45,45s20.147,45,45,45
	C104.285,142.5,111.001,122.353,111.001,97.5z"/>
<g>
	<polygon style="fill:#808080;" points="186.001,97.5 171.001,142.5 216.001,127.5 216.001,97.5 	"/>
	<polygon style="fill:#808080;" points="126.001,97.5 141.001,142.5 96.001,127.5 96.001,97.5 	"/>
</g>
<rect x="126" y="97.5" style="fill:#FFFFFF;" width="60" height="45"/>
<polygon style="fill:#999999;" points="186.001,187.5 216.001,187.5 216.001,127.5 186.001,127.5 156.001,157.5 "/>
<rect x="96" y="127.5" style="fill:#B3B3B3;" width="90" height="60"/>
<path style="fill:#FFFFFF;" d="M156.001,127.5c-16.569,0-30,13.431-30,30s13.431,30,30,30l10-30L156.001,127.5z"/>
<path style="fill:#DBF4FF;" d="M156.001,127.5v60c16.569,0,30-13.431,30-30S172.57,127.5,156.001,127.5z"/>
<path d="M483.501,242.5c0-29.486-22.313-53.846-50.938-57.115c-2.293-8.553-8.616-15.471-16.801-18.589
	c10.869-9.626,17.739-23.67,17.739-39.296v-30c0-28.948-23.551-52.5-52.5-52.5s-52.5,23.552-52.5,52.5v23.047
	c0,4.143,3.358,7.5,7.5,7.5s7.5-3.357,7.5-7.5V115h18.792c2.502,0,4.84-1.248,6.232-3.328c2.797-4.178,7.461-6.672,12.476-6.672
	s9.679,2.494,12.476,6.672c1.392,2.08,3.73,3.328,6.232,3.328h18.792v12.5c0,20.678-16.822,37.5-37.5,37.5h-38.255
	c-3.484-17.096-18.635-30-36.745-30c-20.678,0-37.5,16.822-37.5,37.5V255h-7.5c-4.142,0-7.5,3.357-7.5,7.5s3.358,7.5,7.5,7.5h8.255
	c3.484,17.096,18.635,30,36.745,30h23.044c1.621,11.281,6.84,21.41,14.456,29.192v159.903l-24.872,8.29
	c-3.93,1.31-6.053,5.558-4.744,9.487c1.048,3.143,3.974,5.13,7.114,5.13c0.786,0,1.586-0.125,2.373-0.387l30-10
	c3.062-1.021,5.128-3.887,5.128-7.115V339.924c6.824,3.251,14.452,5.076,22.5,5.076c8.445,0,16.424-2.016,23.5-5.574v149.669
	l-24.872,8.29c-3.93,1.31-6.053,5.558-4.744,9.487c1.048,3.143,3.974,5.13,7.114,5.13c0.786,0,1.586-0.125,2.373-0.387l30-10
	c3.062-1.021,5.128-3.887,5.128-7.115V328.143c7.169-7.738,12.033-17.63,13.512-28.586
	C461.421,296.085,483.501,271.831,483.501,242.5z M403.362,100c-5.652-6.325-13.746-10-22.361-10s-16.708,3.675-22.361,10h-15.139
	v-2.5c0-20.678,16.822-37.5,37.5-37.5s37.5,16.822,37.5,37.5v2.5H403.362z M468.501,242.5c0,20.875-15.132,38.27-35,41.824v-83.648
	C453.369,204.23,468.501,221.625,468.501,242.5z M406.001,180c6.893,0,12.5,5.607,12.5,12.5V285h-75V180H406.001z M328.501,239.456
	c-19.72-2.834-35.924-16.666-42.195-35.062c5.728,3.55,12.475,5.607,19.695,5.607c8.436,0,16.228-2.801,22.5-7.52V239.456z
	 M306.001,150c12.407,0,22.5,10.094,22.5,22.5s-10.093,22.5-22.5,22.5s-22.5-10.094-22.5-22.5S293.594,150,306.001,150z
	 M284.791,270h6.21c4.142,0,7.5-3.357,7.5-7.5s-3.358-7.5-7.5-7.5h-7.5v-25.139c10.902,13.485,26.877,22.699,45,24.712V285h-22.5
	C296.224,285,287.887,278.729,284.791,270z M344.256,300h73.491c-3.484,17.096-18.635,30-36.745,30S347.74,317.096,344.256,300z"/>
<circle cx="156" cy="157.5" r="7.5"/>
<path d="M216.001,90h-68.044c-2.011-13.992-9.554-26.217-20.34-34.38c6.567-4.51,10.884-12.069,10.884-20.62
	c0-12.918-9.848-23.578-22.431-24.869C111.406,3.859,103.953,0,96.001,0c-7.952,0-15.405,3.86-20.069,10.131
	C63.35,11.422,53.501,22.082,53.501,35c0,8.551,4.317,16.11,10.884,20.62C51.709,65.213,43.501,80.414,43.501,97.5
	c0,26.358,19.528,48.235,44.875,51.94V165H71.001c-15.164,0-27.5,12.337-27.5,27.5v67.259c-9.693,11.988-15,26.935-15,42.406V352.5
	c0,4.143,3.358,7.5,7.5,7.5h22.5v134.5c0,3.229,2.066,6.095,5.128,7.115l30,10c0.787,0.262,1.586,0.387,2.373,0.387
	c3.14,0,6.066-1.987,7.114-5.13c1.31-3.93-0.814-8.178-4.744-9.487l-24.872-8.29V360h45v134.5c0,3.229,2.066,6.095,5.128,7.115
	l30,10c0.787,0.262,1.586,0.387,2.373,0.387c3.14,0,6.066-1.987,7.114-5.13c1.31-3.93-0.814-8.178-4.744-9.487l-24.872-8.29V360
	h22.5c4.142,0,7.5-3.357,7.5-7.5v-50.335c0-15.472-5.307-30.418-15-42.406V240h22.5c20.678,0,37.5-16.822,37.5-37.5V195h7.5
	c4.142,0,7.5-3.357,7.5-7.5v-90C223.501,93.357,220.143,90,216.001,90z M208.501,120h-15v-15h15V120z M178.501,157.5
	c0,12.406-10.093,22.5-22.5,22.5s-22.5-10.094-22.5-22.5s10.093-22.5,22.5-22.5S178.501,145.094,178.501,157.5z M103.376,120v-15
	h15.125v15H103.376z M103.376,143.832c0.078-0.433,0.125-0.877,0.125-1.332s-0.047-0.899-0.125-1.332V135h22.645
	c-4.719,6.272-7.52,14.064-7.52,22.5s2.801,16.228,7.52,22.5h-22.645C103.376,180,103.376,143.832,103.376,143.832z M133.501,120
	v-15h45v15H133.501z M78.501,45c-5.514,0-10-4.486-10-10s4.486-10,10-10h1.707c2.894,0,5.529-1.665,6.772-4.277
	C88.66,17.192,92.116,15,96.001,15c3.885,0,7.341,2.192,9.021,5.723c1.244,2.613,3.879,4.277,6.772,4.277h1.707
	c5.514,0,10,4.486,10,10s-4.486,10-10,10H78.501z M58.501,97.5c0-20.678,16.822-37.5,37.5-37.5c18.11,0,33.261,12.904,36.745,30
	h-36.87c-4.142,0-7.5,3.357-7.5,7.5v36.719C71.342,130.687,58.501,115.566,58.501,97.5z M71.001,180h17.375v37.5
	c0,4.136-3.364,7.5-7.5,7.5c-4.142,0-7.5,3.357-7.5,7.5s3.358,7.5,7.5,7.5c12.407,0,22.5-10.094,22.5-22.5V195h30.125v60h-75v-62.5
	C58.501,185.607,64.108,180,71.001,180z M148.501,345h-105v-42.835c0-11.687,3.905-22.982,11.039-32.165h82.922
	c7.134,9.183,11.039,20.478,11.039,32.165V345z M193.501,202.5c0,12.406-10.093,22.5-22.5,22.5h-22.5v-30h45V202.5z M185.981,180
	c4.719-6.272,7.52-14.064,7.52-22.5s-2.801-16.228-7.52-22.5h22.52v45H185.981z"/>
<g>
</g>
<g>
</g>
<g>
</g>
<g>
</g>
<g>
</g>
<g>
</g>
<g>
</g>
<g>
</g>
<g>
</g>
<g>
</g>
<g>
</g>
<g>
</g>
<g>
</g>
<g>
</g>
<g>
</g>
</svg>
