<svg height="511pt" viewBox="0 0 511.99905 511" width="511pt" xmlns="http://www.w3.org/2000/svg"><path d="m348.40625 90.171875c0 45.382813-36.789062 82.171875-82.171875 82.171875s-82.171875-36.789062-82.171875-82.171875 36.789062-82.171875 82.171875-82.171875 82.171875 36.789062 82.171875 82.171875zm0 0" fill="#ddaf89"/><path d="m305.589844 129.117188c-43.246094 0-78.300782-35.054688-78.300782-78.300782 0-13.523437 3.429688-26.246094 9.460938-37.34375-30.8125 11.851563-52.6875 41.710938-52.6875 76.699219 0 45.382813 36.789062 82.171875 82.171875 82.171875 34.988281 0 64.847656-21.875 76.699219-52.6875-11.097656 6.035156-23.820313 9.460938-37.34375 9.460938zm0 0" fill="#c9a07d"/><g fill="#fff"><path d="m272.148438 138.074219h-11.832032c-12.011718 0-21.785156-9.769531-21.785156-21.78125v-5.960938c0-4.140625 3.359375-7.5 7.5-7.5 4.144531 0 7.5 3.359375 7.5 7.5v5.960938c0 3.738281 3.042969 6.78125 6.785156 6.78125h11.832032c3.742187 0 6.785156-3.042969 6.785156-6.78125 0-1.816407-.703125-3.519531-1.984375-4.800781l-32.035157-32.035157c-4.117187-4.113281-6.382812-9.585937-6.382812-15.402343 0-12.011719 9.773438-21.785157 21.785156-21.785157h11.832032c12.015624 0 21.785156 9.773438 21.785156 21.785157v5.957031c0 4.140625-3.355469 7.5-7.5 7.5-4.140625 0-7.5-3.359375-7.5-7.5v-5.957031c0-3.742188-3.042969-6.785157-6.785156-6.785157h-11.832032c-3.742187 0-6.785156 3.042969-6.785156 6.785157 0 1.8125.707031 3.515624 1.988281 4.796874l32.035157 32.035157c4.113281 4.113281 6.378906 9.585937 6.378906 15.40625 0 12.007812-9.769532 21.78125-21.785156 21.78125zm0 0"/><path d="m266.234375 57.269531c-4.144531 0-7.5-3.359375-7.5-7.5v-12.414062c0-4.144531 3.355469-7.5 7.5-7.5 4.140625 0 7.5 3.355469 7.5 7.5v12.414062c0 4.140625-3.359375 7.5-7.5 7.5zm0 0"/><path d="m266.234375 150.488281c-4.144531 0-7.5-3.355469-7.5-7.5v-12.414062c0-4.140625 3.355469-7.5 7.5-7.5 4.140625 0 7.5 3.359375 7.5 7.5v12.414062c0 4.144531-3.359375 7.5-7.5 7.5zm0 0"/></g><path d="m83.105469 282.667969c-19.359375 0-38.722657-7.367188-53.460938-22.109375-14.28125-14.277344-22.144531-33.265625-22.144531-53.460938 0-9.765625 7.914062-17.679687 17.679688-17.679687 9.765624 0 17.683593 7.914062 17.683593 17.679687 0 10.75 4.183594 20.855469 11.785157 28.457032 15.695312 15.695312 41.226562 15.691406 56.917968 0 6.90625-6.902344 18.101563-6.90625 25.003906 0 6.90625 6.90625 6.90625 18.101562 0 25.003906-14.738281 14.742187-34.101562 22.109375-53.464843 22.109375zm0 0" fill="#80bbe6"/><path d="m385.863281 504.976562h-24.476562c-13.933594 0-25.234375-11.296874-25.234375-25.230468v-79.109375h74.941406v79.109375c0 13.933594-11.296875 25.230468-25.230469 25.230468zm0 0" fill="#76acd4"/><path d="m336.15625 471.371094v8.371094c0 13.9375 11.296875 25.234374 25.230469 25.234374h24.476562c13.933594 0 25.234375-11.296874 25.234375-25.234374v-8.371094zm0 0" fill="#495059"/><path d="m399.605469 201.050781c5.03125 0 9.183593 2.507813 11.664062 6.136719l43.734375 72.933594c7.445313 12.410156 25.4375 12.410156 32.878906 0l10.789063-17.992188c16.121094-26.882812-3.242187-61.078125-34.59375-61.078125zm0 0" fill="#7397da"/><path d="m169.144531 504.976562h-24.476562c-13.933594 0-25.230469-11.296874-25.230469-25.230468v-79.109375h74.9375v79.109375c0 13.933594-11.296875 25.230468-25.230469 25.230468zm0 0" fill="#76acd4"/><path d="m119.4375 471.371094v8.371094c0 13.9375 11.296875 25.234374 25.230469 25.234374h24.476562c13.933594 0 25.230469-11.296874 25.230469-25.234374v-8.371094zm0 0" fill="#495059"/><path d="m284.023438 504.976562h-24.476563c-13.933594 0-25.230469-11.296874-25.230469-25.230468v-79.109375h74.9375v79.109375c0 13.933594-11.292968 25.230468-25.230468 25.230468zm0 0" fill="#76acd4"/><path d="m234.316406 471.371094v8.371094c0 13.9375 11.296875 25.234374 25.234375 25.234374h24.472657c13.933593 0 25.230468-11.296874 25.230468-25.234374v-8.371094zm0 0" fill="#495059"/><path d="m266.234375 155.996094c166.042969 0 208.636719 57.363281 208.636719 159.207031 0 72.65625-42.59375 133.195313-208.636719 133.195313-166.046875 0-208.640625-60.539063-208.640625-133.195313 0-101.84375 42.59375-159.207031 208.640625-159.207031zm0 0" fill="#80bbe6"/><path d="m266.234375 448.398438c25.660156 0 48.367187-1.449219 68.429687-4.164063-199.742187 2.15625-262.027343-193.910156-174.816406-276.691406-79.011718 21.507812-102.253906 72.453125-102.253906 147.660156 0 72.65625 42.59375 133.195313 208.640625 133.195313zm0 0" fill="#76acd4"/><path d="m238.421875 201.050781c-5.03125 0-9.179687 2.507813-11.664063 6.136719l-43.734374 72.933594c-7.445313 12.410156-25.433594 12.410156-32.878907 0l-10.785156-17.992188c-16.125-26.882812 3.242187-61.078125 34.589844-61.078125zm0 0" fill="#7397da"/><path d="m254.816406 215.082031-4.730468-7.894531c-2.484376-3.625-6.632813-6.136719-11.664063-6.136719s-9.179687 2.511719-11.664063 6.136719l-21.867187 36.464844h33.746094c6.628906 0 12.773437-3.476563 16.179687-9.164063 3.582032-5.972656 3.582032-13.433593 0-19.40625zm0 0" fill="#fff"/><path d="m305.246094 289.894531c0-13.449219-13.691406-24.347656-30.578125-24.347656s-30.578125 10.898437-30.578125 24.347656 13.691406 24.351563 30.578125 24.351563 30.578125-10.902344 30.578125-24.351563zm0 0" fill="#fff"/><path d="m470.984375 289.894531c0-13.449219-13.691406-24.347656-30.578125-24.347656s-30.578125 10.898437-30.578125 24.347656 13.691406 24.351563 30.578125 24.351563 30.578125-10.902344 30.578125-24.351563zm0 0" fill="#fff"/><path d="m357.535156 342.941406c29.285156 0 42.355469-6.671875 42.066406-22.523437-.464843-25.378907-18.832031-58.96875-42.066406-58.96875-23.230468 0-41.601562 33.589843-42.066406 58.96875-.289062 15.851562 12.785156 22.523437 42.066406 22.523437zm0 0" fill="#7397da"/><path d="m345.386719 319.996094c-4.144531 0-7.5-3.355469-7.5-7.5v-10.300782c0-4.140624 3.355469-7.5 7.5-7.5 4.140625 0 7.496093 3.359376 7.496093 7.5v10.300782c0 4.144531-3.355468 7.5-7.496093 7.5zm0 0" fill="#6988c4"/><path d="m369.6875 319.996094c-4.144531 0-7.5-3.355469-7.5-7.5v-10.300782c0-4.140624 3.355469-7.5 7.5-7.5s7.5 3.359376 7.5 7.5v10.300782c0 4.144531-3.355469 7.5-7.5 7.5zm0 0" fill="#6988c4"/><path d="m256.273438 202.953125c-4.027344-5.886719-10.699219-9.402344-17.851563-9.402344h-64.472656c-17.460938 0-33.019531 9.070313-41.621094 24.261719-8.605469 15.191406-8.382813 33.203125.597656 48.175781l10.789063 17.988281c4.863281 8.109376 13.410156 12.953126 22.871094 12.953126 9.457031 0 18.003906-4.84375 22.871093-12.953126l19.683594-32.824218h29.496094c9.207031 0 17.875-4.90625 22.613281-12.804688 5.015625-8.367187 5.015625-18.757812 0-27.125l-4.734375-7.894531c-.078125-.125-.15625-.253906-.242187-.375zm-79.683594 73.308594c-2.15625 3.605469-5.804688 5.667969-10.003906 5.667969-4.199219 0-7.847657-2.0625-10.007813-5.667969l-10.789063-17.988281c-6.164062-10.277344-6.316406-22.640626-.410156-33.070313 5.90625-10.425781 16.585938-16.652344 28.570313-16.652344h43.25zm71.796875-45.632813c-2.042969 3.40625-5.78125 5.523438-9.75 5.523438h-20.503907l14.921876-24.878906c.785156-1.082032 2.453124-2.722657 5.367187-2.722657s4.582031 1.640625 5.367187 2.722657l4.597657 7.664062c2.164062 3.605469 2.164062 8.085938 0 11.691406zm36.601562 24.175782v10.800781c0 4.140625 3.355469 7.5 7.5 7.5 4.140625 0 7.5-3.359375 7.5-7.5v-10.800781c0-4.140626-3.359375-7.5-7.5-7.5-4.144531 0-7.5 3.359374-7.5 7.5zm220.714844-36.992188c-8.601563-15.191406-24.164063-24.261719-41.625-24.261719h-24.3125c-.679687-.613281-1.355469-1.226562-2.050781-1.824219-24.316406-20.964843-58.890625-33.957031-106.566406-39.726562 15.726562-16.523438 24.757812-38.601562 24.757812-61.828125 0-49.445313-40.226562-89.671875-89.671875-89.671875-20.472656 0-40.492187 7.078125-56.375 19.933594-3.222656 2.605468-3.71875 7.328125-1.113281 10.546875 2.605468 3.222656 7.328125 3.71875 10.546875 1.113281 13.222656-10.703125 29.894531-16.59375 46.941406-16.59375 41.175781 0 74.671875 33.496094 74.671875 74.671875 0 23.597656-11.191406 45.773437-30.0625 59.863281-13.867188-1.03125-28.710938-1.542968-44.609375-1.542968s-30.742187.511718-44.609375 1.542968c-18.871094-14.089844-30.0625-36.265625-30.0625-59.863281 0-11.726563 2.636719-22.949219 7.84375-33.355469 1.851562-3.703125.351562-8.207031-3.351562-10.0625-3.707032-1.847656-8.210938-.351562-10.0625 3.355469-6.257813 12.507813-9.429688 25.984375-9.429688 40.0625 0 23.226563 9.03125 45.304687 24.757812 61.828125-47.675781 5.769531-82.25 18.765625-106.566406 39.726562-13.230468 11.40625-23.386718 25.261719-30.652344 42.03125-1.464843-1.046874-2.855468-2.210937-4.148437-3.503906-6.1875-6.1875-9.589844-14.410156-9.589844-23.15625 0-13.882812-11.296875-25.179687-25.183593-25.179687-13.882813 0-25.179688 11.296875-25.179688 25.179687 0 22.199219 8.644531 43.070313 24.339844 58.765625 7.90625 7.90625 17.082031 13.984375 27.328125 18.136719-1.050781 9.746094-1.570313 20.132812-1.570313 31.203125 0 50.855469 20.414063 87.667969 61.839844 110.851563v53.691406c0 18.046875 14.6875 32.730468 32.734375 32.730468h24.472656c18.046875 0 32.730469-14.683593 32.730469-32.730468v-27.433594c7.996094.976562 16.304688 1.757812 24.941406 2.335938v25.097656c0 18.046875 14.683594 32.730468 32.730469 32.730468h24.476563c18.046874 0 32.730468-14.683593 32.730468-32.730468v-25.941406c4.039063-.359376 8.015625-.757813 11.898438-1.210938v27.152344c0 18.046875 14.6875 32.730468 32.734375 32.730468h24.472656c18.046875 0 32.730469-14.683593 32.730469-32.730468v-52.542969c11.867187-6.445313 22.070312-13.992187 30.660156-22.65625 2.917969-2.941406 2.898438-7.691406-.042969-10.605469-2.941406-2.917968-7.691406-2.898437-10.609375.042969-30.867187 31.128906-88.859375 46.914063-172.367187 46.914063-74.980469 0-129.488281-12.714844-162.007813-37.789063-26.332031-20.308594-39.128906-49.058594-39.128906-87.90625 0-12.742187.683594-24.390625 2.078125-35.078125.023437-.160156.046875-.320312.0625-.480469 1.554687-11.746093 3.976563-22.324219 7.324219-31.859375.101562-.195312.195312-.394531.28125-.601562.148437-.359375.253906-.726563.34375-1.09375 6.457031-17.570313 16.125-31.59375 29.359375-43 30.902343-26.644532 83.792969-39.597656 161.6875-39.597656 77.890625 0 130.78125 12.953124 161.6875 39.597656 1.222656 1.050781 2.402343 2.132812 3.5625 3.230468.042969.046876.09375.089844.136719.132813 20.394531 19.355469 31.488281 45.820313 34.726562 83.488281.007812.085938.007812.167969.019531.253906.003907.019532.007813.039063.011719.058594.660156 7.824219.992188 16.125.992188 24.949219 0 20.183594-3.34375 37.230469-10.226563 52.125-1.734375 3.757813-.09375 8.214844 3.664063 9.953125 3.761718 1.734375 8.21875.09375 9.953124-3.664062 7.8125-16.90625 11.609376-36.015626 11.609376-58.414063 0-7.050781-.214844-13.816406-.640626-20.324219 5.191407-2.152344 9.59375-5.921875 12.582032-10.902344l10.789062-17.988281c8.984375-14.972656 9.207032-32.984375.605469-48.175781zm-451.828125 50.777344c-7.007812-3.308594-13.355469-7.757813-18.925781-13.332032-12.867188-12.863281-19.949219-29.96875-19.949219-48.160156 0-5.613281 4.566406-10.183594 10.179688-10.183594 5.613281 0 10.183593 4.566407 10.183593 10.183594 0 12.753906 4.964844 24.742188 13.980469 33.761719 2.859375 2.859375 6.023438 5.308594 9.453125 7.335937-1.988281 6.417969-3.621094 13.210938-4.921875 20.394532zm289.78125 181.964844c22.886719-3.574219 42.828125-8.953126 59.9375-16.171876v29.488282h-59.9375zm0 28.316406h59.9375v.871094c0 9.78125-7.953125 17.734374-17.730469 17.734374h-24.476562c-9.777344 0-17.730469-7.953124-17.730469-17.734374zm-101.839844-23.441406c7.894532.308593 16.027344.46875 24.417969.46875 12.410156 0 24.234375-.339844 35.519531-.996094v8.96875h-59.9375zm0 23.441406h59.9375v.871094c0 9.78125-7.953125 17.734374-17.730468 17.734374h-24.476563c-9.777344 0-17.730469-7.953124-17.730469-17.734374zm-114.878906-45.410156c17.089844 7.421874 37.050781 12.996093 59.9375 16.726562v13.683594h-59.9375zm0 45.410156h59.9375v.871094c0 9.78125-7.953125 17.734374-17.730469 17.734374h-24.472656c-9.777344 0-17.734375-7.953124-17.734375-17.734374zm365.300781-220.597656-10.789062 17.988281c-.421875.707031-.882813 1.316406-1.363281 1.855469-3.824219-28.59375-12.503907-51.417969-26.449219-69.566407h10.441406c11.984375 0 22.667969 6.226563 28.574219 16.652344 5.902344 10.429687 5.75 22.792969-.414063 33.070313zm-69.652343-10.96875c-4.144532 0-7.5 3.359374-7.5 7.5v10.800781c0 4.140625 3.355468 7.5 7.5 7.5 4.140624 0 7.5-3.359375 7.5-7.5v-10.800781c0-4.140626-3.359376-7.5-7.5-7.5zm-65.050782 6.644531c-29.515625 0-49.066406 39.285156-49.5625 66.332031-.140625 7.664062 2.203125 14.011719 6.964844 18.863281 7.671875 7.8125 20.8125 11.296875 42.601562 11.296875 21.785157 0 34.925782-3.480468 42.597657-11.296875 4.761719-4.851562 7.105469-11.199219 6.964843-18.863281-.257812-14.148438-5.386718-30.210938-13.714843-42.964844-9.839844-15.066406-22.570313-23.367187-35.851563-23.367187zm31.894532 74.6875c-4.433594 4.515625-15.164063 6.808593-31.894532 6.808593-16.726562 0-27.457031-2.292968-31.894531-6.808593-1.1875-1.210938-2.757813-3.367188-2.671875-8.082031.207031-11.277344 4.527344-24.699219 11.277344-35.039063 6.875-10.527344 15.363281-16.566406 23.289062-16.566406 7.929688 0 16.417969 6.039062 23.292969 16.566406 6.75 10.339844 11.070313 23.761719 11.277344 35.039063.085937 4.714843-1.484375 6.871093-2.675781 8.082031zm0 0"/></svg>