<svg id="Layer_1" height="512" viewBox="0 0 512 512" width="512" xmlns="http://www.w3.org/2000/svg" data-name="Layer 1"><g id="_Group_4" data-name=" Group 4"><path d="m471.32 280.99a41.076 41.076 0 0 1 -28.12 70.12v-82.15a40.89 40.89 0 0 1 28.12 12.03z" fill="#00efd1"/><path d="m443.2 351.11v94.23a30 30 0 0 1 -30 30h-314.4a30 30 0 0 1 -30-30v-236.35a30 30 0 0 1 30-30h314.4a30 30 0 0 1 30 30zm-85.65-52.07v-52.86h-52.86v52.86zm-8.54 128.6v-81.73h-186.02v81.73zm-141.7-128.6v-52.86h-52.86v52.86z" fill="#00acea"/><path d="m145.25 129.34h221.5v49.65h-221.5z" fill="#00efd1"/><path d="m304.69 246.18h52.86v52.86h-52.86z" fill="#00efd1"/><path d="m304 345.91h45.01v81.73h-45.01z" fill="#f4b844"/><path d="m256 345.91h48v81.73h-48z" fill="#fedb41"/><circle cx="256" cy="57.73" fill="#00efd1" r="21.07"/><path d="m208 345.91h48v81.73h-48z" fill="#f4b844"/><path d="m162.99 345.91h45.01v81.73h-45.01z" fill="#fedb41"/><path d="m154.45 246.18h52.86v52.86h-52.86z" fill="#00efd1"/><path d="m68.8 268.96v82.15a41.086 41.086 0 0 1 0-82.15z" fill="#00efd1"/><g fill="#083863"><path d="m449 263.463v-54.473a35.862 35.862 0 0 0 -35.8-35.99h-40.2v-43.66a6.516 6.516 0 0 0 -6.25-6.34h-105.75v-38.671a27.063 27.063 0 1 0 -12-.452v39.123h-103.75a6.516 6.516 0 0 0 -6.25 6.34v43.66h-40.2a35.862 35.862 0 0 0 -35.8 35.99v54.477a47.067 47.067 0 0 0 0 93.138v88.735a35.581 35.581 0 0 0 35.8 35.66h314.4a35.581 35.581 0 0 0 35.8-35.66v-88.74a47.433 47.433 0 0 0 26.813-13.622 47.091 47.091 0 0 0 -26.813-79.515zm-208.07-205.733a15.07 15.07 0 1 1 15.07 15.07 15.087 15.087 0 0 1 -15.07-15.07zm-206.19 252.31a34.868 34.868 0 0 1 10.336-24.81 34.011 34.011 0 0 1 17.924-9.586v68.769a35.407 35.407 0 0 1 -28.26-34.373zm116.26-175.04h210v38h-210zm286 310.34a23.569 23.569 0 0 1 -23.8 23.66h-314.4a23.569 23.569 0 0 1 -23.8-23.66v-236.35a23.849 23.849 0 0 1 23.8-23.99h314.4a23.849 23.849 0 0 1 23.8 23.99zm12-100.935v-68.765a34.129 34.129 0 0 1 17.98 9.6 34.772 34.772 0 0 1 10.23 24.8 35.383 35.383 0 0 1 -28.21 34.365z"/><path d="m355 346a6 6 0 0 0 -6-6h-186a6 6 0 0 0 -6 6v82a6 6 0 0 0 6 6h186a6 6 0 0 0 6-6zm-93 6h36v70h-36zm-12 70h-36v-70h36zm-81-70h33v70h-33zm174 70h-33v-70h33z"/><path d="m213 246a6 6 0 0 0 -6-6h-53a6 6 0 0 0 -6 6v53a6 6 0 0 0 6 6h53a6 6 0 0 0 6-6zm-12 47h-41v-41h41z"/><path d="m364 246a6 6 0 0 0 -6-6h-53a6 6 0 0 0 -6 6v53a6 6 0 0 0 6 6h53a6 6 0 0 0 6-6zm-12 47h-41v-41h41z"/></g></g></svg>