<svg height="511pt" viewBox="0 0 511.99945 511" width="511pt" xmlns="http://www.w3.org/2000/svg"><path d="m183.082031 420.238281-26.589843-64.4375-64.433594-26.589843s-109.3125 21.558593-79.367188 159.152343c1.222656 5.613281 5.625 10.019531 11.238282 11.238281 137.597656 29.949219 159.152343-79.363281 159.152343-79.363281zm0 0" fill="#f9da60"/><path d="m183.082031 420.238281-26.589843-64.4375-15.015626-6.195312 20.394532 49.417969s-20.6875 104.871093-150.84375 81.027343c.5 2.726563 1.050781 5.492188 1.664062 8.3125 1.222656 5.613281 5.625 10.019531 11.238282 11.238281 137.597656 29.949219 159.152343-79.363281 159.152343-79.363281zm0 0" fill="#ffb258"/><path d="m123.640625 348.246094.011719.011718c.210937-.054687.339844-.085937.355468-.089843-.242187.054687-.367187.078125-.367187.078125zm40.414063 40.414062-40.402344-40.402344c-3 .773438-24.394532 6.902344-36.65625 26.84375-7.667969 12.46875-10.824219 28.453126-9.453125 47.71875.457031 6.382813 5.566406 11.480469 11.949219 11.9375 19.582031 1.390626 35.765624-1.894531 48.324218-9.839843 20.871094-13.207031 26.195313-36.035157 26.238282-36.257813zm0 0" fill="#ff6881"/><path d="m221.726562 75.933594c-55.382812-28.800782-120.722656-.523438-150.589843 15.871094-8.484375 4.660156-10.121094 16.15625-3.273438 23l61.941407 61.945312zm0 0" fill="#4d9ae8"/><path d="m436.363281 290.570312c28.800781 55.378907.523438 120.71875-15.875 150.585938-4.65625 8.488281-16.152343 10.121094-23 3.277344l-61.941406-61.941406zm0 0" fill="#4d9ae8"/><path d="m483.0625 198.191406-62.324219-106.636718-106.636719-62.324219c-45.320312 15.195312-92.6875 40.5625-134.359374 82.230469-42.214844 42.21875-68.808594 94.824218-85.554688 144.191406l62.304688 100.152344 100.152343 62.304687c49.367188-16.746094 101.972657-43.339844 144.1875-85.558594 41.671875-41.667969 67.035157-89.039062 82.230469-134.359375zm0 0" fill="#ececee"/><path d="m483.0625 198.191406-62.324219-106.636718-13.386719-7.824219 54.5 93.246093c-15.195312 45.324219-40.5625 92.691407-82.230468 134.359376-42.21875 42.21875-94.820313 68.8125-144.1875 85.558593l-87.074219-54.171875 8.132813 13.078125 100.152343 62.304688c49.367188-16.746094 101.972657-43.335938 144.1875-85.554688 41.671875-41.667969 67.035157-89.039062 82.230469-134.359375zm0 0" fill="#dadadc"/><path d="m94.1875 255.652344c-4.5625 13.441406-8.394531 26.648437-11.609375 39.34375-3.109375 12.269531.53125 25.265625 9.480469 34.214844l91.023437 91.027343c8.949219 8.949219 21.949219 12.585938 34.21875 9.480469 12.691407-3.21875 25.902344-7.050781 39.34375-11.609375zm0 0" fill="#4d9ae8"/><path d="m235.433594 396.894531c-13.445313 4.5625-26.652344 8.390625-39.347656 11.609375-12.269532 3.109375-25.265626-.53125-34.214844-9.480468l21.210937 21.210937c8.949219 8.953125 21.949219 12.589844 34.21875 9.480469 12.691407-3.214844 25.902344-7.046875 39.34375-11.609375zm0 0" fill="#217edb"/><path d="m483.0625 198.191406-168.960938-168.960937c65.078126-21.824219 125.945313-22.679688 159.660157-20.761719 16.199219.917969 29.144531 13.867188 30.066406 30.0625 1.914063 33.71875 1.0625 94.585938-20.765625 159.660156zm0 0" fill="#ff6881"/><path d="m503.828125 38.53125c-.773437-13.597656-10.023437-24.898438-22.554687-28.722656.730468 2.394531 1.195312 4.910156 1.339843 7.511718 1.914063 33.71875 1.0625 94.582032-20.761719 159.65625l21.210938 21.214844c21.828125-65.074218 22.679688-125.941406 20.765625-159.660156zm0 0" fill="#de4b64"/><path d="m397.890625 223.679688c0 60.351562-48.921875 109.273437-109.273437 109.273437-60.351563 0-109.277344-48.921875-109.277344-109.273437 0-60.351563 48.925781-109.277344 109.277344-109.277344 60.351562 0 109.273437 48.925781 109.273437 109.277344zm0 0" fill="#bebebf"/><path d="m363.855469 223.679688c0 41.554687-33.6875 75.238281-75.238281 75.238281-41.554688 0-75.238282-33.683594-75.238282-75.238281 0-41.554688 33.683594-75.238282 75.238282-75.238282 41.550781 0 75.238281 33.683594 75.238281 75.238282zm0 0" fill="#6dd1e0"/><path d="m206.0625 141.292969c-45.53125 45.527343-45.53125 119.613281 0 165.144531 22.054688 22.054688 51.378906 34.203125 82.570312 34.203125 31.191407 0 60.519532-12.148437 82.574219-34.203125 22.054688-22.054688 34.203125-51.382812 34.203125-82.574219 0-31.191406-12.148437-60.515625-34.203125-82.570312-45.011719-45.011719-120.175781-44.972657-165.144531 0zm184.347656 82.570312c0 27.1875-10.585937 52.746094-29.808594 71.96875-19.226562 19.222657-44.78125 29.808594-71.96875 29.808594-27.183593 0-52.742187-10.585937-71.964843-29.808594-34.132813-34.132812-37.347657-88.046875-11.390625-127.96875 34.523437-53.089843 110.628906-60.660156 155.324218-15.964843 19.222657 19.222656 29.808594 44.78125 29.808594 71.964843zm0 0"/><path d="m230.128906 282.371094c31.886719 31.886718 85.160156 31.851562 117.011719 0 32.261719-32.261719 32.261719-84.75 0-117.011719-40.46875-40.46875-108.8125-27.261719-132.5 23.867187-14.457031 31.207032-9.042969 68.613282 15.488281 93.144532zm58.503906-126.246094c18.09375 0 35.105469 7.046875 47.902344 19.839844 26.410156 26.414062 26.410156 69.386718 0 95.800781-26.117187 26.117187-69.707031 26.09375-95.800781 0-26.410156-26.414063-26.410156-69.386719 0-95.800781 12.792969-12.792969 29.804687-19.839844 47.898437-19.839844zm0 0"/><path d="m255.070312 197.886719c1.941407 0 3.878907-.714844 5.304688-2.140625l6.0625-6.0625c2.929688-2.925782 2.929688-7.675782 0-10.605469s-7.679688-2.929687-10.605469 0l-6.0625 6.0625c-2.929687 2.929687-2.929687 7.675781-.003906 10.605469 1.429687 1.425781 3.367187 2.140625 5.304687 2.140625zm0 0"/><path d="m322.054688 264.902344c1.929687 0 3.855468-.722656 5.304687-2.171875l6.0625-6.0625c2.925781-2.925781 2.925781-7.675781 0-10.605469-2.929687-2.929688-7.679687-2.929688-10.605469 0l-6.0625 6.0625c-2.929687 2.929688-2.929687 7.679688 0 10.605469 1.449219 1.449219 3.375 2.171875 5.300782 2.171875zm0 0"/><path d="m296.273438 239.3125c4.597656 0 8.796874-3.019531 8.460937-8.035156-.277344-4.132813-3.84375-7.261719-7.984375-6.980469-2.203125.140625-4.425781-.738281-6.117188-2.425781-1.691406-1.691406-2.578124-3.921875-2.429687-6.121094.277344-4.132812-2.847656-7.707031-6.980469-7.984375-4.136718-.269531-7.707031 2.847656-7.984375 6.980469-.4375 6.515625 2.035157 12.976562 6.789063 17.730468 4.390625 4.390626 10.242187 6.835938 16.246094 6.835938zm0 0"/><path d="m474.207031 1.164062c-31.757812-1.800781-95.09375-1.453124-162.472656 21.144532-33.011719 11.066406-63.339844 26.175781-90.671875 45.125-15.832031-7.425782-33.445312-11.199219-52.433594-11.199219-41.695312 0-81.230468 18.285156-101.082031 29.183594-12.679687 6.960937-15.167969 24.679687-4.96875 34.878906l57.871094 57.871094c-12.9375 22.828125-24.082031 47.953125-33.347657 75.265625-4.359374 12.851562-8.324218 26.277344-11.773437 39.90625-2.75 10.84375-1.078125 22.289062 4.292969 31.882812-14.789063 5.21875-41.289063 17.945313-59.757813 46.082032-20.105469 30.628906-24.976562 70.613281-14.480469 118.839843 1.84375 8.46875 8.503907 15.132813 16.972657 16.972657 52.417969 11.40625 111.273437 5.203124 146.140625-39.820313 9.960937-12.863281 15.675781-25.691406 18.765625-34.425781 6.527343 3.660156 13.910156 5.609375 21.382812 5.609375 3.515625 0 7.046875-.429688 10.515625-1.308594 40.042969-10.144531 79.183594-24.726563 115.171875-45.121094 0 0 57.835938 57.835938 57.871094 57.871094 10.207031 10.207031 27.933594 7.683594 34.878906-4.972656 8.570313-15.609375 19.976563-40.050781 25.65625-67.832031 6.5625-32.09375 3.976563-60.890626-7.667969-85.6875 18.949219-27.332032 34.054688-57.65625 45.121094-90.667969 22.597656-67.375 22.945313-130.710938 21.144532-162.46875-1.140626-20.027344-17.101563-35.988281-37.128907-37.128907zm-401.023437 108.523438c-3.261719-3.261719-2.46875-8.898438 1.582031-11.121094 18.59375-10.207031 55.511719-27.332031 93.863281-27.332031 13.695313 0 26.535156 2.191406 38.316406 6.53125-.132812.101563-.261718.210937-.394531.3125-16.160156 12.511719-31.25 26.460937-44.789062 41.78125-12.390625 14.015625-23.515625 29.121094-33.40625 45 0 0-55.085938-55.085937-55.171875-55.171875zm78.433594 289.859375c-3.542969 6.363281-9.164063 13.757813-17.792969 19.21875-11.121094 7.035156-25.90625 9.964844-43.78125 8.695313-2.660157-.1875-4.8125-2.332032-5-4.988282-1.257813-17.640625 1.554687-32.195312 8.359375-43.257812 5.453125-8.871094 13.046875-14.648438 19.597656-18.285156zm4.636718 59.054687c-31.296875 39.921876-84.53125 43.910157-130.710937 33.859376-2.746094-.597657-4.90625-2.757813-5.503907-5.503907-9.585937-44.042969-5.464843-80.121093 12.242188-107.234375 18.558594-28.414062 47.335938-39.007812 57.523438-41.992187l12.257812 12.257812c-7.386719 4.664063-15.371094 11.507813-21.4375 21.371094-8.476562 13.789063-12.027344 31.34375-10.542969 52.179687.714844 10.050782 8.839844 18.167969 18.898438 18.882813 18.15625 1.292969 37.21875-1.078125 52.867187-10.980469 9.53125-6.035156 16.167969-13.792968 20.710938-20.957031l12.21875 12.21875c-1.957032 6.703125-7.171875 21.417969-18.523438 35.898437zm278.484375-153.054687c7.402344 20.070313 8.519531 43.070313 3.308594 68.566406-5.304687 25.941407-16.039063 48.914063-24.113281 63.617188-2.222656 4.054687-7.867188 4.835937-11.121094 1.582031l-55.171875-55.167969c14.996094-9.34375 28.902344-19.519531 41.675781-30.507812 16.640625-14.3125 31.65625-30.410157 45.132813-47.726563.09375-.121094.191406-.242187.289062-.363281zm44.925781-121.195313-105.339843-105.335937c-2.929688-2.929687-7.675781-2.929687-10.605469 0s-2.929688 7.675781 0 10.605469l110.753906 110.753906c-17.632812 50.480469-46.757812 97.179688-85.890625 133.785156-.042969.042969-.089843.085938-.136719.128906-36.992187 34.433594-82.3125 58.769532-129.792968 75.386719l-31.996094-31.996093c-2.929688-2.929688-7.679688-2.929688-10.605469 0-2.929687 2.929687-2.929687 7.679687 0 10.605468l26.660157 26.664063c-8.898438 2.773437-18.015626 5.347656-27.234376 7.683593-9.625 2.4375-20-.441406-27.070312-7.511718l-91.027344-91.027344c-7.074218-7.070312-9.953125-17.445312-7.511718-27.070312 2.332031-9.21875 4.90625-18.335938 7.683593-27.234376 0 0 97.289063 97.285157 97.40625 97.40625 2.867188 2.867188 7.746094 2.859376 10.609375 0 2.925782-2.929687 2.925782-7.675781 0-10.605468l-102.742187-102.742188c16.574219-47.363281 40.914062-92.792968 75.28125-129.679687.082031-.089844.164062-.179688.246093-.269531 36.324219-38.882813 83.363282-68.265626 133.773438-85.871094l30.484375 30.484375c2.925781 2.929687 7.675781 2.929687 10.605469 0 2.929687-2.929688 2.929687-7.679688 0-10.605469l-25.070313-25.070312c60.578125-18.136719 116.367188-18.332032 145.207031-16.695313 12.410157.707031 22.296876 10.59375 23.003907 23.003906 1.640625 28.839844 1.445312 84.632813-16.691407 145.207031zm0 0"/></svg>