<?xml version="1.0"?>
<svg xmlns="http://www.w3.org/2000/svg" height="512px" viewBox="0 0 511 511.99793" width="512px"><g transform="matrix(-1 0 0 1 511 0)"><script xmlns=""/><script xmlns=""/><path d="m310.445312 446.136719c0-20.617188 16.734376-37.328125 37.363282-37.28125 20.691406.042969 37.78125 17.796875 37.183594 38.480469-.683594 23.648437-21.371094 43.980468-37.15625 55.519531-4.488282 3.285156-10.851563 1.429687-12.949219-3.71875-9.265625-22.765625-22.347657-29.324219-24.441407-53zm0 0" fill="#eda1ab" data-original="#EDA1AB"/><path d="m394.632812 267.652344c-26.554687 55.316406-71.167968 99.929687-126.484374 126.484375-11.578126 5.554687-25.398438 3.199219-34.480469-5.882813l-172.597657-172.597656 155.085938-155.082031 172.597656 172.59375c9.078125 9.082031 11.4375 22.90625 5.878906 34.484375zm0 0" fill="#a3defe" data-original="#A3DEFE"/><path d="m501.089844 393.714844-7.398438 7.398437c-5.199218 5.203125-13.636718 5.203125-18.839844 0l-127.914062-127.910156 26.242188-26.242187 127.910156 127.914062c5.203125 5.203125 5.203125 13.636719 0 18.839844zm0 0" fill="#e1b89a" data-original="#E1B89A"/><path d="m395.453125 321.71875c7.140625-10.585938 13.550781-21.714844 19.167969-33.316406l-41.441406-41.441406-26.242188 26.242187zm0 0" fill="#d2996f" data-original="#D2996F"/><path d="m233.667969 388.253906c9.082031 9.082032 22.902343 11.4375 34.480469 5.882813 37.921874-18.207031 70.8125-44.902344 96.304687-77.710938-64.015625 19.375-136.582031-28.855469-187.957031-83.839843 38.25-32.480469 71.398437-70.71875 98.226562-113.445313l-58.566406-58.566406-155.085938 155.082031zm0 0" fill="#7acefa" data-original="#7ACEFA"/><path d="m394.632812 267.652344c5.558594-11.578125 3.199219-25.402344-5.878906-34.480469l-63.011718-63.011719c-1.394532 100.828125-40.359376 192.597656-61.597657 225.542969 1.355469-.425781 2.695313-.9375 4.003907-1.566406 55.316406-26.554688 99.929687-71.167969 126.484374-126.484375zm0 0" fill="#f7ef87" data-original="#F7EF87"/><path d="m96.480469 251.066406 69.496093 69.496094c25.25-55.195312 54.695313-152.992188 40.695313-250.503906l-84.460937 84.460937c-5.925782 36.078125-15.535157 69.1875-25.730469 96.546875zm0 0" fill="#f7ef87" data-original="#F7EF87"/><path d="m96.480469 251.066406 69.496093 69.496094c8.878907-19.402344 18.265626-44.089844 26.109376-72.160156-5.378907-5.171875-10.585938-10.460938-15.589844-15.816406 8.511718-7.226563 16.765625-14.734376 24.761718-22.515626 8.609376-43.257812 12.355469-91.664062 5.414063-140.011718l-84.460937 84.460937c-5.925782 36.078125-15.535157 69.1875-25.730469 96.546875zm0 0" fill="#efd176" data-original="#EFD176"/><path d="m269.90625 75.570312c-44.949219 81.667969-112.167969 148.890626-193.839844 193.839844-14.355468 7.902344-32.21875-.71875-34.96875-16.875l-32.410156-190.457031c-5.398438-31.730469 22.15625-59.289063 53.886719-53.886719l190.460937 32.410156c16.15625 2.746094 24.773438 20.609376 16.871094 34.96875zm0 0" fill="#b49cdc" data-original="#B49CDC"/><path d="m11.875 35.640625c-3.464844 7.941406-4.792969 17-3.1875 26.4375l32.410156 190.457031c2.75 16.15625 20.613282 24.773438 34.96875 16.875 57.039063-31.394531 107.019532-73.664062 147.300782-124.125-96.417969 61.554688-188.910157-28.691406-211.492188-109.644531zm0 0" fill="#908cd6" data-original="#908CD6"/><path d="m103.652344 181.074219c-10.019532-10.019531-28.339844-7.941407-40.921875 4.640625-12.578125 12.582031-14.65625 30.902344-4.636719 40.921875 10.015625 10.019531 28.339844 7.941406 40.917969-4.640625 12.582031-12.582032 14.660156-30.902344 4.640625-40.921875zm0 0" fill="#fff" data-original="#FFF"/><path d="m181.574219 103.15625c10.019531 10.019531 28.339843 7.941406 40.921875-4.640625 12.582031-12.582031 14.660156-30.902344 4.640625-40.921875s-28.339844-7.941406-40.921875 4.640625c-12.582032 12.582031-14.660156 30.902344-4.640625 40.921875zm0 0" fill="#fff" data-original="#FFF"/><path d="m268.148438 394.136719c37.925781-18.207031 70.8125-44.902344 96.304687-77.710938-20.933594 6.335938-42.78125 5.449219-64.503906-.546875-12.039063 36.09375-25.863281 64.402344-35.800781 79.824219 1.351562-.429687 2.691406-.941406 4-1.566406zm0 0" fill="#efd176" data-original="#EFD176"/><path d="m331.023438 434.226562c0-9.234374 7.496093-16.722656 16.738281-16.703124 9.269531.019531 16.929687 7.976562 16.660156 17.242187-.304687 10.597656-9.574219 19.707031-16.648437 24.875-2.011719 1.472656-4.859376.640625-5.800782-1.667969-4.152344-10.199218-10.011718-13.136718-10.949218-23.746094zm0 0" fill="#f7ef87" data-original="#F7EF87"/><path d="m62.707031 159.132812c-2.929687 2.929688-2.929687 7.679688 0 10.609376l8.042969 8.042968c1.464844 1.464844 3.386719 2.195313 5.304688 2.195313 1.917968 0 3.839843-.730469 5.304687-2.195313 2.929687-2.929687 2.929687-7.679687 0-10.605468l-8.046875-8.046876c-2.929688-2.929687-7.675781-2.929687-10.605469 0zm443.6875 210.4375-103.1875-103.1875c4.414063-13.390624 1.003907-28.359374-9.152343-38.515624l-129.011719-129.015626c3.949219-6.460937 7.769531-13.007812 11.433593-19.667968 7.488282-13.601563 3.765626-30.882813-8.660156-40.195313-3.316406-2.484375-8.015625-1.8125-10.5 1.503907-2.484375 3.3125-1.8125 8.015624 1.503906 10.5 6.476563 4.851562 8.421876 13.863281 4.515626 20.957031-4.453126 8.09375-9.136719 16.03125-14.019532 23.824219-.042968.0625-.078125.125-.117187.183593-13.769531 21.945313-29.21875 42.667969-46.1875 62.003907-.269531.261718-.515625.546874-.746094.84375-30.664063 34.789062-66.246094 65.070312-105.808594 89.894531-.0625.039062-.121093.074219-.183593.117187-7.792969 4.882813-15.730469 9.566406-23.824219 14.019532-4.6875 2.582031-10.144531 2.726562-14.960938.402343-4.820312-2.324219-8.101562-6.683593-8.996093-11.960937l-32.410157-190.460938c-2.160156-12.691406 1.820313-25.199218 10.929688-34.304687 9.105469-9.105469 21.605469-13.089844 34.304687-10.929688l168.488282 28.671875c4.082031.699219 7.957031-2.050781 8.648437-6.136718.695313-4.082032-2.050781-7.957032-6.132813-8.648438l-168.488281-28.671875c-17.550781-2.988281-34.839843 2.519531-47.429687 15.109375s-18.09375 29.878906-15.109375 47.429688l32.410156 190.460937c1.726563 10.121094 8.015625 18.488281 17.265625 22.953125 4.371094 2.105469 9.007812 3.15625 13.632812 3.15625 5.175782 0 10.332032-1.3125 15.082032-3.925781 6.65625-3.664063 13.207031-7.488281 19.667968-11.4375l129.015626 129.015625c7.230468 7.230468 16.910156 11.046875 26.71875 11.046875 5.53125 0 11.109374-1.214844 16.308593-3.710938 21.890625-10.507812 42.207031-23.859375 60.476563-39.546875 4.300781 10.527344 8.214844 23.773438 9.167968 40.5-9.40625 1.398438-18.085937 5.746094-24.945312 12.589844-8.476562 8.460938-13.148438 19.71875-13.148438 31.695312 0 .222657.011719.441407.027344.664063 1.4375 16.226563 7.453125 25.371094 13.820313 35.050781 3.820312 5.8125 7.773437 11.820313 11.148437 20.113282 1.882813 4.625 5.714844 8.058593 10.515625 9.421874 1.453125.414063 2.933594.613282 4.402344.613282 3.34375 0 6.621094-1.054688 9.402344-3.085938 1.992187-1.457031 3.972656-2.984375 5.886719-4.539062 3.214843-2.613282 3.699218-7.335938 1.085937-10.550782-2.613281-3.214843-7.335937-3.699218-10.550781-1.085937-1.714844 1.394531-3.488282 2.761719-5.269532 4.066406-.097656.070313-.390624.285157-.863281.152344-.234375-.066406-.546875-.234375-.714843-.648437-3.929688-9.652344-8.488282-16.582032-12.511719-22.699219-5.707031-8.675781-10.222657-15.546875-11.378907-27.792969.082032-7.847656 3.179688-15.210938 8.746094-20.761719 5.621094-5.609375 13.089844-8.699219 21.035156-8.699219h.066407c7.925781.015626 15.433593 3.269532 21.144531 9.160157 5.664062 5.84375 8.785156 13.71875 8.558594 21.605469-.210938 7.25-2.757813 14.820312-7.578125 22.496093-2.199219 3.507813-1.140625 8.136719 2.367187 10.339844 3.511719 2.203125 8.136719 1.140625 10.339844-2.367187 6.257812-9.972657 9.574219-20.078126 9.863281-30.035157.34375-11.90625-4.316406-23.746093-12.78125-32.480469-6.550781-6.757812-14.734375-11.1875-23.601562-12.90625-.59375-12.765624-3.09375-30.222656-12.492188-51.476562 11.960938-11.515625 22.886719-24.09375 32.632813-37.574219l93.300781 93.300781c3.933594 3.933594 9.164063 6.101563 14.726563 6.101563 5.558593 0 10.789062-2.167969 14.722656-6.101563l7.398437-7.394531c8.117188-8.121093 8.117188-21.328125 0-29.449219zm-394.042969-113.242187c31.152344-20.375 59.824219-44.070313 85.539063-70.65625-8.0625 53.867187-24.246094 98-34.363281 121.835937zm147.035157 132.855469c-7.296875 1.410156-14.996094-.8125-20.414063-6.230469l-64.035156-64.035156c11.246094-25.507813 33.277344-82.636719 40.488281-152.347657 15-17.21875 28.832031-35.496093 41.402344-54.71875l61.351563 61.355469c-2.015626 91.929688-36.324219 179.601563-58.792969 215.976563zm23.242187-11.195313c8.582032-17.148437 18.300782-40.191406 26.90625-67.335937 9.308594-29.371094 20.34375-73.367188 23.09375-123l50.820313 50.820312c6.816406 6.820313 8.597656 17.242188 4.421875 25.933594-22.820313 47.535156-59.777344 87.261719-105.242188 113.582031zm213.160156 10.425781-7.398437 7.398438c-2.269531 2.269531-5.964844 2.269531-8.234375 0l-95.308594-95.308594c4.113282-6.402344 7.96875-12.980468 11.546875-19.71875l99.394531 99.390625c1.101563 1.101563 1.703126 2.566407 1.703126 4.121094s-.605469 3.015625-1.703126 4.117187zm-336.15625-326.207031c-2.929687 2.929688-2.929687 7.679688 0 10.605469l8.042969 8.046875c1.464844 1.464844 3.382813 2.195313 5.304688 2.195313 1.917969 0 3.839843-.730469 5.300781-2.195313 2.929688-2.929687 2.929688-7.675781.003906-10.605469l-8.046875-8.046875c-2.929687-2.925781-7.675781-2.925781-10.605469 0zm-47.023437 67.464844c-4.113281-.285156-7.710937 2.835937-7.996094 6.96875-.28125 4.128906 2.835938 7.710937 6.96875 7.996094.726563.046875 1.445313.070312 2.164063.070312 8.324218 0 16.332031-3.289062 22.25-9.207031 6.429687-6.429688 9.761718-15.328125 9.136718-24.414062-.28125-4.132813-3.878906-7.25-7.996093-6.96875-4.132813.28125-7.25 3.863281-6.96875 7.996093.328125 4.757813-1.414063 9.417969-4.777344 12.777344-3.363281 3.363281-8.023437 5.109375-12.78125 4.78125zm0 0" data-original="#000000" class="active-path" style="fill:#000000"/></g> </svg>
