<?xml version="1.0" encoding="iso-8859-1"?>
<!-- Generator: Adobe Illustrator 19.0.0, SVG Export Plug-In . SVG Version: 6.00 Build 0)  -->
<svg version="1.1" id="Capa_1" xmlns="http://www.w3.org/2000/svg" xmlns:xlink="http://www.w3.org/1999/xlink" x="0px" y="0px"
	 viewBox="0 0 511.996 511.996" style="enable-background:new 0 0 511.996 511.996;" xml:space="preserve">
<path style="fill:#FFB4A9;" d="M121,57.497v90c24.853,0,45-20.147,45-45S145.853,57.497,121,57.497z"/>
<path style="fill:#FFD9D4;" d="M136,102.497c0-24.853-6.716-45-15-45c-24.853,0-45,20.147-45,45s20.147,45,45,45
	C129.284,147.497,136,127.35,136,102.497z"/>
<path style="fill:#FF8646;" d="M121,227.497v90c24.853,0,45-20.147,45-45L121,227.497z"/>
<path style="fill:#FFA754;" d="M136,272.497l-15-45l-45,45c0,24.853,20.147,45,45,45C129.284,317.497,136,297.35,136,272.497z"/>
<path style="fill:#49C9FF;" d="M146,177.497h-30l20,95h30v-75C166,186.451,157.046,177.497,146,177.497z"/>
<path style="fill:#7DD9FF;" d="M116,177.497H96c-11.046,0-20,8.954-20,20v75h60v-75C136,186.451,127.046,177.497,116,177.497z"/>
<path style="fill:#FFB4A9;" d="M391,57.497v90c24.853,0,45-20.147,45-45S415.853,57.497,391,57.497z"/>
<path style="fill:#FFD9D4;" d="M406,102.497c0-24.853-6.716-45-15-45c-24.853,0-45,20.147-45,45s20.147,45,45,45
	C399.284,147.497,406,127.35,406,102.497z"/>
<path style="fill:#FF6337;" d="M391,227.497v90c24.853,0,45-20.147,45-45L391,227.497z"/>
<path style="fill:#FF8646;" d="M406,272.497l-15-45l-45,45c0,24.853,20.147,45,45,45C399.284,317.497,406,297.35,406,272.497z"/>
<path style="fill:#FFCB63;" d="M416,177.497h-30l20,95h30v-75C436,186.451,427.046,177.497,416,177.497z"/>
<path style="fill:#FFE2A8;" d="M386,177.497h-20c-11.046,0-20,8.954-20,20v75h60v-75C406,186.451,397.046,177.497,386,177.497z"/>
<path style="fill:#49C9FF;" d="M241,337.497l15,60c16.569,0,30-13.432,30-30v-5L241,337.497z"/>
<path style="fill:#7DD9FF;" d="M226,362.497v5c0,16.568,13.431,30,30,30v-60L226,362.497z"/>
<path style="fill:#FF4128;" d="M256,302.497h10c11.046,0,20,8.954,20,20v40h-30l-15-35L256,302.497z"/>
<path style="fill:#FF6337;" d="M256,302.497h-10c-11.046,0-20,8.954-20,20v40h30V302.497z"/>
<path style="fill:#FFB4A9;" d="M256,212.497l-15,30l15,30c16.569,0,30-13.431,30-30S272.569,212.497,256,212.497z"/>
<path style="fill:#FFD9D4;" d="M226,242.497c0,16.569,13.431,30,30,30v-60C239.431,212.497,226,225.928,226,242.497z"/>
<path d="M121,154.997c28.949,0,52.5-23.551,52.5-52.5s-23.551-52.5-52.5-52.5s-52.5,23.551-52.5,52.5S92.051,154.997,121,154.997z
	 M121,64.997c20.678,0,37.5,16.822,37.5,37.5s-16.822,37.5-37.5,37.5s-37.5-16.822-37.5-37.5S100.322,64.997,121,64.997z"/>
<path d="M391,154.997c28.949,0,52.5-23.551,52.5-52.5s-23.551-52.5-52.5-52.5s-52.5,23.551-52.5,52.5S362.051,154.997,391,154.997z
	 M391,64.997c20.678,0,37.5,16.822,37.5,37.5s-16.822,37.5-37.5,37.5s-37.5-16.822-37.5-37.5S370.322,64.997,391,64.997z"/>
<path d="M504.5,89.997c-4.142,0-7.5,3.358-7.5,7.5v31.5c0,31.489-23.984,57.478-54.643,60.668
	c-3.382-11.359-13.915-19.668-26.357-19.668h-50c-12.78,0-23.552,8.764-26.622,20.597c-17.529,3.138-30.878,18.485-30.878,36.903v65
	c0,10.259-6.904,18.93-16.308,21.627c-3.551-11.081-13.948-19.127-26.192-19.127h-20c-12.244,0-22.641,8.046-26.192,19.127
	c-9.404-2.697-16.308-11.368-16.308-21.627v-65c0-18.417-13.349-33.765-30.878-36.903c-3.07-11.834-13.841-20.597-26.622-20.597H96
	c-12.443,0-22.976,8.309-26.357,19.668C38.984,186.475,15,160.486,15,128.997v-31.5c0-4.142-3.358-7.5-7.5-7.5S0,93.355,0,97.497
	v31.5c0,39.376,30.101,71.847,68.5,75.627v67.873c0,14.269,5.73,27.22,15,36.692v129.902l-24.872,8.291
	c-3.93,1.31-6.053,5.558-4.744,9.487c1.048,3.143,3.974,5.13,7.114,5.13c0.786,0,1.586-0.125,2.373-0.387l30-10
	c3.062-1.021,5.128-3.887,5.128-7.115V319.921c6.824,3.251,14.452,5.076,22.5,5.076s15.676-1.825,22.5-5.076v124.576
	c0,3.228,2.066,6.094,5.128,7.115l30,10c0.787,0.262,1.586,0.387,2.373,0.387c3.14,0,6.066-1.988,7.114-5.13
	c1.31-3.929-0.814-8.177-4.744-9.487l-24.872-8.291V309.189c9.27-9.472,15-22.423,15-36.692v-66.21c8.729,3.096,15,11.432,15,21.21
	v65c0,18.11,12.904,33.261,30,36.745v125.255c0,4.142,3.358,7.5,7.5,7.5s7.5-3.358,7.5-7.5v-57.02
	c6.272,4.719,14.064,7.52,22.5,7.52c8.436,0,16.228-2.801,22.5-7.52v57.02c0,4.142,3.358,7.5,7.5,7.5s7.5-3.358,7.5-7.5V329.242
	c17.096-3.484,30-18.635,30-36.745v-65c0-9.778,6.271-18.114,15-21.21v66.21c0,14.269,5.73,27.22,15,36.692v129.902l-24.872,8.291
	c-3.93,1.31-6.053,5.558-4.744,9.487c1.048,3.143,3.974,5.13,7.114,5.13c0.786,0,1.586-0.125,2.373-0.387l30-10
	c3.062-1.021,5.128-3.887,5.128-7.115V319.921c6.824,3.251,14.452,5.076,22.5,5.076s15.676-1.825,22.5-5.076v124.576
	c0,3.228,2.066,6.094,5.128,7.115l30,10c0.787,0.262,1.586,0.387,2.373,0.387c3.14,0,6.066-1.988,7.114-5.13
	c1.31-3.929-0.814-8.177-4.744-9.487l-24.872-8.291V309.189c9.27-9.472,15-22.423,15-36.692v-67.873
	c38.399-3.779,68.5-36.251,68.5-75.627v-31.5C512,93.355,508.642,89.997,504.5,89.997z M96,184.997h50c6.893,0,12.5,5.607,12.5,12.5
	v67.5h-75v-67.5C83.5,190.604,89.107,184.997,96,184.997z M84.255,279.997h73.491c-3.484,17.096-18.635,30-36.745,30
	S87.739,297.093,84.255,279.997z M246,309.997h20c6.893,0,12.5,5.607,12.5,12.5v32.5h-45v-32.5
	C233.5,315.604,239.107,309.997,246,309.997z M256,389.997c-11.561,0-21.11-8.766-22.358-20h44.716
	C277.11,381.231,267.561,389.997,256,389.997z M366,184.997h50c6.893,0,12.5,5.607,12.5,12.5v67.5h-75v-67.5
	C353.5,190.604,359.107,184.997,366,184.997z M354.255,279.997h73.491c-3.484,17.096-18.635,30-36.745,30
	S357.739,297.093,354.255,279.997z"/>
<path d="M256,279.997c20.678,0,37.5-16.822,37.5-37.5s-16.822-37.5-37.5-37.5s-37.5,16.822-37.5,37.5
	C218.5,263.175,235.322,279.997,256,279.997z M256,219.997c12.407,0,22.5,10.093,22.5,22.5s-10.093,22.5-22.5,22.5
	s-22.5-10.093-22.5-22.5S243.593,219.997,256,219.997z"/>
<g>
</g>
<g>
</g>
<g>
</g>
<g>
</g>
<g>
</g>
<g>
</g>
<g>
</g>
<g>
</g>
<g>
</g>
<g>
</g>
<g>
</g>
<g>
</g>
<g>
</g>
<g>
</g>
<g>
</g>
</svg>
