<?xml version="1.0" encoding="iso-8859-1"?>
<!-- Generator: Adobe Illustrator 19.0.0, SVG Export Plug-In . SVG Version: 6.00 Build 0)  -->
<svg version="1.1" id="Capa_1" xmlns="http://www.w3.org/2000/svg" xmlns:xlink="http://www.w3.org/1999/xlink" x="0px" y="0px"
	 viewBox="0 0 512.002 512.002" style="enable-background:new 0 0 512.002 512.002;" xml:space="preserve">
<polygon style="fill:#FF4128;" points="181.001,82.5 151.001,75 121.001,97.5 151.001,120 181.001,112.5 "/>
<polygon style="fill:#FFF0D3;" points="61.001,52.5 61.001,142.5 151.001,120 151.001,75 "/>
<path style="fill:#CF301B;" d="M256.001,52.5c24.853,0,45-20.147,45-45C276.148,7.5,256.001,27.647,256.001,52.5z"/>
<path style="fill:#FF4128;" d="M211.001,7.5c0,24.853,20.147,45,45,45C256.001,27.647,235.854,7.5,211.001,7.5z"/>
<path style="fill:#FFB4A9;" d="M255.999,62.5v80c24.853,0,45-20.147,45-45c0-5.261-0.912-10.307-2.571-15L255.999,62.5z"/>
<path style="fill:#A45E43;" d="M255.999,52.5l14.143,30h28.286C292.249,65.024,275.59,52.5,255.999,52.5z"/>
<path style="fill:#FFD9D4;" d="M213.569,82.5c-1.659,4.693-2.571,9.739-2.571,15c0,24.853,20.147,45,45,45c8.284,0,15-20.147,15-45
	c0-5.261-0.304-10.307-0.857-15l-14.143-20L213.569,82.5z"/>
<path style="fill:#C27749;" d="M255.999,52.5c-19.592,0-36.25,12.524-42.429,30h56.572C268.082,65.024,262.529,52.5,255.999,52.5z"
	/>
<path style="fill:#7DD9FF;" d="M281.001,172.5h-30v120h50v-100C301.001,181.454,292.047,172.5,281.001,172.5z"/>
<path style="fill:#A8E5FF;" d="M251.001,172.5h-20c-11.046,0-20,8.954-20,20v100h60v-100
	C271.001,181.454,262.047,172.5,251.001,172.5z"/>
<path style="fill:#CF301B;" d="M301.001,262.5h-30l15,90h30v-50.335C316.001,286.954,310.33,273.075,301.001,262.5z"/>
<path style="fill:#FF4128;" d="M271.001,262.5h-60c-7,7.93-11.82,17.74-13.97,28.54c-3.07,15.4-12.96,61.46-12.96,61.46h101.93
	v-50.335C286.001,286.954,280.33,273.075,271.001,262.5z"/>
<circle style="fill:#FFCB63;" cx="391" cy="22.5" r="15"/>
<circle style="fill:#49C9FF;" cx="436" cy="67.5" r="15"/>
<path d="M203.501,97.5c0,28.948,23.552,52.5,52.5,52.5s52.5-23.552,52.5-52.5c0-19.077-10.231-35.806-25.491-45
	c15.26-9.194,25.491-25.923,25.491-45c0-4.143-3.357-7.5-7.5-7.5c-19.073,0-35.805,10.226-45,25.481
	C246.806,10.226,230.074,0,211.001,0c-4.143,0-7.5,3.357-7.5,7.5c0,19.077,10.231,35.806,25.491,45
	C213.732,61.694,203.501,78.423,203.501,97.5z M292.538,15.963c-3.217,13.896-14.179,24.857-28.074,28.074
	C267.681,30.142,278.643,19.18,292.538,15.963z M219.464,15.963c13.896,3.217,24.857,14.179,28.074,28.074
	C233.643,40.82,222.681,29.858,219.464,15.963z M256.001,60c12.242,0,23.131,5.898,29.979,15h-59.959
	C232.87,65.898,243.759,60,256.001,60z M292.746,90c0.494,2.424,0.755,4.932,0.755,7.5c0,20.678-16.822,37.5-37.5,37.5
	s-37.5-16.822-37.5-37.5c0-2.568,0.261-5.076,0.755-7.5H292.746z"/>
<path d="M391.001,95c-4.143,0-7.5,3.357-7.5,7.5c0,43.343-33.605,78.961-76.125,82.229c-3.362-11.39-13.91-19.729-26.375-19.729h-50
	c-12.563,0-23.178,8.472-26.452,20h-68.548c-4.136,0-7.5-3.364-7.5-7.5s3.364-7.5,7.5-7.5c12.406,0,22.5-10.094,22.5-22.5v-21.644
	l24.319-6.08c3.339-0.835,5.681-3.835,5.681-7.276v-30c0-3.441-2.342-6.441-5.681-7.276L68.501,46.644V42.5
	c0-4.143-3.357-7.5-7.5-7.5s-7.5,3.357-7.5,7.5v110c0,4.143,3.357,7.5,7.5,7.5c4.143,0,7.5-3.357,7.5-7.5v-4.144l45-11.25V147.5
	c0,5.758,2.177,11.016,5.748,15c-3.571,3.984-5.748,9.242-5.748,15c0,12.406,10.094,22.5,22.5,22.5h67.5v59.763
	c-6.861,8.511-11.62,18.756-13.823,29.808c-3.024,15.171-12.838,60.896-12.937,61.355c-0.476,2.215,0.076,4.526,1.5,6.288
	s3.567,2.786,5.833,2.786h2.677l-27.199,128.744l-25.923,8.641c-3.929,1.31-6.053,5.558-4.743,9.487
	c1.048,3.143,3.974,5.13,7.114,5.13c0.786,0,1.586-0.125,2.373-0.387l30-10c2.525-0.842,4.416-2.96,4.966-5.565L202.082,360h76.419
	v134.5c0,3.229,2.065,6.095,5.128,7.115l30,10c0.787,0.262,1.587,0.387,2.373,0.387c3.141,0,6.066-1.987,7.114-5.13
	c1.31-3.93-0.814-8.178-4.743-9.487l-24.872-8.29V360h22.5c4.143,0,7.5-3.357,7.5-7.5v-50.335c0-15.472-5.307-30.418-15-42.406
	v-60.044c50.271-3.842,90-45.976,90-97.214C398.501,98.357,395.144,95,391.001,95z M158.501,84.605l15,3.75v18.289l-15,3.75V84.605z
	 M143.501,147.5c0,4.136-3.364,7.5-7.5,7.5s-7.5-3.364-7.5-7.5v-14.144l15-3.75V147.5z M68.501,132.894V62.106l75,18.75v33.289
	L68.501,132.894z M218.501,192.5c0-6.893,5.607-12.5,12.5-12.5h50c6.893,0,12.5,5.607,12.5,12.5V255h-75V192.5z M308.501,345
	h-112.42c-0.03,0-0.06,0-0.089,0h-2.642c3.048-14.258,8.829-41.415,11.039-52.497c1.659-8.323,5.149-16.036,10.148-22.503h82.926
	c7.133,9.183,11.039,20.478,11.039,32.165V345H308.501z"/>
<path d="M391.001,0c-12.406,0-22.5,10.094-22.5,22.5s10.094,22.5,22.5,22.5s22.5-10.094,22.5-22.5S403.407,0,391.001,0z M391.001,30
	c-4.136,0-7.5-3.364-7.5-7.5s3.364-7.5,7.5-7.5s7.5,3.364,7.5,7.5S395.137,30,391.001,30z"/>
<path d="M436.001,45c-12.406,0-22.5,10.094-22.5,22.5s10.094,22.5,22.5,22.5s22.5-10.094,22.5-22.5S448.407,45,436.001,45z
	 M436.001,75c-4.136,0-7.5-3.364-7.5-7.5s3.364-7.5,7.5-7.5s7.5,3.364,7.5,7.5S440.137,75,436.001,75z"/>
<circle cx="436" cy="127.5" r="7.5"/>
<circle cx="346" cy="67.5" r="7.5"/>
<circle cx="436" cy="22.5" r="7.5"/>
<g>
</g>
<g>
</g>
<g>
</g>
<g>
</g>
<g>
</g>
<g>
</g>
<g>
</g>
<g>
</g>
<g>
</g>
<g>
</g>
<g>
</g>
<g>
</g>
<g>
</g>
<g>
</g>
<g>
</g>
</svg>
