<svg height="512pt" viewBox="-17 0 511 512" width="512pt" xmlns="http://www.w3.org/2000/svg"><path d="m186.722656 468.058594 12.746094 16.710937c9.480469 12.433594 24.222656 19.730469 39.859375 19.730469 15.640625 0 30.378906-7.296875 39.863281-19.730469l12.746094-16.710937-52.609375-26.421875zm0 0" fill="#ff6881"/><path d="m229.464844 484.769531-12.742188-16.710937 37.605469-18.886719-15-7.535156-52.605469 26.421875 12.746094 16.710937c9.480469 12.433594 24.222656 19.730469 39.859375 19.730469 5.152344 0 10.199219-.808594 15-2.3125-9.773437-3.066406-18.503906-9.082031-24.863281-17.417969zm0 0" fill="#de4b64"/><path d="m363.769531 437.992188c-12.230469 18.757812-33.109375 30.066406-55.503906 30.066406h-137.875c-22.390625 0-43.269531-11.308594-55.5-30.066406l-25.707031-42.40625 150.144531-36.234376 150.144531 36.234376zm0 0" fill="#6dd1e0"/><path d="m144.890625 437.992188-25.707031-42.40625 135.144531-32.613282-15-3.621094-150.144531 36.234376 25.707031 42.40625c12.230469 18.757812 33.109375 30.066406 55.5 30.066406h30c-22.390625 0-43.269531-11.308594-55.5-30.066406zm0 0" fill="#34bed2"/><path d="m204.652344 7.5h69.355468v142.546875h-69.355468zm0 0" fill="#6dd1e0"/><path d="m204.652344 7.5h30v142.546875h-30zm0 0" fill="#34bed2"/><path d="m274.007812 122.257812h-69.355468c-18.921875 0-34.261719 15.339844-34.261719 34.261719v56.628907h137.875v-56.628907c0-18.921875-15.339844-34.261719-34.257813-34.261719zm0 0" fill="#ff6881"/><path d="m234.652344 122.257812h-30c-18.921875 0-34.261719 15.339844-34.261719 34.261719v56.628907h30v-56.628907c0-18.921875 15.339844-34.261719 34.261719-34.261719zm0 0" fill="#de4b64"/><path d="m363.769531 208.238281c-12.230469-18.757812-33.109375-30.070312-55.503906-30.070312h-137.875c-22.390625 0-43.269531 11.3125-55.5 30.070312l-25.707031 42.402344 150.144531 36.238281 150.144531-36.238281zm0 0" fill="#6dd1e0"/><path d="m119.183594 250.640625 25.707031-42.402344c12.230469-18.757812 33.109375-30.070312 55.5-30.070312h-30c-22.390625 0-43.269531 11.3125-55.5 30.070312l-25.707031 42.402344 150.144531 36.238281 15-3.621094zm0 0" fill="#34bed2"/><path d="m239.328125 286.878906-231.351563 36.234375 25.707032 42.40625c12.230468 18.757813 33.109375 30.066407 55.5 30.066407h300.292968c22.390626 0 43.269532-11.308594 55.5-30.066407l25.707032-42.40625zm0 0" fill="#ff6881"/><path d="m63.683594 365.519531-25.707032-42.40625 216.351563-33.886719-15-2.347656-231.351563 36.234375 25.707032 42.40625c12.230468 18.757813 33.109375 30.066407 55.5 30.066407h30c-22.390625 0-43.269532-11.308594-55.5-30.066407zm0 0" fill="#de4b64"/><path d="m444.976562 280.710938c-12.230468-18.757813-33.109374-30.070313-55.503906-30.070313h-300.289062c-22.390625 0-43.269532 11.3125-55.5 30.070313l-25.707032 42.402343h462.703126zm0 0" fill="#ffe675"/><path d="m119.183594 250.640625h-30c-22.390625 0-43.269532 11.3125-55.5 30.070313l-25.707032 42.402343h30l25.707032-42.402343c12.230468-18.757813 33.109375-30.070313 55.5-30.070313zm0 0" fill="#ffb258"/><path d="m157.75 273.125c-4.144531 0-7.5 3.355469-7.5 7.5v14.765625c0 4.140625 3.355469 7.5 7.5 7.5 4.140625 0 7.5-3.359375 7.5-7.5v-14.765625c0-4.144531-3.359375-7.5-7.5-7.5zm0 0"/><path d="m320.910156 273.125c-4.140625 0-7.5 3.355469-7.5 7.5v14.765625c0 4.140625 3.359375 7.5 7.5 7.5 4.144532 0 7.5-3.359375 7.5-7.5v-14.765625c0-4.144531-3.355468-7.5-7.5-7.5zm0 0"/><path d="m264.402344 288.714844c-3.121094-2.726563-7.855469-2.40625-10.582032.710937-3.523437 4.03125-8.804687 6.34375-14.488281 6.34375-5.683593 0-10.964843-2.3125-14.488281-6.34375-2.726562-3.117187-7.464844-3.4375-10.582031-.710937-3.121094 2.726562-3.441407 7.464844-.710938 10.582031 6.371094 7.292969 15.769531 11.472656 25.78125 11.472656s19.40625-4.179687 25.78125-11.472656c2.726563-3.117187 2.40625-7.855469-.710937-10.582031zm0 0"/><path d="m274.007812 0h-69.355468c-4.140625 0-7.5 3.359375-7.5 7.5v107.945312c-19.457032 3.546876-34.261719 20.609376-34.261719 41.074219v14.53125c-22.082031 2.230469-41.996094 14.242188-54.285156 33.089844-.042969.066406-.085938.136719-.128907.207031l-23.59375 38.921875c-23.347656 1.34375-44.605468 13.589844-57.484374 33.34375-.042969.066407-.085938.136719-.128907.207031 0 0-25.699219 42.394532-25.707031 42.402344-1.425781 2.351563-1.410156 5.421875 0 7.777344l25.707031 42.402344c.042969.070312.085938.140625.128907.207031 12.878906 19.753906 34.136718 32 57.484374 33.347656l23.59375 38.917969c.042969.070312.085938.140625.128907.210938 13.667969 20.957031 36.765625 33.472656 61.785156 33.472656h12.621094l10.492187 13.757812c10.832032 14.203125 27.964844 22.683594 45.828125 22.683594 17.859375 0 34.992188-8.480469 45.824219-22.683594l10.492188-13.753906h12.621093c25.019531 0 48.117188-12.515625 61.785157-33.476562.042968-.066407.085937-.136719.128906-.207032l23.59375-38.917968c23.347656-1.347657 44.605468-13.59375 57.484375-33.347657.042969-.066406.085937-.136719.128906-.207031l25.707031-42.402344c1.40625-2.351562 1.421875-5.425781 0-7.777344l-25.707031-42.402343c-.042969-.070313-.085937-.140625-.128906-.207031-12.878907-19.753907-34.136719-32-57.484375-33.347657l-23.59375-38.917969c-.042969-.070312-.085938-.140624-.128906-.207031-12.289063-18.847656-32.203126-30.859375-54.285157-33.089843v-14.53125c0-20.46875-14.804687-37.53125-34.261719-41.074219v-107.949219c0-4.140625-3.359374-7.5-7.5-7.5zm-61.855468 15h54.355468v99.757812h-54.355468zm61.078125 465.222656c-8.011719 10.503906-20.6875 16.777344-33.898438 16.777344-13.214843 0-25.886719-6.273438-33.902343-16.777344l-3.554688-4.664062h74.90625zm165.398437-118.699218c-10.894531 16.632812-29.261718 26.5625-49.152344 26.5625h-200.085937c-4.144531 0-7.5 3.359374-7.5 7.5 0 4.140624 3.355469 7.5 7.5 7.5h186.765625l-18.734375 30.90625c-10.894531 16.640624-29.261719 26.566406-49.152344 26.566406h-137.875c-19.894531 0-38.261719-9.925782-49.15625-26.566406l-18.734375-30.90625h56.886719c4.140625 0 7.5-3.359376 7.5-7.5 0-4.140626-3.359375-7.5-7.5-7.5h-70.203125c-19.894531 0-38.261719-9.929688-49.15625-26.5625l-18.734375-30.910157h436.070313zm0-76.816407 18.734375 30.90625h-436.066406l18.734375-30.90625c10.894531-16.636719 29.261719-26.566406 49.152344-26.566406h300.289062c19.894532 0 38.261719 9.929687 49.15625 26.566406zm-137.859375-128.1875v14.148438h-19.378906c-4.144531 0-7.5 3.355469-7.5 7.5 0 4.140625 3.355469 7.5 7.5 7.5h26.878906c19.890625 0 38.257813 9.925781 49.152344 26.5625l18.734375 30.910156h-273.652344l18.734375-30.910156c10.898438-16.636719 29.261719-26.5625 49.15625-26.5625h80.996094c4.140625 0 7.5-3.359375 7.5-7.5 0-4.144531-3.359375-7.5-7.5-7.5h-73.496094v-14.148438c0-14.757812 12.003907-26.761719 26.757813-26.761719h69.355468c14.753907 0 26.761719 12.003907 26.761719 26.761719zm0 0"/></svg>