<?xml version="1.0" encoding="iso-8859-1"?>
<!-- Generator: Adobe Illustrator 19.0.0, SVG Export Plug-In . SVG Version: 6.00 Build 0)  -->
<svg version="1.1" id="Capa_1" xmlns="http://www.w3.org/2000/svg" xmlns:xlink="http://www.w3.org/1999/xlink" x="0px" y="0px"
	 viewBox="0 0 512.003 512.003" style="enable-background:new 0 0 512.003 512.003;" xml:space="preserve">
<polygon style="fill:#DBF4FF;" points="219.502,237.09 99.502,27.5 249.502,27.5 249.502,237.09 "/>
<rect x="22.502" y="27.5" style="fill:#FFFFFF;" width="197" height="209.59"/>
<polygon style="fill:#999999;" points="234.502,42.09 204.502,24.59 234.502,7.09 264.502,7.09 264.502,42.09 "/>
<rect x="7.502" y="7.09" style="fill:#B3B3B3;" width="227" height="35"/>
<g>
	<path style="fill:#2DADE3;" d="M78.109,177.09l9.697-9.697c2.929-2.929,2.929-7.678,0-10.606c-2.93-2.929-7.678-2.929-10.607,0
		l-9.696,9.696l-9.696-9.696c-2.93-2.929-7.678-2.929-10.607,0s-2.929,7.678,0,10.606l9.697,9.697l-9.697,9.697
		c-2.929,2.929-2.929,7.678,0,10.606c1.465,1.464,3.385,2.197,5.304,2.197s3.839-0.732,5.304-2.197l9.696-9.696l9.696,9.696
		c1.465,1.464,3.385,2.197,5.304,2.197s3.839-0.732,5.304-2.197c2.929-2.929,2.929-7.678,0-10.606L78.109,177.09z"/>
	<path style="fill:#2DADE3;" d="M169.179,96.787l-15-15c-2.93-2.929-7.678-2.929-10.607,0s-2.929,7.678,0,10.606l2.197,2.197H97.502
		c-20.678,0-37.5,16.822-37.5,37.5v4.373c0,4.142,3.357,7.5,7.5,7.5s7.5-3.358,7.5-7.5v-4.373c0-12.407,10.094-22.5,22.5-22.5
		h48.266l-2.197,2.197c-2.929,2.929-2.929,7.678,0,10.606c1.465,1.464,3.385,2.197,5.304,2.197s3.839-0.732,5.304-2.197l15-15
		C172.107,104.464,172.107,99.715,169.179,96.787z"/>
	<path style="fill:#2DADE3;" d="M215.109,102.09l9.697-9.697c2.929-2.929,2.929-7.678,0-10.606c-2.93-2.929-7.678-2.929-10.607,0
		l-9.696,9.696l-9.696-9.696c-2.93-2.929-7.678-2.929-10.607,0s-2.929,7.678,0,10.606l9.697,9.697l-9.697,9.697
		c-2.929,2.929-2.929,7.678,0,10.606c1.465,1.464,3.385,2.197,5.304,2.197s3.839-0.732,5.304-2.197l9.696-9.696l9.696,9.696
		c1.465,1.464,3.385,2.197,5.304,2.197s3.839-0.732,5.304-2.197c2.929-2.929,2.929-7.678,0-10.606L215.109,102.09z"/>
	<path style="fill:#2DADE3;" d="M139.109,177.09l9.697-9.697c2.929-2.929,2.929-7.678,0-10.606c-2.93-2.929-7.678-2.929-10.607,0
		l-9.696,9.696l-9.696-9.696c-2.93-2.929-7.678-2.929-10.607,0s-2.929,7.678,0,10.606l9.697,9.697l-9.697,9.697
		c-2.929,2.929-2.929,7.678,0,10.606c1.465,1.464,3.385,2.197,5.304,2.197s3.839-0.732,5.304-2.197l9.696-9.696l9.696,9.696
		c1.465,1.464,3.385,2.197,5.304,2.197s3.839-0.732,5.304-2.197c2.929-2.929,2.929-7.678,0-10.606L139.109,177.09z"/>
	<path style="fill:#2DADE3;" d="M339.502,247.5l15,90c24.853,0,45-20.147,45-45L339.502,247.5z"/>
</g>
<path style="fill:#49C9FF;" d="M309.502,292.5c0,24.853,20.147,45,45,45v-90L309.502,292.5z"/>
<polygon style="fill:#353535;" points="384.502,172.5 354.502,172.488 324.502,232.494 354.502,292.488 384.502,292.5 
	399.502,232.5 "/>
<polygon style="fill:#4F4F4F;" points="354.502,172.488 324.502,172.5 309.502,232.5 324.502,292.5 354.502,292.488 "/>
<g>
	<path style="fill:#B3B3B3;" d="M314.508,172.5c-11.046,0-20,8.954-20,20l-0.006,133.536h30V172.5H314.508z"/>
	<path style="fill:#B3B3B3;" d="M394.502,172.5h-10v153.536h30V192.5C414.502,181.455,405.548,172.5,394.502,172.5z"/>
</g>
<path style="fill:#FF8D7E;" d="M354.502,52.5v90c24.853,0,45-20.147,45-45S379.355,52.5,354.502,52.5z"/>
<path style="fill:#FFB4A9;" d="M369.502,97.5c0-24.853-6.716-45-15-45c-24.853,0-45,20.147-45,45s20.147,45,45,45
	C362.786,142.5,369.502,122.353,369.502,97.5z"/>
<rect x="454.501" y="57.5" style="fill:#FFA754;" width="40" height="60"/>
<polygon style="fill:#FFCB63;" points="474.502,42.5 459.502,57.5 474.502,72.5 504.502,72.5 504.502,42.5 "/>
<rect x="444.501" y="42.5" style="fill:#FFE2A8;" width="30" height="30"/>
<polygon style="fill:#FFCB63;" points="474.502,102.5 459.502,117.5 474.502,132.5 504.502,132.5 504.502,102.5 "/>
<rect x="444.501" y="102.5" style="fill:#FFE2A8;" width="30" height="30"/>
<path d="M489.502,155h-15c-4.143,0-7.5,3.358-7.5,7.5s3.357,7.5,7.5,7.5h15c4.136,0,7.5,3.364,7.5,7.5s-3.364,7.5-7.5,7.5h-68.548
	c-3.274-11.528-13.889-20-26.452-20h-9.991c-0.017,0-60.007,0-60.007,0c-0.002,0-10.001,0-10.001,0
	c-12.563,0-23.178,8.472-26.452,20H174.502c-4.143,0-7.5,3.358-7.5,7.5s3.357,7.5,7.5,7.5h67.5v29.59h-212v-180h212V162.5
	c0,4.142,3.357,7.5,7.5,7.5s7.5-3.358,7.5-7.5V49.59h7.5c4.143,0,7.5-3.358,7.5-7.5V7.5c0-4.142-3.357-7.5-7.5-7.5h-257
	c-4.143,0-7.5,3.358-7.5,7.5v34.59c0,4.142,3.357,7.5,7.5,7.5h7.5v180h-7.5c-4.143,0-7.5,3.358-7.5,7.5s3.357,7.5,7.5,7.5h121v46.29
	c-8.729,3.096-15,11.432-15,21.21c0,12.407,10.094,22.5,22.5,22.5s22.5-10.093,22.5-22.5c0-9.777-6.271-18.114-15-21.21v-46.29h121
	c4.143,0,7.5-3.358,7.5-7.5s-3.357-7.5-7.5-7.5h-7.5V200h30v66.036c0,4.142,3.357,7.5,7.5,7.5s7.5-3.358,7.5-7.5V192.5
	c0-6.893,5.607-12.5,12.5-12.5h2.5v138.536h-15v-22.5c0-4.142-3.357-7.5-7.5-7.5s-7.5,3.358-7.5,7.5v30c0,4.142,3.357,7.5,7.5,7.5
	h22.5v155.559l-24.872,8.291c-3.93,1.31-6.053,5.557-4.743,9.487c1.048,3.143,3.974,5.13,7.114,5.13
	c0.786,0,1.586-0.125,2.373-0.387l30-10c3.062-1.021,5.128-3.887,5.128-7.115V339.929c6.971,3.309,14.639,5.071,22.5,5.071
	c7.861,0,15.528-1.763,22.5-5.071V494.5c0,3.228,2.065,6.094,5.128,7.115l30,10c0.787,0.262,1.587,0.387,2.373,0.387
	c3.141,0,6.066-1.988,7.114-5.13c1.31-3.93-0.813-8.177-4.743-9.487l-24.872-8.291V333.537l22.5-0.001c4.143,0,7.5-3.358,7.5-7.5
	V200h67.5c12.406,0,22.5-10.093,22.5-22.5S501.908,155,489.502,155z M15.002,15h242v19.59h-242C15.002,34.59,15.002,15,15.002,15z
	 M136.002,319.59c-4.136,0-7.5-3.364-7.5-7.5s3.364-7.5,7.5-7.5s7.5,3.364,7.5,7.5S140.138,319.59,136.002,319.59z M377.002,180v105
	h-45V180H377.002z M354.502,330c-8.16,0-16.033-2.647-22.5-7.503V300h45v22.497C370.535,327.354,362.662,330,354.502,330z
	 M407.002,318.536l-15,0.001V180h2.5c6.893,0,12.5,5.607,12.5,12.5V318.536z"/>
<path d="M339.502,112.798c5.44,0,10.674-1.725,15-4.81c4.326,3.085,9.56,4.81,15,4.81c4.143,0,7.5-3.358,7.5-7.5s-3.357-7.5-7.5-7.5
	c-3.519,0-6.833-1.725-8.866-4.614c-1.405-1.996-3.693-3.184-6.134-3.184s-4.729,1.188-6.134,3.184
	c-2.033,2.889-5.348,4.614-8.866,4.614c-4.143,0-7.5,3.358-7.5,7.5S335.359,112.798,339.502,112.798z"/>
<path d="M354.502,150c28.948,0,52.5-23.551,52.5-52.5S383.45,45,354.502,45s-52.5,23.551-52.5,52.5S325.554,150,354.502,150z
	 M354.502,60c20.678,0,37.5,16.822,37.5,37.5s-16.822,37.5-37.5,37.5c-20.678,0-37.5-16.822-37.5-37.5S333.824,60,354.502,60z"/>
<path d="M504.502,20c-4.143,0-7.5,3.358-7.5,7.5V35h-15v-7.5c0-4.142-3.357-7.5-7.5-7.5s-7.5,3.358-7.5,7.5V35h-15v-7.5
	c0-4.142-3.357-7.5-7.5-7.5s-7.5,3.358-7.5,7.5v45c0,4.142,3.357,7.5,7.5,7.5h2.5v15h-2.5c-4.143,0-7.5,3.358-7.5,7.5v30
	c0,4.142,3.357,7.5,7.5,7.5h60c4.143,0,7.5-3.358,7.5-7.5v-30c0-4.142-3.357-7.5-7.5-7.5h-2.5V80h2.5c4.143,0,7.5-3.358,7.5-7.5v-45
	C512.002,23.358,508.645,20,504.502,20z M497.002,50v15h-45V50H497.002z M497.002,125h-45v-15h45V125z M487.002,95h-25V80h25V95z"/>
<g>
</g>
<g>
</g>
<g>
</g>
<g>
</g>
<g>
</g>
<g>
</g>
<g>
</g>
<g>
</g>
<g>
</g>
<g>
</g>
<g>
</g>
<g>
</g>
<g>
</g>
<g>
</g>
<g>
</g>
</svg>
