<?xml version="1.0" encoding="iso-8859-1"?>
<!-- Generator: Adobe Illustrator 19.0.0, SVG Export Plug-In . SVG Version: 6.00 Build 0)  -->
<svg version="1.1" id="Capa_1" xmlns="http://www.w3.org/2000/svg" xmlns:xlink="http://www.w3.org/1999/xlink" x="0px" y="0px"
	 viewBox="0 0 512.002 512.002" style="enable-background:new 0 0 512.002 512.002;" xml:space="preserve">
<path style="fill:#2DADE3;" d="M151.001,262.5v75c24.853,0,45-20.147,45-45L151.001,262.5z"/>
<path style="fill:#49C9FF;" d="M166.001,292.5l-15-30l-45,30c0,24.853,20.147,45,45,45C159.285,337.5,166.001,317.353,166.001,292.5
	z"/>
<path style="fill:#FF6337;" d="M176.001,172.5h-30l20,120h30v-100C196.001,181.454,187.047,172.5,176.001,172.5z"/>
<path style="fill:#FF8646;" d="M146.001,172.5h-20c-11.046,0-20,8.954-20,20v100h60v-100
	C166.001,181.454,157.047,172.5,146.001,172.5z"/>
<path style="fill:#FFB4A9;" d="M151.001,52.5v101l45-46v-10C196.001,72.647,175.854,52.5,151.001,52.5z"/>
<path style="fill:#FFD9D4;" d="M151.001,52.5c-24.853,0-45,20.147-45,45v10l60,46v-56C166.001,72.647,159.285,52.5,151.001,52.5z"/>
<path style="fill:#FFA754;" d="M169.71,107.5c-1.053-1.573-2.303-3.002-3.709-4.261l-15,69.261c24.853,0,45-20.147,45-45v-20H169.71
	z"/>
<g>
	<path style="fill:#FFCB63;" d="M166.001,127.5v-24.261c-3.981-3.566-9.235-5.739-15-5.739c-7.801,0-14.672,3.971-18.709,10h-26.291
		v20c0,24.853,20.147,45,45,45C159.285,172.5,166.001,152.353,166.001,127.5z"/>
	<circle style="fill:#FFCB63;" cx="308.5" cy="120" r="22.5"/>
	<circle style="fill:#FFCB63;" cx="413.5" cy="120" r="22.5"/>
</g>
<path style="fill:#FFB4A9;" d="M361.001,52.5v90c24.853,0,45-20.147,45-45L361.001,52.5z"/>
<path style="fill:#FFD9D4;" d="M361.001,52.5l-45,45c0,24.853,20.147,45,45,45c8.284,0,15-20.147,15-45S369.285,52.5,361.001,52.5z"
	/>
<path style="fill:#FFCB63;" d="M361.001,52.5c-24.853,0-45,20.147-45,45C340.854,97.5,361.001,77.353,361.001,52.5z"/>
<path style="fill:#FFA754;" d="M406.001,97.5c0-24.853-20.147-45-45-45C361.001,77.353,381.148,97.5,406.001,97.5z"/>
<path style="fill:#49C9FF;" d="M386.001,172.5h-30v125h50v-105C406.001,181.454,397.047,172.5,386.001,172.5z"/>
<path style="fill:#7DD9FF;" d="M356.001,172.5h-20c-11.046,0-20,8.954-20,20v105h60v-105
	C376.001,181.454,367.047,172.5,356.001,172.5z"/>
<path style="fill:#FF4128;" d="M406.001,267.5h-30v55h45v-15.335C421.001,291.954,415.33,278.075,406.001,267.5z"/>
<path style="fill:#FF6337;" d="M376.001,267.5h-60c-9.329,10.575-15,24.454-15,39.665V322.5h90v-15.335
	C391.001,291.954,385.33,278.075,376.001,267.5z"/>
<polygon style="fill:#FFA754;" points="451.001,312.5 431.001,327.5 451.001,342.5 481.001,342.5 481.001,312.5 "/>
<rect x="241" y="312.5" style="fill:#FFCB63;" width="210" height="30"/>
<circle cx="151" cy="202.5" r="7.5"/>
<circle cx="151" cy="232.5" r="7.5"/>
<path d="M481.001,200c12.407,0,22.5-10.094,22.5-22.5s-10.093-22.5-22.5-22.5h-7.5V7.5c0-4.143-3.358-7.5-7.5-7.5
	s-7.5,3.357-7.5,7.5V185h-46.048c-3.274-11.528-13.889-20-26.452-20h-50c-12.563,0-23.178,8.472-26.452,20h-46.048V7.5
	c0-4.143-3.358-7.5-7.5-7.5s-7.5,3.357-7.5,7.5V155h-7.5c-12.407,0-22.5,10.094-22.5,22.5s10.093,22.5,22.5,22.5h7.5v15h-45v-22.5
	c0-11.727-7.381-21.757-17.739-25.704c10.869-9.625,17.739-23.67,17.739-39.296v-30c0-28.948-23.551-52.5-52.5-52.5
	s-52.5,23.552-52.5,52.5v30c0,15.626,6.87,29.67,17.739,39.296c-7.974,3.039-14.179,9.684-16.614,17.934
	c-42.52-3.268-76.125-38.886-76.125-82.229c0-4.143-3.358-7.5-7.5-7.5s-7.5,3.357-7.5,7.5c0,51.239,39.729,93.372,90,97.214V292.5
	c0,14.269,5.73,27.22,15,36.692v76.022l-43.726,65.104c-0.831,1.236-1.274,2.692-1.274,4.182v30c0,4.143,3.358,7.5,7.5,7.5
	s7.5-3.357,7.5-7.5v-27.715l43.726-65.104c0.831-1.236,1.274-2.692,1.274-4.182v-67.575c6.824,3.251,14.452,5.076,22.5,5.076
	s15.676-1.825,22.5-5.076V494.5c0,3.229,2.066,6.095,5.128,7.115l30,10c0.787,0.262,1.586,0.387,2.373,0.387
	c3.14,0,6.066-1.987,7.114-5.13c1.31-3.93-0.814-8.178-4.744-9.487l-24.872-8.29V329.192c9.27-9.472,15-22.423,15-36.692V230h45v75
	H241c-4.142,0-7.5,3.357-7.5,7.5v30c0,4.143,3.358,7.5,7.5,7.5h97.5v102.492l-13.997,24.26c-2.07,3.588-0.839,8.175,2.749,10.244
	c1.181,0.682,2.469,1.005,3.741,1.005c2.592,0,5.115-1.346,6.503-3.753l15-26c0.657-1.14,1.003-2.433,1.003-3.748V350h15v104.5
	c0,1.315,0.346,2.608,1.003,3.748l15,26c1.389,2.407,3.911,3.753,6.503,3.753c1.271,0,2.561-0.323,3.741-1.005
	c3.588-2.069,4.818-6.656,2.749-10.244l-13.997-24.26V320h90v15h-67.5c-4.142,0-7.5,3.357-7.5,7.5s3.358,7.5,7.5,7.5h75
	c4.142,0,7.5-3.357,7.5-7.5v-30c0-4.143-3.358-7.5-7.5-7.5h-7.5V200H481.001z M151.001,60c20.678,0,37.5,16.822,37.5,37.5v2.5
	h-15.139c-5.652-6.325-13.746-10-22.361-10s-16.708,3.675-22.361,10h-15.139v-2.5C113.501,76.822,130.323,60,151.001,60z
	 M113.501,127.5V115h18.792c2.502,0,4.84-1.248,6.232-3.328c2.797-4.178,7.461-6.672,12.476-6.672s9.679,2.494,12.476,6.672
	c1.392,2.08,3.73,3.328,6.232,3.328h18.792v12.5c0,20.678-16.822,37.5-37.5,37.5S113.501,148.178,113.501,127.5z M126.001,180h50
	c6.893,0,12.5,5.607,12.5,12.5V285h-75v-92.5C113.501,185.607,119.108,180,126.001,180z M114.256,300h73.491
	c-3.484,17.096-18.635,30-36.745,30S117.74,317.096,114.256,300z M473.501,170h7.5c4.136,0,7.5,3.364,7.5,7.5s-3.364,7.5-7.5,7.5
	h-7.5V170z M336.001,180h50c6.893,0,12.5,5.607,12.5,12.5V260h-75v-67.5C323.501,185.607,329.108,180,336.001,180z M241.001,185
	c-4.136,0-7.5-3.364-7.5-7.5s3.364-7.5,7.5-7.5h7.5v15H241.001z M263.501,230h7.5c4.136,0,7.5,3.364,7.5,7.5s-3.364,7.5-7.5,7.5
	h-7.5V230z M263.501,260h7.5c12.407,0,22.5-10.094,22.5-22.5s-10.093-22.5-22.5-22.5h-7.5v-15h45v64.759
	c-9.24,11.428-14.483,25.545-14.954,40.241h-30.046V260z M248.501,335v-15h90v15H248.501z M368.501,335h-15v-15h15V335z
	 M376.001,290c-4.142,0-7.5,3.357-7.5,7.5v7.5h-15v-7.5c0-4.143-3.358-7.5-7.5-7.5s-7.5,3.357-7.5,7.5v7.5H308.55
	c0.45-10.913,4.298-21.385,10.99-30h82.922c6.692,8.615,10.54,19.087,10.99,30h-29.951v-7.5
	C383.501,293.357,380.143,290,376.001,290z M458.501,305h-30.046c-0.471-14.696-5.714-28.813-14.954-40.241V200h45V305z"/>
<path d="M308.501,150c8.534,0,16.501-3.653,22.093-9.743c8.587,6.125,19.079,9.743,30.407,9.743s21.82-3.618,30.407-9.743
	c5.592,6.09,13.56,9.743,22.093,9.743c16.542,0,30-13.458,30-30s-13.458-30-30-30h-0.544c-3.651-25.407-25.554-45-51.956-45
	s-48.304,19.593-51.956,45h-0.544c-16.542,0-30,13.458-30,30S291.959,150,308.501,150z M324.142,104.363
	c15.63-2.444,28.999-11.803,36.859-24.844c7.86,13.041,21.229,22.4,36.859,24.844C394.626,121.773,379.334,135,361.001,135
	S327.376,121.773,324.142,104.363z M428.501,120c0,8.271-6.729,15-15,15c-4.367,0-8.441-1.911-11.246-5.088
	c5.568-7.072,9.363-15.598,10.701-24.912h0.544C421.772,105,428.501,111.729,428.501,120z M397.522,89.021
	c-13.879-3.221-24.821-14.164-28.043-28.043C383.359,64.2,394.301,75.143,397.522,89.021z M352.522,60.979
	c-3.221,13.879-14.164,24.822-28.043,28.043C327.701,75.143,338.643,64.2,352.522,60.979z M308.501,105h0.544
	c1.339,9.314,5.133,17.84,10.701,24.912c-2.805,3.177-6.879,5.088-11.246,5.088c-8.271,0-15-6.729-15-15S300.23,105,308.501,105z"/>
<g>
</g>
<g>
</g>
<g>
</g>
<g>
</g>
<g>
</g>
<g>
</g>
<g>
</g>
<g>
</g>
<g>
</g>
<g>
</g>
<g>
</g>
<g>
</g>
<g>
</g>
<g>
</g>
<g>
</g>
</svg>
