<svg height="512pt" viewBox="0 -41 512.003 512" width="512pt" xmlns="http://www.w3.org/2000/svg"><path d="m300.339844 29.925781c0 12.386719-10.042969 22.429688-22.429688 22.429688-12.382812 0-22.425781-10.042969-22.425781-22.429688 0-12.382812 10.042969-22.425781 22.425781-22.425781 12.386719 0 22.429688 10.042969 22.429688 22.425781zm0 0" fill="#6dd1e0"/><path d="m275.488281 29.925781c0-8.789062 5.058594-16.394531 12.425781-20.070312-3.011718-1.503907-6.40625-2.355469-10.003906-2.355469-12.386718 0-22.425781 10.039062-22.425781 22.425781s10.042969 22.425781 22.425781 22.425781c3.597656 0 6.992188-.847656 10.003906-2.351562-7.367187-3.675781-12.425781-11.28125-12.425781-20.074219zm0 0" fill="#34bed2"/><path d="m155.320312 76.738281s55.472657-40.917969 122.589844-40.917969c67.121094 0 122.59375 40.917969 122.59375 40.917969l-122.59375 18.992188zm0 0" fill="#ff9ec0"/><path d="m185.324219 76.738281s47.40625-34.960937 107.589843-40.246093c-4.921874-.433594-9.929687-.671876-15.003906-.671876-67.117187 0-122.589844 40.917969-122.589844 40.917969l122.589844 18.992188 15.003906-2.324219zm0 0" fill="#ff66a8"/><path d="m378.011719 289.867188-1.792969-39.25c20.632812-.941407 40.929688-6.128907 55.691406-14.222657 16.53125-9.066406 25.296875-20.785156 26.804688-35.824219.976562-9.777343-.796875-17.597656-4.996094-22.015624-3.46875-3.652344-9.078125-5.316407-16.660156-4.945313-11.519532.558594-24.714844 4.128906-38.160156 10.324219l-16.4375-35.6875c18.226562-8.394532 35.957031-13.066406 52.691406-13.878906 24.308594-1.179688 39.003906 8.660156 47.046875 17.125 12.199219 12.835937 17.738281 31.65625 15.605469 52.988281-2.808594 28.089843-19.0625 51.039062-47 66.363281-27.167969 14.898438-57.265626 18.3125-72.792969 19.023438zm0 0" fill="#ff9ec0"/><path d="m90.09375 100.539062c-4.273438-3.082031-10.1875-2.429687-13.625 1.5625l-10.972656 12.730469c-3.503906 4.066407-3.238282 10.175781.644531 13.875 9.144531 8.71875 23.675781 26.019531 23.675781 47.898438 0 31.921875 35.871094 56.96875 35.871094 56.96875l16.953125-84.285157c-26.042969 0-28.90625-31.703124-52.546875-48.75zm0 0" fill="#ff9ec0"/><g fill="#ff66a8"><path d="m125.6875 233.574219 16.953125-84.285157c-10.015625 0-16.597656-4.699218-22.257813-11.4375-9.761718 22.339844-16.058593 46.683594-18.519531 71.777344 10.421875 14.574219 23.824219 23.945313 23.824219 23.945313zm0 0"/><path d="m448.007812 174.957031c-3.480468-14.039062-8.207031-27.625-14.09375-40.515625-16.371093.980469-33.671874 5.613282-51.449218 13.804688l16.4375 35.683594c13.445312-6.191407 26.640625-9.761719 38.160156-10.320313 4.300781-.210937 7.945312.257813 10.945312 1.347656zm0 0"/><path d="m454.441406 215.121094c-4.320312 8.335937-11.769531 15.371094-22.53125 21.273437-14.761718 8.09375-35.058594 13.28125-55.691406 14.222657l1.796875 39.25c15.523437-.710938 45.625-4.125 72.789063-19.027344.570312-.308594 1.125-.628906 1.683593-.949219 1.753907-11.871094 2.652344-24.011719 2.652344-36.316406 0-6.179688-.238281-12.335938-.699219-18.453125zm0 0"/></g><path d="m393.804688 114.496094-115.894532-18.765625-115.890625 18.765625c-22.652343 32.066406-36.332031 73.640625-36.332031 119.078125 0 51.613281 17.652344 98.25 46.0625 131.617187l106.160156 17.679688 106.164063-17.679688c28.40625-33.367187 46.0625-80.003906 46.0625-131.617187 0-45.4375-13.679688-87.011719-36.332031-119.078125zm0 0" fill="#ececee"/><path d="m201.753906 365.191406c-28.410156-33.367187-46.0625-80.003906-46.0625-131.617187 0-45.4375 13.679688-87.011719 36.332032-119.078125l100.890624-16.335938-15.003906-2.429687-115.890625 18.765625c-22.652343 32.066406-36.332031 73.640625-36.332031 119.078125 0 51.613281 17.652344 98.25 46.0625 131.617187l106.160156 17.679688 15.003906-2.5zm0 0" fill="#dadadc"/><path d="m154.152344 339.652344c-6.78125 0-12.277344-5.496094-12.277344-12.277344s5.496094-12.277344 12.277344-12.277344c31.269531 0 47.085937-10.941406 51.132812-20.308594 1.007813-2.335937 2.199219-6.777343-1.125-10.308593-6.417968-6.808594-21.550781-4.5625-32.558594-.566407-6.375 2.308594-13.414062-.980468-15.730468-7.355468-2.3125-6.371094.980468-13.414063 7.351562-15.726563 35.234375-12.792969 52.863282.5 58.808594 6.808594 9.1875 9.75 11.410156 23.878906 5.796875 36.878906-3.558594 8.242188-19.386719 35.132813-73.675781 35.132813zm0 0" fill="#6dd1e0"/><path d="m164.171875 233.574219h-131.429687c-12.160157 0-21.183594 11.265625-18.527344 23.128906l16.300781 72.796875c4.667969 20.863281 23.183594 35.691406 44.5625 35.691406l27.757813 17.679688 19-17.679688c21.375 0 39.890624-14.828125 44.5625-35.691406l16.296874-72.796875c2.65625-11.863281-6.367187-23.128906-18.523437-23.128906zm0 0" fill="#ff9ec0"/><path d="m95.078125 365.191406c-21.375 0-39.890625-14.828125-44.5625-35.691406l-16.296875-72.796875c-2.65625-11.863281 6.367188-23.128906 18.523438-23.128906h-20c-12.160157 0-21.179688 11.265625-18.527344 23.128906l16.300781 72.796875c4.667969 20.863281 23.183594 35.691406 44.5625 35.691406l27.757813 17.679688 8.128906-7.5625zm0 0" fill="#ff66a8"/><path d="m400.503906 76.738281h-245.183594c-10.488281 0-18.992187 8.503907-18.992187 18.992188 0 10.492187 8.503906 18.996093 18.992187 18.996093h245.183594c10.492188 0 18.992188-8.507812 18.992188-18.996093s-8.503906-18.992188-18.992188-18.992188zm0 0" fill="#6dd1e0"/><path d="m166.332031 95.730469c0-10.488281 8.503907-18.992188 18.992188-18.992188h-30.003907c-10.492187 0-18.996093 8.503907-18.996093 18.992188 0 10.492187 8.507812 18.996093 18.996093 18.996093h30.003907c-10.488281 0-18.992188-8.503906-18.992188-18.996093zm0 0" fill="#34bed2"/><path d="m493.085938 365.191406h-474.167969c-7.875 0-13.394531 7.773438-10.800781 15.207032l3.703124 10.609374c6.367188 18.261719 23.59375 30.496094 42.933594 30.496094h402.496094c19.34375 0 36.566406-12.234375 42.9375-30.496094l3.699219-10.609374c2.59375-7.433594-2.925781-15.207032-10.800781-15.207032zm0 0" fill="#6dd1e0"/><path d="m41.820312 391.007812-3.699218-10.609374c-2.59375-7.433594 2.925781-15.207032 10.800781-15.207032h-30.003906c-7.875 0-13.394531 7.773438-10.800781 15.207032l3.699218 10.609374c6.371094 18.261719 23.59375 30.496094 42.9375 30.496094h30.003906c-19.339843 0-36.566406-12.234375-42.9375-30.496094zm0 0" fill="#34bed2"/><path d="m204.015625 157.996094c-4.144531 0-7.503906 3.355468-7.503906 7.5v13.375c0 4.140625 3.359375 7.5 7.503906 7.5 4.140625 0 7.5-3.359375 7.5-7.5v-13.375c0-4.140625-3.359375-7.5-7.5-7.5zm0 0"/><path d="m351.808594 157.996094c-4.144532 0-7.5 3.355468-7.5 7.5v13.375c0 4.140625 3.355468 7.5 7.5 7.5 4.140625 0 7.5-3.359375 7.5-7.5v-13.375c0-4.140625-3.359375-7.5-7.5-7.5zm0 0"/><path d="m301.085938 172.292969c-3.121094-2.726563-7.859376-2.410157-10.585938.710937-3.058594 3.496094-7.644531 5.503906-12.589844 5.503906-4.945312 0-9.535156-2.007812-12.59375-5.503906-2.722656-3.121094-7.460937-3.441406-10.582031-.710937-3.121094 2.726562-3.4375 7.464843-.710937 10.582031 5.90625 6.757812 14.613281 10.632812 23.886718 10.632812 9.273438 0 17.980469-3.875 23.886719-10.632812 2.726563-3.117188 2.410156-7.855469-.710937-10.582031zm0 0"/><path d="m54.589844 273.023438c-4.144532 0-7.5 3.359374-7.5 7.5v7.941406c0 4.140625 3.355468 7.5 7.5 7.5 4.144531 0 7.5-3.359375 7.5-7.5v-7.941406c0-4.140626-3.355469-7.5-7.5-7.5zm0 0"/><path d="m142.320312 295.964844c4.144532 0 7.503907-3.359375 7.503907-7.5v-7.941406c0-4.140626-3.359375-7.5-7.503907-7.5-4.140624 0-7.5 3.359374-7.5 7.5v7.941406c0 4.140625 3.359376 7.5 7.5 7.5zm0 0"/><path d="m114.21875 282.265625c-3.117188-2.726563-7.855469-2.410156-10.582031.707031-1.238281 1.417969-3.125 2.226563-5.179688 2.226563-2.058593 0-3.945312-.808594-5.179687-2.226563-2.726563-3.117187-7.46875-3.4375-10.585938-.707031-3.121094 2.726563-3.4375 7.464844-.710937 10.582031 4.085937 4.675782 10.089843 7.355469 16.476562 7.355469 6.382813 0 12.386719-2.679687 16.472657-7.355469 2.726562-3.117187 2.40625-7.855468-.710938-10.582031zm0 0"/><path d="m4.734375 393.480469c7.414063 21.25 27.511719 35.527343 50.019531 35.527343h402.496094c22.503906 0 42.605469-14.277343 50.019531-35.527343 0 0 3.695313-10.597657 3.699219-10.609375 4.230469-12.121094-5.074219-25.179688-17.882812-25.179688h-31.601563c-4.140625 0-7.5 3.359375-7.5 7.5 0 4.144532 3.359375 7.5 7.5 7.5h31.601563c2.707031.003906 4.605468 2.699219 3.71875 5.238282l-3.703126 10.609374c-5.3125 15.230469-19.71875 25.464844-35.851562 25.464844h-402.496094c-16.132812 0-30.539062-10.234375-35.855468-25.464844 0 0-3.699219-10.609374-3.703126-10.609374-.886718-2.546876 1.046876-5.238282 3.722657-5.238282h412.5625c4.140625 0 7.5-3.355468 7.5-7.5 0-4.140625-3.359375-7.5-7.5-7.5h-32.058594c14.773437-20.644531 25.527344-44.464844 31.792969-70.125 8.277344-2.835937 16.0625-6.234375 23.195312-10.148437 30.207032-16.566407 47.792969-41.527344 50.859375-72.191407 2.355469-23.539062-3.910156-44.457031-17.632812-58.902343-13.605469-14.316407-33.453125-20.390625-52.851563-19.449219-7.316406.355469-14.886718 1.433594-22.578125 3.1875-1.585937-2.953125-3.246093-5.855469-4.972656-8.703125 11.359375-2.988281 19.761719-13.34375 19.761719-25.628906 0-13.738281-10.515625-25.070313-23.921875-26.367188-8.804688-6.113281-46.539063-30.664062-95.269531-38.570312.007812-.289063.035156-.574219.035156-.863281 0-16.503907-13.425782-29.929688-29.929688-29.929688s-29.929687 13.425781-29.929687 29.929688c0 .289062.027343.574218.035156.863281-48.734375 7.910156-86.464844 32.457031-95.269531 38.570312-13.40625 1.296875-23.921875 12.628907-23.921875 26.371094 0 12.28125 8.402343 22.636719 19.757812 25.625-3.867187 6.382813-7.390625 13.03125-10.550781 19.902344-7.925781-1.871094-12.878906-8.789063-20.101562-19.769531-5.941407-9.027344-12.671876-19.261719-23.453126-27.035157-7.328124-5.285156-17.785156-4.105469-23.691406 2.75l-10.976562 12.730469c-6.128906 7.113281-5.625 17.742188 1.148437 24.199219 7.976563 7.605469 21.355469 23.234375 21.355469 42.46875 0 20.425781 12.664062 38.050781 23.601562 49.46875 0 0-73.113281 0-73.175781 0-16.699219 0-29.492187 15.980469-25.84375 32.269531l16.296875 72.796875c2.339844 10.453125 7.578125 19.546875 14.761719 26.550781 0 0-19.023437 0-19.035156 0-12.816407 0-22.109375 13.074219-17.886719 25.179688zm178.542969-105.035157c2.761718-.535156 5.371094-.820312 7.6875-.820312 2.628906 0 9.195312.101562 7.429687 4.191406-2.511719 5.824219-10.3125 9.933594-18.65625 12.4375zm-8.085938 36.109376.882813-3.933594c18.058593-3.5625 31.371093-11.917969 36.09375-22.859375 2.914062-6.75 1.960937-13.636719-2.550781-18.425781-4.886719-5.1875-12.625-7.410157-22.839844-6.523438l2.195312-9.804688c.550782-.015624 1.097656-.023437 1.636719-.023437 14.550781 0 22.511719 6.140625 25.960937 9.800781 7.101563 7.535156 8.777344 18.558594 4.371094 28.761719-2.542968 5.886719-13.050781 24.011719-47.132812 29.195313zm.070313 33.132812c-2.746094-3.367188-5.398438-6.898438-7.941407-10.5625.113282-.1875.226563-.371094.335938-.558594 48.304688-4.230468 63.496094-30.828125 67.058594-39.074218 6.816406-15.789063 4.046875-33.03125-7.226563-44.996094-5.109375-5.421875-16.691406-14.515625-36.878906-14.515625-.113281 0-.226563.003906-.339844.003906-.753906-4.324219-2.59375-8.441406-5.429687-11.984375-4.976563-6.21875-12.707032-9.929688-20.671875-9.929688h-30.839844c.019531-.476562.035156-.953124.054687-1.433593 1.5625-37.410157 12.914063-73.339844 32.421876-102.410157h224.210937c4.515625 6.722657 8.585937 13.816407 12.207031 21.210938 20.625 41.964844 25.496094 91.191406 15.285156 136.683594-.054687.253906-.085937.507812-.117187.761718-6.542969 28.746094-19.066406 55.0625-36.828125 76.804688zm260.253906-215.839844c15.183594-.652344 30.550781 3.554688 41.246094 14.808594 10.671875 11.230469 15.496093 27.949219 13.582031 47.074219-2.554688 25.519531-17.472656 46.453125-43.148438 60.53125-3.933593 2.160156-8.105468 4.152343-12.472656 5.957031 1.492188-9.28125 2.417969-18.753906 2.757813-28.359375 17.363281-10.097656 27.015625-23.730469 28.699219-40.546875 1.214843-12.15625-1.214844-21.8125-7.023438-27.925781-5.742188-6.050781-14.445312-7.664063-22.460938-7.273438-2.894531.140625-5.902343.460938-8.996093.949219-2.453125-7.921875-5.355469-15.65625-8.675781-23.132812 5.425781-1.078126 10.953124-1.84375 16.492187-2.082032zm1.910156 39.25c3.496094-.171875 8.25-.117187 10.855469 2.621094 2.59375 2.730469 3.703125 8.75 2.96875 16.101562-.957031 9.5625-5.417969 17.363282-13.828125 24.023438-.613281-14.34375-2.574219-28.492188-5.800781-42.1875 1.992187-.269531 3.9375-.464844 5.804687-.558594zm-159.515625-166.097656c7.902344 0 14.390625 6.171875 14.894532 13.949219-1.230469-.101563-2.464844-.191407-3.707032-.269531-3.722656-.253907-7.453125-.359376-11.1875-.359376-4.972656 0-9.9375.21875-14.894531.628907.507813-7.777344 6.996094-13.949219 14.894531-13.949219zm-134.082031 80.730469c0-6.335938 5.15625-11.492188 11.492187-11.492188h67.132813c4.144531 0 7.5-3.359375 7.5-7.5 0-4.144531-3.355469-7.5-7.5-7.5h-40.261719c17.972656-9.484375 45.261719-21.082031 76.296875-24.742187 12.777344-1.507813 25.636719-1.515625 38.421875-.046875 31.140625 3.609375 58.597656 15.265625 76.671875 24.789062h-121.125c-4.140625 0-7.5 3.355469-7.5 7.5 0 4.140625 3.359375 7.5 7.5 7.5h148.046875c6.335938 0 11.492188 5.15625 11.492188 11.492188 0 6.339843-5.15625 11.496093-11.492188 11.496093h-245.183594c-6.339843-.003906-11.492187-5.15625-11.492187-11.496093zm-72.515625 27.546875c-.984375-.9375-1.042969-2.496094-.136719-3.546875 0 0 10.972657-12.730469 10.976563-12.734375.894531-1.039063 2.453125-1.164063 3.550781-.375 8.539063 6.160156 14.210937 14.777344 19.691406 23.113281 7.003907 10.648437 14.199219 21.582031 26.761719 25.527344-7.476562 19.847656-11.976562 40.773437-13.441406 62.484375-9.445313-9.304688-21.398438-24.382813-21.398438-41.140625 0-24.828125-16.289062-44.066407-26.003906-53.328125zm-33.480469 204.585937s-16.273437-72.695312-16.296875-72.796875c-1.578125-7.046875 4.003906-13.992187 11.203125-13.992187h131.433594c7.207031 0 12.773437 6.976562 11.203125 13.992187 0 0-16.292969 72.777344-16.296875 72.796875-1.230469 5.503907-3.917969 10.328125-7.066406 15.09375-7.023438 9.097657-17.980469 14.734375-30.175781 14.734375h-46.761719c-17.996094-.003906-33.308594-12.265625-37.242188-29.828125zm0 0"/></svg>