<?xml version="1.0" encoding="iso-8859-1"?>
<!-- Generator: Adobe Illustrator 19.0.0, SVG Export Plug-In . SVG Version: 6.00 Build 0)  -->
<svg version="1.1" id="Capa_1" xmlns="http://www.w3.org/2000/svg" xmlns:xlink="http://www.w3.org/1999/xlink" x="0px" y="0px"
	 viewBox="0 0 512.002 512.002" style="enable-background:new 0 0 512.002 512.002;" xml:space="preserve">
<path style="fill:#2DADE3;" d="M108.751,262.5v75c24.853,0,45-20.147,45-45L108.751,262.5z"/>
<path style="fill:#49C9FF;" d="M123.751,292.5l-15-30l-45,30c0,24.853,20.147,45,45,45C117.035,337.5,123.751,317.353,123.751,292.5
	z"/>
<path style="fill:#FFF0D3;" d="M133.751,172.5h-30l20,120h30v-100C153.751,181.454,144.797,172.5,133.751,172.5z"/>
<path style="fill:#FFFFFF;" d="M103.751,172.5h-20c-11.046,0-20,8.954-20,20v100h60v-100
	C123.751,181.454,114.797,172.5,103.751,172.5z"/>
<circle style="fill:#FF8646;" cx="108.75" cy="30" r="22.5"/>
<path style="fill:#FFB4A9;" d="M108.751,52.5v101l45-46v-10C153.751,72.647,133.604,52.5,108.751,52.5z"/>
<path style="fill:#FFD9D4;" d="M108.751,52.5c-24.853,0-45,20.147-45,45v10l60,46v-56C123.751,72.647,117.035,52.5,108.751,52.5z"/>
<path style="fill:#FF6337;" d="M127.46,107.5c-1.053-1.573-2.303-3.002-3.709-4.261l-15,69.261c24.853,0,45-20.147,45-45v-20H127.46
	z"/>
<path style="fill:#FF8646;" d="M123.751,127.5v-24.261c-3.981-3.566-9.235-5.739-15-5.739c-7.801,0-14.672,3.971-18.709,10H63.751
	v20c0,24.853,20.147,45,45,45C117.035,172.5,123.751,152.353,123.751,127.5z"/>
<path style="fill:#FFB4A9;" d="M436.506,123.335c0.01-0.01-34.255-0.005-34.255-0.005v74.17c24.85,0,45-20.15,45-45
	C447.251,141.38,443.206,131.185,436.506,123.335z"/>
<path style="fill:#FFD9D4;" d="M416.141,135.51l-48.145-12.175c-6.7,7.85-10.745,18.045-10.745,29.165c0,24.85,20.15,45,45,45
	c8.28,0,15-20.15,15-45C417.251,146.49,416.861,140.75,416.141,135.51z"/>
<path style="fill:#FF8646;" d="M402.251,107.5l13.89,28.01c7.45-2.23,14.475-6.295,20.365-12.175
	C428.256,113.645,415.971,107.5,402.251,107.5z"/>
<path style="fill:#FFA754;" d="M402.251,107.5c-13.72,0-26.005,6.145-34.255,15.835c13.04,13.04,31.645,17.105,48.145,12.175
	C413.911,119.08,408.531,107.5,402.251,107.5z"/>
<path style="fill:#999999;" d="M402.251,277.5v90c24.853,0,45-20.147,45-45L402.251,277.5z"/>
<path style="fill:#B3B3B3;" d="M417.251,322.5l-15-45l-45,45c0,24.853,20.147,45,45,45C410.535,367.5,417.251,347.353,417.251,322.5
	z"/>
<path style="fill:#FF6337;" d="M427.251,227.5h-30l20,95h30v-75C447.251,236.454,438.297,227.5,427.251,227.5z"/>
<path style="fill:#FF8646;" d="M397.251,227.5h-20c-11.046,0-20,8.954-20,20v75h60v-75C417.251,236.454,408.297,227.5,397.251,227.5
	z"/>
<g>
	<rect x="63.751" y="255" style="fill:#FFCB63;" width="90" height="15"/>
	<rect x="63.751" y="225" style="fill:#FFCB63;" width="90" height="15"/>
</g>
<path d="M258.751,140c-4.143,0-7.5,3.358-7.5,7.5c0,20.678-16.822,37.5-37.5,37.5h-53.548c-2.378-8.375-8.63-15.132-16.691-18.204
	c10.869-9.626,17.739-23.67,17.739-39.296v-30c0-20.965-12.356-39.091-30.165-47.499c4.762-5.312,7.665-12.323,7.665-20.001
	c0-16.542-13.458-30-30-30s-30,13.458-30,30c0,7.678,2.903,14.689,7.665,20.001C68.607,58.409,56.251,76.535,56.251,97.5v30
	c0,15.626,6.87,29.67,17.739,39.296c-8.185,3.119-14.507,10.036-16.801,18.589C28.564,188.654,6.251,213.014,6.251,242.5
	c0,29.331,22.079,53.585,50.488,57.057c1.613,11.945,7.253,22.624,15.512,30.626v75.032l-43.726,65.104
	c-0.831,1.236-1.274,2.692-1.274,4.182v30c0,4.142,3.357,7.5,7.5,7.5s7.5-3.358,7.5-7.5v-27.715l43.726-65.104
	c0.831-1.236,1.274-2.692,1.274-4.182v-67.123c6.567,2.961,13.841,4.623,21.5,4.623c8.048,0,15.676-1.825,22.5-5.076V494.5
	c0,3.228,2.065,6.094,5.128,7.115l30,10c0.787,0.262,1.587,0.387,2.373,0.387c3.141,0,6.066-1.988,7.114-5.13
	c1.31-3.93-0.813-8.177-4.743-9.487l-24.872-8.291V329.192c9.27-9.472,15-22.423,15-36.692V200h52.5c28.948,0,52.5-23.551,52.5-52.5
	C266.251,143.358,262.894,140,258.751,140z M93.751,30c0-8.271,6.729-15,15-15s15,6.729,15,15s-6.729,15-15,15
	S93.751,38.271,93.751,30z M108.751,60c20.678,0,37.5,16.822,37.5,37.5v2.5h-15.139c-5.653-6.325-13.747-10-22.361-10
	s-16.708,3.675-22.361,10H71.251v-2.5C71.251,76.822,88.073,60,108.751,60z M71.251,127.5V115h18.791
	c2.502,0,4.84-1.248,6.232-3.327c2.797-4.178,7.462-6.673,12.477-6.673s9.68,2.495,12.477,6.673c1.393,2.079,3.73,3.327,6.232,3.327
	h18.791v12.5c0,20.678-16.822,37.5-37.5,37.5S71.251,148.178,71.251,127.5z M83.751,180h50c6.893,0,12.5,5.607,12.5,12.5V285h-75
	v-92.5C71.251,185.607,76.858,180,83.751,180z M21.251,242.5c0-20.875,15.132-38.27,35-41.824v83.648
	C36.383,280.77,21.251,263.375,21.251,242.5z M86.416,322.603c-0.879-1.705-2.39-3.025-4.225-3.657
	c-5.074-5.096-8.696-11.637-10.186-18.946h73.491c-3.484,17.096-18.635,30-36.745,30C100.389,330,92.66,327.247,86.416,322.603z"/>
<path d="M402.251,205c28.948,0,52.5-23.551,52.5-52.5s-23.552-52.5-52.5-52.5s-52.5,23.551-52.5,52.5S373.303,205,402.251,205z
	 M425.273,122.931c-13.839,9.42-32.206,9.42-46.044,0c6.36-4.963,14.348-7.931,23.022-7.931S418.913,117.968,425.273,122.931z
	 M369.431,134.384c9.751,7.072,21.284,10.615,32.82,10.615s23.069-3.542,32.82-10.615c2.978,5.374,4.68,11.549,4.68,18.116
	c0,20.678-16.822,37.5-37.5,37.5s-37.5-16.822-37.5-37.5C364.751,145.933,366.453,139.758,369.431,134.384z"/>
<path d="M500.623,440.385l-60.872-20.291v-60.902c7.739-7.908,12.998-18.243,14.526-29.744
	c21.488-3.384,37.974-22.025,37.974-44.448c0-22.574-16.71-41.314-38.409-44.513C450.733,228.71,439.991,220,427.251,220h-50
	c-12.442,0-22.976,8.309-26.357,19.668c-30.659-3.19-54.643-29.179-54.643-60.668v-31.5c0-4.142-3.357-7.5-7.5-7.5
	s-7.5,3.358-7.5,7.5V179c0,39.376,30.102,71.847,68.5,75.627V322.5c0,14.269,5.73,27.22,15,36.692v129.902l-24.872,8.291
	c-3.929,1.31-6.053,5.558-4.743,9.487c1.048,3.143,3.974,5.13,7.114,5.13c0.786,0,1.586-0.125,2.373-0.387l30-10
	c3.062-1.021,5.128-3.887,5.128-7.115V369.924c6.824,3.251,14.452,5.076,22.5,5.076s15.676-1.825,22.5-5.076V425.5
	c0,3.228,2.065,6.094,5.128,7.115l60.872,20.291V477.5c0,4.142,3.357,7.5,7.5,7.5s7.5-3.358,7.5-7.5v-30
	C505.751,444.272,503.686,441.406,500.623,440.385z M477.251,285c0,13.953-9.575,25.712-22.5,29.051V255.95
	C467.676,259.288,477.251,271.047,477.251,285z M377.251,235h50c6.893,0,12.5,5.607,12.5,12.5V315h-75v-67.5
	C364.751,240.607,370.358,235,377.251,235z M365.506,330h73.491c-3.484,17.096-18.635,30-36.745,30S368.99,347.096,365.506,330z"/>
<g>
</g>
<g>
</g>
<g>
</g>
<g>
</g>
<g>
</g>
<g>
</g>
<g>
</g>
<g>
</g>
<g>
</g>
<g>
</g>
<g>
</g>
<g>
</g>
<g>
</g>
<g>
</g>
<g>
</g>
</svg>
