<svg height="511pt" viewBox="0 -1 511.998 511" width="511pt" xmlns="http://www.w3.org/2000/svg"><path d="m57.1875 502.320312c-2.988281 0-6.003906-.890624-8.632812-2.742187-6.769532-4.773437-8.386719-14.132813-3.613282-20.902344l129.101563-183.058593c4.773437-6.769532 14.132812-8.390626 20.902343-3.613282 6.769532 4.773438 8.386719 14.132813 3.613282 20.902344l-129.101563 183.058594c-2.921875 4.140625-7.558593 6.355468-12.269531 6.355468zm0 0" fill="#485b73"/><path d="m454.8125 502.320312c2.988281 0 6.003906-.890624 8.632812-2.742187 6.769532-4.773437 8.386719-14.132813 3.613282-20.902344l-129.101563-183.058593c-4.773437-6.769532-14.132812-8.390626-20.902343-3.613282-6.769532 4.773438-8.386719 14.132813-3.613282 20.902344l129.101563 183.058594c2.921875 4.140625 7.558593 6.355468 12.269531 6.355468zm0 0" fill="#485b73"/><path d="m454.800781 184.433594-49.699219-85.582032v-17.121093c0-12.113281-9.824218-21.933594-21.9375-21.933594h-55.527343c-12.117188 0-21.9375 9.820313-21.9375 21.933594l-49.699219 102.703125 49.699219 102.707031c0 12.113281 9.820312 21.933594 21.9375 21.933594h55.527343c12.113282 0 21.9375-9.820313 21.9375-21.933594v-17.125zm0 0" fill="#ff6881"/><path d="m206.300781 64.609375v-17.121094c0-12.113281-9.820312-21.933593-21.9375-21.933593h-55.527343c-12.113282 0-21.9375 9.820312-21.9375 21.933593l-49.699219 136.476563 49.699219 137.417968c0 12.113282 9.824218 21.933594 21.9375 21.933594h55.527343c12.117188 0 21.9375-9.820312 21.9375-21.933594v-17.121093l49.699219-119.828125zm0 0" fill="#ff9ec0"/><path d="m84.964844 7.960938h-55.53125c-12.113282 0-21.933594 9.820312-21.933594 21.933593v308.136719c0 12.117188 9.820312 21.9375 21.933594 21.9375h55.53125c12.113281 0 21.933594-9.820312 21.933594-21.9375v-308.136719c0-12.113281-9.820313-21.933593-21.933594-21.933593zm0 0" fill="#4d9ae8"/><path d="m186.300781 229.5625c-41.191406 0-74.699219 33.507812-74.699219 74.699219 0 13.855469 3.804688 26.832031 10.402344 37.964843 2.152344.707032 4.445313 1.089844 6.832032 1.089844h55.53125c12.113281 0 21.933593-9.820312 21.933593-21.933594v-17.121093l24.777344-59.742188c-12.484375-9.386719-27.988281-14.957031-44.777344-14.957031zm0 0" fill="#ff66a8"/><path d="m325.699219 229.5625c-15.429688 0-29.773438 4.714844-41.683594 12.765625l21.683594 44.8125c0 12.113281 9.820312 21.933594 21.9375 21.933594h55.527343c6.945313 0 13.128907-3.230469 17.148438-8.265625-1.808594-39.589844-34.578125-71.246094-74.613281-71.246094zm0 0" fill="#de4b64"/><path d="m283.765625 42.675781h-55.53125c-12.113281 0-21.933594 9.820313-21.933594 21.933594v239.652344c0 12.113281 9.820313 21.933593 21.933594 21.933593h55.53125c12.113281 0 21.933594-9.820312 21.933594-21.933593v-239.652344c0-12.113281-9.820313-21.933594-21.933594-21.933594zm0 0" fill="#ffe675"/><path d="m482.566406 76.917969h-55.53125c-12.113281 0-21.933594 9.820312-21.933594 21.933593v171.164063c0 12.117187 9.820313 21.9375 21.933594 21.9375h55.53125c12.113282 0 21.933594-9.820313 21.933594-21.9375v-171.164063c0-12.113281-9.820312-21.933593-21.933594-21.933593zm0 0" fill="#4cb4a4"/><path d="m256 277.4375c-8.445312-21.867188-26.886719-38.804688-49.699219-45.15625v71.980469c0 12.113281 9.820313 21.933593 21.933594 21.933593h55.53125c12.113281 0 21.933594-9.820312 21.933594-21.933593v-71.980469c-22.8125 6.351562-41.253907 23.289062-49.699219 45.15625zm0 0" fill="#ffb258"/><path d="m236 304.261719c0 27.449219-22.25 49.699219-49.699219 49.699219s-49.699219-22.25-49.699219-49.699219 22.25-49.699219 49.699219-49.699219 49.699219 22.25 49.699219 49.699219zm0 0" fill="#ececee"/><path d="m206.300781 333.960938c-27.449219 0-49.699219-22.25-49.699219-49.699219 0-8.582031 2.171876-16.65625 6-23.699219-15.488281 8.417969-26 24.832031-26 43.699219 0 27.449219 22.25 49.699219 49.699219 49.699219 18.867188 0 35.277344-10.515626 43.695313-26.003907-7.042969 3.828125-15.113282 6.003907-23.695313 6.003907zm0 0" fill="#dadadc"/><path d="m375.398438 304.261719c0 27.449219-22.25 49.699219-49.699219 49.699219s-49.699219-22.25-49.699219-49.699219 22.25-49.699219 49.699219-49.699219 49.699219 22.25 49.699219 49.699219zm0 0" fill="#ececee"/><path d="m345.699219 333.960938c-27.449219 0-49.699219-22.25-49.699219-49.699219 0-8.582031 2.175781-16.65625 6.003906-23.699219-15.488281 8.417969-26.003906 24.832031-26.003906 43.699219 0 27.449219 22.25 49.699219 49.699219 49.699219 18.867187 0 35.28125-10.515626 43.699219-26.003907-7.046876 3.828125-15.117188 6.003907-23.699219 6.003907zm0 0" fill="#dadadc"/><path d="m482.5625 69.457031h-55.527344c-5.691406 0-11.007812 1.628907-15.515625 4.4375-3.453125-12.417969-14.855469-21.558593-28.355469-21.558593h-55.527343c-5.691407 0-11.007813 1.628906-15.515625 4.433593-3.453125-12.414062-14.855469-21.554687-28.355469-21.554687h-55.53125c-5.6875 0-11.003906 1.625-15.511719 4.433594-3.453125-12.414063-14.855468-21.558594-28.355468-21.558594h-55.53125c-5.644532 0-10.917969 1.601562-15.402344 4.363281-3.316406-12.617187-14.820313-21.953125-28.46875-21.953125h-55.527344c-16.234375 0-29.4375 13.203125-29.4375 29.433594v308.140625c0 16.230469 13.203125 29.433593 29.433594 29.433593h55.53125c13.355468 0 24.65625-8.945312 28.242187-21.160156 3.785157 2.382813 8.144531 3.925782 12.824219 4.371094 0 0-87.199219 123.644531-87.21875 123.671875-7.074219 10.03125-4.59375 24.292969 5.417969 31.351563 10.023437 7.070312 24.292969 4.601562 31.355469-5.417969l98.792968-140.082031c3.847656.820312 7.832032 1.257812 11.921875 1.257812 20.78125 0 39.003907-11.144531 49.023438-27.765625h41.351562c10.015625 16.621094 28.242188 27.765625 49.023438 27.765625 4.085937 0 8.074219-.4375 11.917969-1.257812 0 0 98.734374 140 98.792968 140.082031 7.0625 10.011719 21.351563 12.480469 31.355469 5.421875 10.007813-7.058594 12.476563-21.347656 5.421875-31.355469l-98.804688-140.101563c3.316407-5.367187 5.769532-11.324218 7.167969-17.675781h1.613281c13.5 0 24.902344-9.140625 28.355469-21.558593 4.507813 2.808593 9.824219 4.4375 15.515625 4.4375h55.527344c16.230469 0 29.433594-13.207032 29.433594-29.4375v-171.160157c.003906-16.234375-13.199219-29.4375-29.433594-29.4375zm-353.726562 266.398438c-7.960938 0-14.4375-6.472657-14.4375-14.433594v-187.648437c0-4.140626-3.355469-7.5-7.5-7.5-4.140626 0-7.5 3.359374-7.5 7.5v204.300781c0 7.957031-6.476563 14.433593-14.433594 14.433593h-55.53125c-7.957032 0-14.433594-6.476562-14.433594-14.433593v-308.140625c0-7.957032 6.476562-14.433594 14.433594-14.433594h55.53125c7.957031 0 14.433594 6.476562 14.433594 14.433594v73.839844c0 4.140624 3.359374 7.5 7.5 7.5 4.144531 0 7.5-3.359376 7.5-7.5v-56.246094c0-7.960938 6.476562-14.433594 14.4375-14.433594h55.527343c7.960938 0 14.4375 6.472656 14.4375 14.433594v200.945312c-.179687-.039062-.359375-.066406-.535156-.105468-3.925781-.839844-7.953125-1.265626-11.964844-1.265626-31.019531-.007812-57.199219 26.039063-57.199219 57.199219 0 10.550781 2.9375 21.046875 8.492188 30.023438l-1.082031 1.53125zm-65.507813 155.824219c-2.355469 3.34375-7.117187 4.160156-10.449219 1.808593-3.347656-2.359375-4.167968-7.101562-1.808594-10.453125l93.21875-132.175781h8.777344c2.125 1.519531 4.351563 2.902344 6.671875 4.117187 0 0-96.246093 136.46875-96.410156 136.703126zm122.972656-145.179688c-22.652343 0-42.199219-19.53125-42.199219-42.199219 0-22.851562 19.207032-42.199219 42.199219-42.199219h.039063c22.726562.007813 42.160156 19.480469 42.160156 42.199219 0 22.996094-19.234375 42.199219-42.199219 42.199219zm84.035157-27.765625h-28.671876c.734376-2.808594 1.246094-5.671875 1.539063-8.597656 2.269531-22.457031-9.441406-45.042969-29.402344-55.992188v-189.496093c0-7.957032 6.476563-14.433594 14.4375-14.433594h55.527344c7.960937 0 14.4375 6.472656 14.4375 14.433594v189.496093c-8.945313 4.910157-16.269531 12.042969-21.410156 20.519531-7.925781 13.070313-10.316407 29.277344-6.457031 44.070313zm17.507812 3.835937c-13.53125-27.273437 7.589844-60.46875 37.855469-60.46875 23.292969 0 43.261719 20.957032 42.148437 44.238282-1.054687 22.167968-19.964844 40.160156-42.148437 40.160156-16.421875 0-30.917969-9.941406-37.855469-23.929688zm174.300781 166.058594c-.328125 1.90625-1.367187 3.6875-3.023437 4.859375-3.34375 2.355469-8.09375 1.535157-10.449219-1.808593l-96.410156-136.707032c4.445312-2.328125 8.558593-5.230468 12.25-8.652344 0 0 96.308593 136.5625 96.417969 136.714844 1.167968 1.660156 1.546874 3.6875 1.214843 5.59375zm34.855469-218.570312c0 7.957031-6.476562 14.433594-14.4375 14.433594h-55.527344c-7.960937 0-14.4375-6.476563-14.4375-14.433594v-31.285156c0-4.140626-3.355468-7.5-7.5-7.5-4.140625 0-7.5 3.359374-7.5 7.5v48.40625c0 7.957031-6.476562 14.433593-14.433594 14.433593h-.328124c-1.296876-29.976562-27.207032-54.511719-57.136719-54.511719-4.191407 0-8.40625.457032-12.5 1.371094v-166.703125c0-7.957031 6.476562-14.433593 14.433593-14.433593h55.53125c7.957032 0 14.433594 6.476562 14.433594 14.433593v127.003907c0 4.140624 3.359375 7.5 7.5 7.5 4.144532 0 7.5-3.359376 7.5-7.5v-109.878907c0-7.960937 6.476563-14.4375 14.4375-14.4375h55.527344c7.960938 0 14.4375 6.476563 14.4375 14.4375zm0 0"/><path d="m67.902344 56.1875c0 5.910156-4.792969 10.703125-10.703125 10.703125-5.910157 0-10.703125-4.792969-10.703125-10.703125s4.792968-10.703125 10.703125-10.703125c5.910156 0 10.703125 4.792969 10.703125 10.703125zm0 0"/><path d="m167.304688 70.558594c0 5.910156-4.792969 10.703125-10.703126 10.703125-5.914062 0-10.703124-4.792969-10.703124-10.703125s4.789062-10.703125 10.703124-10.703125c5.910157 0 10.703126 4.792969 10.703126 10.703125zm0 0"/><path d="m266.703125 84.933594c0 5.910156-4.792969 10.703125-10.703125 10.703125s-10.703125-4.792969-10.703125-10.703125c0-5.914063 4.792969-10.703125 10.703125-10.703125s10.703125 4.789062 10.703125 10.703125zm0 0"/><path d="m266.703125 284.019531c0 5.910157-4.792969 10.703125-10.703125 10.703125s-10.703125-4.792968-10.703125-10.703125c0-5.914062 4.792969-10.703125 10.703125-10.703125s10.703125 4.789063 10.703125 10.703125zm0 0"/><path d="m366.101562 99.304688c0 5.910156-4.789062 10.703124-10.703124 10.703124-5.910157 0-10.703126-4.792968-10.703126-10.703124 0-5.910157 4.792969-10.703126 10.703126-10.703126 5.914062 0 10.703124 4.792969 10.703124 10.703126zm0 0"/><path d="m465.503906 113.675781c0 5.910157-4.792968 10.703125-10.703125 10.703125-5.910156 0-10.703125-4.792968-10.703125-10.703125 0-5.910156 4.792969-10.703125 10.703125-10.703125 5.910157 0 10.703125 4.792969 10.703125 10.703125zm0 0"/><path d="m67.902344 312.761719c0 5.910156-4.792969 10.703125-10.703125 10.703125-5.910157 0-10.703125-4.792969-10.703125-10.703125 0-5.910157 4.792968-10.703125 10.703125-10.703125 5.910156 0 10.703125 4.792968 10.703125 10.703125zm0 0"/><path d="m465.503906 255.273438c0 5.910156-4.792968 10.703124-10.703125 10.703124-5.910156 0-10.703125-4.792968-10.703125-10.703124 0-5.910157 4.792969-10.703126 10.703125-10.703126 5.910157 0 10.703125 4.792969 10.703125 10.703126zm0 0"/></svg>